GeoramaExtended-LightItalic.ufo
<glyph name="exclam" format="2">
  <advance width="275.11999999999995"/>
  <unicode hex="0021"/>
  <outline>
    <contour>
      <point x="107.46000000000001" y="263.0" type="line"/>
      <point x="162.57999999999998" y="263.0" type="line"/>
      <point x="241.72" y="740.0" type="line"/>
      <point x="179.8" y="740.0" type="line"/>
    </contour>
    <contour>
      <point x="59.419999999999995" y="23.08" type="curve" smooth="yes"/>
      <point x="58.62" y="4.800000000000001"/>
      <point x="67.79999999999998" y="-2.0"/>
      <point x="92.48" y="-2.0" type="curve" smooth="yes"/>
      <point x="125.64" y="-2.0"/>
      <point x="137.36" y="9.540000000000001"/>
      <point x="139.76" y="46.28" type="curve" smooth="yes"/>
      <point x="140.56" y="64.8"/>
      <point x="130.9" y="71.36"/>
      <point x="106.59999999999998" y="71.36" type="curve" smooth="yes"/>
      <point x="73.33999999999999" y="71.36"/>
      <point x="61.82" y="59.239999999999995"/>
    </contour>
  </outline>
</glyph>
<glyph name="numbersign" format="2">
  <advance width="811.24"/>
  <unicode hex="0023"/>
  <outline>
    <contour>
      <point x="181.72" y="464.82" type="line"/>
      <point x="304.38" y="464.82" type="line"/>
      <point x="218.57999999999998" y="227.23999999999998" type="line"/>
      <point x="103.13999999999999" y="227.23999999999998" type="line"/>
      <point x="95.78" y="181.18" type="line"/>
      <point x="203.42" y="181.18" type="line"/>
      <point x="139.08" y="0.0" type="line"/>
      <point x="201.44" y="0.0" type="line"/>
      <point x="264.98" y="181.18" type="line"/>
      <point x="453.41999999999996" y="181.18" type="line"/>
      <point x="389.87999999999994" y="0.0" type="line"/>
      <point x="451.94" y="0.0" type="line"/>
      <point x="515.4799999999999" y="181.18" type="line"/>
      <point x="645.18" y="181.18" type="line"/>
      <point x="652.16" y="227.23999999999998" type="line"/>
      <point x="531.4799999999999" y="227.23999999999998" type="line"/>
      <point x="616.4399999999999" y="464.82" type="line"/>
      <point x="730.74" y="464.82" type="line"/>
      <point x="738.48" y="510.71999999999997" type="line"/>
      <point x="632.16" y="510.71999999999997" type="line"/>
      <point x="700.0799999999999" y="700.0" type="line"/>
      <point x="637.96" y="700.0" type="line"/>
      <point x="570.0400000000001" y="510.71999999999997" type="line"/>
      <point x="381.6" y="510.71999999999997" type="line"/>
      <point x="449.52" y="700.0" type="line"/>
      <point x="387.46" y="700.0" type="line"/>
      <point x="319.53999999999996" y="510.71999999999997" type="line"/>
      <point x="189.32" y="510.71999999999997" type="line"/>
    </contour>
    <contour>
      <point x="366.43999999999994" y="464.82" type="line"/>
      <point x="554.88" y="464.82" type="line"/>
      <point x="469.14" y="227.23999999999998" type="line"/>
      <point x="280.7" y="227.23999999999998" type="line"/>
    </contour>
  </outline>
</glyph>
<glyph name="dollar" format="2">
  <advance width="811.24"/>
  <unicode hex="0024"/>
  <outline>
    <contour>
      <point x="729.12" y="671.02" type="line"/>
      <point x="693.1" y="683.14"/>
      <point x="617.32" y="706.8599999999999"/>
      <point x="514.4" y="709.62" type="curve"/>
      <point x="530.0999999999999" y="804.88" type="line"/>
      <point x="480.9" y="804.88" type="line"/>
      <point x="465.34" y="708.32" type="line"/>
      <point x="325.84" y="702.84"/>
      <point x="156.38" y="649.34"/>
      <point x="156.38" y="499.13999999999993" type="curve" smooth="yes"/>
      <point x="156.38" y="280.71999999999997"/>
      <point x="631.3" y="357.08000000000004"/>
      <point x="631.3" y="190.42" type="curve" smooth="yes"/>
      <point x="631.3" y="75.46000000000001"/>
      <point x="467.94" y="42.28"/>
      <point x="368.3399999999999" y="42.28" type="curve" smooth="yes"/>
      <point x="255.66000000000003" y="42.28"/>
      <point x="124.75999999999999" y="77.42"/>
      <point x="78.16000000000001" y="95.6" type="curve"/>
      <point x="56.54" y="42.699999999999996" type="line"/>
      <point x="112.35999999999999" y="24.439999999999998"/>
      <point x="223.62" y="-7.279999999999999"/>
      <point x="343.04" y="-9.5" type="curve"/>
      <point x="328.04" y="-105.0" type="line"/>
      <point x="377.09999999999997" y="-105.0" type="line"/>
      <point x="392.09999999999997" y="-8.379999999999999" type="line"/>
      <point x="532.6999999999999" y="-1.3199999999999994"/>
      <point x="700.42" y="48.92"/>
      <point x="700.42" y="200.92" type="curve" smooth="yes"/>
      <point x="700.42" y="416.22"/>
      <point x="224.72" y="339.34000000000003"/>
      <point x="224.72" y="508.62000000000006" type="curve" smooth="yes"/>
      <point x="224.72" y="622.68"/>
      <point x="384.74" y="657.1599999999999"/>
      <point x="477.59999999999997" y="657.1599999999999" type="curve" smooth="yes"/>
      <point x="581.7" y="657.1599999999999"/>
      <point x="655.2199999999999" y="638.3199999999999"/>
      <point x="708.64" y="618.7800000000001" type="curve"/>
    </contour>
  </outline>
</glyph>
<glyph name="ampersand" format="2">
  <advance width="853.0199999999999"/>
  <unicode hex="0026"/>
  <outline>
    <contour>
      <point x="332.08" y="-10.0" type="curve" smooth="yes"/>
      <point x="512.9599999999999" y="-10.0"/>
      <point x="665.9399999999998" y="87.47999999999999"/>
      <point x="711.6" y="290.0" type="curve"/>
      <point x="658.3199999999999" y="294.0" type="line"/>
      <point x="623.6" y="123.58"/>
      <point x="482.34" y="39.56000000000001"/>
      <point x="338.1" y="39.56000000000001" type="curve" smooth="yes"/>
      <point x="193.27999999999997" y="39.56000000000001"/>
      <point x="117.27999999999999" y="96.02"/>
      <point x="117.27999999999999" y="173.18" type="curve" smooth="yes"/>
      <point x="117.27999999999999" y="303.48"/>
      <point x="262.96000000000004" y="353.32"/>
      <point x="403.90000000000003" y="353.32" type="curve" smooth="yes"/>
      <point x="423.94" y="353.32" type="line"/>
      <point x="430.88" y="393.62" type="line"/>
      <point x="420.68" y="394.42" type="line" smooth="yes"/>
      <point x="309.23999999999995" y="398.14"/>
      <point x="231.78" y="443.15999999999997"/>
      <point x="231.78" y="527.74" type="curve" smooth="yes"/>
      <point x="231.78" y="595.9799999999999"/>
      <point x="289.98" y="664.22"/>
      <point x="404.0" y="664.22" type="curve" smooth="yes"/>
      <point x="470.59999999999997" y="664.22"/>
      <point x="539.44" y="637.7800000000001"/>
      <point x="581.8800000000001" y="597.28" type="curve"/>
      <point x="616.78" y="634.76" type="line"/>
      <point x="567.42" y="680.8999999999999"/>
      <point x="482.99999999999994" y="710.0"/>
      <point x="398.52000000000004" y="710.0" type="curve" smooth="yes"/>
      <point x="246.34" y="710.0"/>
      <point x="166.36" y="624.7599999999999"/>
      <point x="166.36" y="535.0199999999999" type="curve" smooth="yes"/>
      <point x="166.36" y="453.03999999999996"/>
      <point x="230.48" y="393.78000000000003"/>
      <point x="319.34" y="380.6" type="curve"/>
      <point x="165.14" y="369.2"/>
      <point x="50.78" y="299.78000000000003"/>
      <point x="50.78" y="168.57999999999998" type="curve" smooth="yes"/>
      <point x="50.78" y="64.92"/>
      <point x="141.26" y="-10.0"/>
    </contour>
    <contour>
      <point x="488.3999999999999" y="230.2" type="line"/>
      <point x="493.09999999999997" y="279.46"/>
      <point x="528.92" y="300.82"/>
      <point x="567.6999999999999" y="300.82" type="curve" smooth="yes"/>
      <point x="643.16" y="300.82"/>
      <point x="678.68" y="266.72"/>
      <point x="754.12" y="266.72" type="curve" smooth="yes"/>
      <point x="823.0999999999999" y="266.72"/>
      <point x="868.2399999999999" y="319.42"/>
      <point x="869.0200000000001" y="388.15999999999997" type="curve"/>
      <point x="826.62" y="390.32" type="line"/>
      <point x="824.8199999999998" y="341.12"/>
      <point x="792.34" y="310.94"/>
      <point x="739.9399999999999" y="310.94" type="curve" smooth="yes"/>
      <point x="671.3000000000001" y="310.94"/>
      <point x="636.2199999999999" y="346.71999999999997"/>
      <point x="563.4599999999999" y="346.71999999999997" type="curve" smooth="yes"/>
      <point x="503.9599999999999" y="346.71999999999997"/>
      <point x="455.5199999999999" y="307.11999999999995"/>
      <point x="449.86" y="243.38000000000002" type="curve"/>
    </contour>
  </outline>
</glyph>
<glyph name="quotesingle" format="2">
  <advance width="179.82"/>
  <unicode hex="0027"/>
  <outline>
    <contour>
      <point x="89.38000000000001" y="427.0" type="line"/>
      <point x="137.86" y="427.0" type="line"/>
      <point x="186.06" y="700.0" type="line"/>
      <point x="127.75999999999999" y="700.0" type="line"/>
    </contour>
  </outline>
</glyph>
<glyph name="parenleft" format="2">
  <advance width="380.82"/>
  <unicode hex="0028"/>
  <outline>
    <contour>
      <point x="94.62" y="89.3" type="curve" smooth="yes"/>
      <point x="94.62" y="-65.14"/>
      <point x="145.01999999999998" y="-192.14"/>
      <point x="269.85999999999996" y="-220.0" type="curve"/>
      <point x="279.92" y="-174.2" type="line"/>
      <point x="193.73999999999998" y="-150.56000000000003"/>
      <point x="147.82" y="-50.120000000000005"/>
      <point x="147.82" y="91.78" type="curve" smooth="yes"/>
      <point x="147.82" y="331.46"/>
      <point x="254.7" y="661.1400000000001"/>
      <point x="417.26" y="702.12" type="curve"/>
      <point x="422.4" y="749.7600000000001" type="line"/>
      <point x="188.36" y="700.36"/>
      <point x="94.62" y="328.46"/>
    </contour>
  </outline>
</glyph>
<glyph name="parenright" format="2">
  <advance width="380.82"/>
  <unicode hex="0029"/>
  <outline>
    <contour>
      <point x="283.3" y="439.58" type="curve" smooth="yes"/>
      <point x="283.3" y="598.08"/>
      <point x="232.01999999999998" y="722.14"/>
      <point x="106.62" y="750.0" type="curve"/>
      <point x="97.03999999999999" y="701.66" type="line"/>
      <point x="189.29999999999998" y="675.46"/>
      <point x="230.09999999999997" y="572.78"/>
      <point x="230.09999999999997" y="439.52" type="curve" smooth="yes"/>
      <point x="230.09999999999997" y="210.95999999999998"/>
      <point x="126.89999999999999" y="-127.38000000000001"/>
      <point x="-40.7" y="-171.48" type="curve"/>
      <point x="-45.6" y="-220.0" type="line"/>
      <point x="167.24" y="-171.96"/>
      <point x="283.3" y="174.86"/>
    </contour>
  </outline>
</glyph>
<glyph name="asterisk" format="2">
  <advance width="387.64000000000004"/>
  <unicode hex="002A"/>
  <outline>
    <contour>
      <point x="113.96" y="334.6" type="line"/>
      <point x="224.78" y="470.34" type="line"/>
      <point x="290.88" y="334.84000000000003" type="line"/>
      <point x="319.98" y="353.71999999999997" type="line"/>
      <point x="258.97999999999996" y="496.86" type="line"/>
      <point x="406.52" y="552.96" type="line"/>
      <point x="401.11999999999995" y="584.94" type="line"/>
      <point x="255.3" y="537.34" type="line"/>
      <point x="279.5" y="706.3600000000001" type="line"/>
      <point x="245.48" y="706.3600000000001" type="line"/>
      <point x="216.04000000000002" y="537.58" type="line"/>
      <point x="83.94" y="585.18" type="line"/>
      <point x="69.58" y="553.44" type="line"/>
      <point x="198.46" y="497.34000000000003" type="line"/>
      <point x="90.24" y="354.84000000000003" type="line"/>
    </contour>
  </outline>
</glyph>
<glyph name="plus" format="2">
  <advance width="495.41999999999996"/>
  <unicode hex="002B"/>
  <outline>
    <contour>
      <point x="189.52" y="79.56" type="line"/>
      <point x="245.14" y="79.56" type="line"/>
      <point x="274.62" y="269.05999999999995" type="line"/>
      <point x="438.88" y="269.05999999999995" type="line"/>
      <point x="447.53999999999996" y="322.0" type="line"/>
      <point x="283.28" y="322.0" type="line"/>
      <point x="313.46000000000004" y="511.6" type="line"/>
      <point x="258.12" y="511.6" type="line"/>
      <point x="227.65999999999997" y="322.0" type="line"/>
      <point x="63.58" y="322.0" type="line"/>
      <point x="54.919999999999995" y="269.05999999999995" type="line"/>
      <point x="219.27999999999997" y="269.05999999999995" type="line"/>
    </contour>
  </outline>
</glyph>
<glyph name="comma" format="2">
  <advance width="205.34"/>
  <unicode hex="002C"/>
  <outline>
    <contour>
      <point x="38.26" y="46.040000000000006" type="line"/>
      <point x="40.54" y="30.5"/>
      <point x="40.86" y="14.32"/>
      <point x="40.12" y="-0.4599999999999991" type="curve" smooth="yes"/>
      <point x="37.62" y="-64.52"/>
      <point x="-2.7400000000000015" y="-145.73999999999998"/>
      <point x="-63.46" y="-180.84" type="curve"/>
      <point x="-22.3" y="-199.34" type="line"/>
      <point x="57.5" y="-155.61999999999998"/>
      <point x="102.6" y="-57.84"/>
      <point x="102.6" y="12.340000000000002" type="curve" smooth="yes"/>
      <point x="102.6" y="26.759999999999998"/>
      <point x="100.72" y="40.32"/>
      <point x="97.01999999999998" y="52.96000000000001" type="curve"/>
    </contour>
  </outline>
</glyph>
<glyph name="hyphen" format="2">
  <advance width="388.46"/>
  <unicode hex="002D"/>
  <outline>
    <contour>
      <point x="54.099999999999994" y="247.51999999999998" type="line"/>
      <point x="325.53999999999996" y="247.51999999999998" type="line"/>
      <point x="334.68" y="302.28" type="line"/>
      <point x="63.239999999999995" y="302.28" type="line"/>
    </contour>
  </outline>
</glyph>
<glyph name="period" format="2">
  <advance width="207.16"/>
  <unicode hex="002E"/>
  <outline>
    <contour>
      <point x="25.16" y="23.259999999999998" type="curve" smooth="yes"/>
      <point x="24.36" y="4.92"/>
      <point x="33.48" y="-1.82"/>
      <point x="58.22" y="-1.82" type="curve" smooth="yes"/>
      <point x="91.38" y="-1.82"/>
      <point x="103.03999999999999" y="9.720000000000002"/>
      <point x="105.44" y="46.58" type="curve" smooth="yes"/>
      <point x="106.24" y="65.04"/>
      <point x="96.64" y="71.54"/>
      <point x="72.34" y="71.54" type="curve" smooth="yes"/>
      <point x="39.02" y="71.54"/>
      <point x="27.56" y="59.42"/>
    </contour>
  </outline>
</glyph>
<glyph name="slash" format="2">
  <advance width="395.7"/>
  <unicode hex="002F"/>
  <outline>
    <contour>
      <point x="-67.96000000000001" y="-210.0" type="line"/>
      <point x="-12.660000000000004" y="-210.0" type="line"/>
      <point x="460.66" y="740.0" type="line"/>
      <point x="405.1" y="740.0" type="line"/>
    </contour>
  </outline>
</glyph>
<glyph name="zero" format="2">
  <advance width="811.48"/>
  <unicode hex="0030"/>
  <outline>
    <contour>
      <point x="387.15999999999997" y="-10.4" type="curve" smooth="yes"/>
      <point x="627.76" y="-10.4"/>
      <point x="773.0" y="188.68"/>
      <point x="773.0" y="425.4" type="curve" smooth="yes"/>
      <point x="773.0" y="612.74"/>
      <point x="656.84" y="710.2"/>
      <point x="447.34" y="710.2" type="curve" smooth="yes"/>
      <point x="204.32" y="710.2"/>
      <point x="61.919999999999995" y="511.55999999999995"/>
      <point x="61.919999999999995" y="276.03999999999996" type="curve" smooth="yes"/>
      <point x="61.919999999999995" y="88.89999999999999"/>
      <point x="178.9" y="-10.4"/>
    </contour>
    <contour>
      <point x="389.35999999999996" y="41.400000000000006" type="curve" smooth="yes"/>
      <point x="222.63999999999996" y="41.400000000000006"/>
      <point x="129.74" y="122.60000000000001"/>
      <point x="129.92" y="277.05999999999995" type="curve" smooth="yes"/>
      <point x="130.28" y="480.16"/>
      <point x="242.05999999999997" y="658.6"/>
      <point x="445.34000000000003" y="658.6" type="curve" smooth="yes"/>
      <point x="612.9000000000001" y="658.6"/>
      <point x="705.1799999999998" y="578.84"/>
      <point x="704.9999999999999" y="424.38000000000005" type="curve" smooth="yes"/>
      <point x="704.64" y="222.3"/>
      <point x="591.62" y="41.400000000000006"/>
    </contour>
  </outline>
</glyph>
<glyph name="one" format="2">
  <advance width="811.24"/>
  <unicode hex="0031"/>
  <outline>
    <contour>
      <point x="75.17999999999999" y="0.0" type="line"/>
      <point x="703.66" y="0.0" type="line"/>
      <point x="712.24" y="53.04" type="line"/>
      <point x="455.32" y="53.04" type="line"/>
      <point x="559.54" y="705.6" type="line"/>
      <point x="525.92" y="705.6" type="line"/>
      <point x="145.44" y="533.38" type="line"/>
      <point x="155.67999999999998" y="480.41999999999996" type="line"/>
      <point x="481.29999999999995" y="629.46" type="line"/>
      <point x="389.93999999999994" y="53.04" type="line"/>
      <point x="83.69999999999999" y="53.04" type="line"/>
    </contour>
  </outline>
</glyph>
<glyph name="two" format="2">
  <advance width="811.48"/>
  <unicode hex="0032"/>
  <outline>
    <contour>
      <point x="78.53999999999999" y="42.39999999999999" type="curve"/>
      <point x="74.7" y="0.0" type="line"/>
      <point x="687.62" y="0.0" type="line"/>
      <point x="694.9599999999999" y="52.599999999999994" type="line"/>
      <point x="194.26" y="52.599999999999994" type="line"/>
      <point x="545.2399999999999" y="247.34"/>
      <point x="656.82" y="372.63999999999993"/>
      <point x="656.82" y="529.68" type="curve" smooth="yes"/>
      <point x="656.82" y="648.2200000000001"/>
      <point x="557.16" y="710.0"/>
      <point x="416.62" y="710.0" type="curve" smooth="yes"/>
      <point x="330.08000000000004" y="710.0"/>
      <point x="232.32" y="684.38"/>
      <point x="163.71999999999997" y="644.7600000000001" type="curve"/>
      <point x="177.82" y="594.86" type="line"/>
      <point x="244.66" y="629.86"/>
      <point x="325.22" y="654.2399999999999"/>
      <point x="404.04" y="654.2399999999999" type="curve" smooth="yes"/>
      <point x="511.1799999999999" y="654.2399999999999"/>
      <point x="588.8199999999999" y="608.8"/>
      <point x="588.8199999999999" y="516.5400000000001" type="curve" smooth="yes"/>
      <point x="588.64" y="376.16"/>
      <point x="442.71999999999997" y="241.3"/>
    </contour>
  </outline>
</glyph>
<glyph name="three" format="2">
  <advance width="811.5999999999999"/>
  <unicode hex="0033"/>
  <outline>
    <contour>
      <point x="23.4" y="65.0" type="line"/>
      <point x="111.19999999999999" y="14.899999999999997"/>
      <point x="217.29999999999995" y="-10.0"/>
      <point x="352.99999999999994" y="-10.0" type="curve" smooth="yes"/>
      <point x="561.8999999999999" y="-10.0"/>
      <point x="706.1999999999999" y="70.3"/>
      <point x="706.1999999999999" y="220.4" type="curve" smooth="yes"/>
      <point x="706.1999999999999" y="309.2"/>
      <point x="644.6" y="357.0"/>
      <point x="547.4999999999999" y="371.20000000000005" type="curve"/>
      <point x="631.8000000000001" y="388.8"/>
      <point x="709.1" y="448.8"/>
      <point x="709.1" y="549.4" type="curve" smooth="yes"/>
      <point x="709.1" y="649.4000000000001"/>
      <point x="613.4" y="710.0"/>
      <point x="431.6" y="710.0" type="curve" smooth="yes"/>
      <point x="348.5999999999999" y="710.0"/>
      <point x="239.69999999999996" y="695.4000000000002"/>
      <point x="161.39999999999995" y="666.4" type="curve"/>
      <point x="174.79999999999998" y="616.8000000000001" type="line"/>
      <point x="250.49999999999997" y="642.6999999999999"/>
      <point x="345.4" y="656.1"/>
      <point x="416.99999999999994" y="656.1" type="curve" smooth="yes"/>
      <point x="558.0" y="656.1"/>
      <point x="641.5999999999999" y="612.2"/>
      <point x="641.5999999999999" y="534.6" type="curve" smooth="yes"/>
      <point x="641.5999999999999" y="439.30000000000007"/>
      <point x="550.8999999999999" y="389.9"/>
      <point x="439.5" y="389.9" type="curve" smooth="yes"/>
      <point x="254.3" y="389.9" type="line"/>
      <point x="246.1" y="340.49999999999994" type="line"/>
      <point x="428.29999999999995" y="340.49999999999994" type="line" smooth="yes"/>
      <point x="567.7" y="340.49999999999994"/>
      <point x="638.0" y="299.8"/>
      <point x="638.0" y="215.0" type="curve" smooth="yes"/>
      <point x="638.0" y="107.2"/>
      <point x="533.4" y="43.9"/>
      <point x="359.8999999999999" y="43.9" type="curve" smooth="yes"/>
      <point x="228.5" y="43.9"/>
      <point x="131.6" y="67.1"/>
      <point x="49.199999999999996" y="112.8" type="curve"/>
    </contour>
  </outline>
</glyph>
<glyph name="four" format="2">
  <advance width="811.5999999999999"/>
  <unicode hex="0034"/>
  <outline>
    <contour>
      <point x="49.0" y="178.30000000000004" type="line"/>
      <point x="517.4" y="178.30000000000004" type="line"/>
      <point x="488.4" y="-4.0" type="line"/>
      <point x="554.7" y="-4.0" type="line"/>
      <point x="583.4" y="178.30000000000004" type="line"/>
      <point x="736.8999999999999" y="178.30000000000004" type="line"/>
      <point x="744.6999999999999" y="227.99999999999997" type="line"/>
      <point x="591.3999999999999" y="227.99999999999997" type="line"/>
      <point x="665.9999999999999" y="696.2000000000002" type="line"/>
      <point x="621.2" y="702.9000000000001" type="line"/>
      <point x="52.8" y="220.20000000000002" type="line"/>
    </contour>
    <contour>
      <point x="130.70000000000002" y="227.99999999999997" type="line"/>
      <point x="587.9000000000001" y="615.0" type="line"/>
      <point x="525.8000000000001" y="227.99999999999997" type="line"/>
    </contour>
  </outline>
</glyph>
<glyph name="five" format="2">
  <advance width="811.48"/>
  <unicode hex="0035"/>
  <outline>
    <contour>
      <point x="49.45999999999999" y="65.58000000000001" type="line"/>
      <point x="123.22" y="17.0"/>
      <point x="212.93999999999997" y="-10.0"/>
      <point x="347.02" y="-10.0" type="curve" smooth="yes"/>
      <point x="609.62" y="-10.0"/>
      <point x="710.68" y="109.50000000000001"/>
      <point x="710.68" y="245.26" type="curve" smooth="yes"/>
      <point x="710.68" y="355.04"/>
      <point x="639.72" y="410.4800000000001"/>
      <point x="481.36" y="410.48" type="curve" smooth="yes"/>
      <point x="208.3" y="410.48" type="line"/>
      <point x="276.1" y="645.2199999999999" type="line"/>
      <point x="722.8000000000001" y="645.2199999999999" type="line"/>
      <point x="732.22" y="700.0" type="line"/>
      <point x="237.34" y="700.0" type="line"/>
      <point x="140.26" y="370.48" type="line"/>
      <point x="147.82" y="360.5" type="line"/>
      <point x="449.87999999999994" y="360.5" type="line" smooth="yes"/>
      <point x="587.1600000000001" y="360.5"/>
      <point x="645.44" y="322.9600000000001"/>
      <point x="645.44" y="235.20000000000002" type="curve" smooth="yes"/>
      <point x="645.44" y="132.66"/>
      <point x="543.3000000000001" y="43.400000000000006"/>
      <point x="352.81999999999994" y="43.400000000000006" type="curve" smooth="yes"/>
      <point x="225.6" y="43.400000000000006"/>
      <point x="139.78000000000003" y="73.15999999999998"/>
      <point x="73.93999999999998" y="114.1" type="curve"/>
    </contour>
  </outline>
</glyph>
<glyph name="six" format="2">
  <advance width="811.5999999999999"/>
  <unicode hex="0036"/>
  <note>
14
</note>
  <outline>
    <contour>
      <point x="397.9" y="-10.0" type="curve" smooth="yes"/>
      <point x="607.9" y="-10.0"/>
      <point x="748.5" y="73.00000000000001"/>
      <point x="748.5" y="235.89999999999998" type="curve" smooth="yes"/>
      <point x="748.5" y="367.00000000000006"/>
      <point x="653.3000000000001" y="435.0"/>
      <point x="477.69999999999993" y="435.0" type="curve" smooth="yes"/>
      <point x="362.6" y="435.0"/>
      <point x="226.7" y="402.09999999999997"/>
      <point x="139.70000000000002" y="339.5" type="curve"/>
      <point x="136.0" y="285.00000000000006" type="line"/>
      <point x="213.7" y="347.1"/>
      <point x="341.5" y="384.0"/>
      <point x="458.09999999999997" y="384.0" type="curve" smooth="yes"/>
      <point x="610.8" y="384.0"/>
      <point x="682.8" y="331.4"/>
      <point x="682.8" y="231.70000000000002" type="curve" smooth="yes"/>
      <point x="682.8" y="113.80000000000001"/>
      <point x="581.5" y="42.400000000000006"/>
      <point x="408.19999999999993" y="42.400000000000006" type="curve" smooth="yes"/>
      <point x="229.4" y="42.400000000000006"/>
      <point x="142.39999999999998" y="111.89999999999999"/>
      <point x="142.39999999999998" y="265.1" type="curve" smooth="yes"/>
      <point x="142.39999999999998" y="399.29999999999995"/>
      <point x="188.09999999999997" y="507.4"/>
      <point x="271.2" y="574.8000000000001" type="curve" smooth="yes"/>
      <point x="336.2" y="627.9"/>
      <point x="423.5" y="656.2"/>
      <point x="527.3" y="656.2" type="curve" smooth="yes"/>
      <point x="611.8" y="656.2"/>
      <point x="685.2" y="644.6"/>
      <point x="759.3" y="619.3000000000001" type="curve"/>
      <point x="780.1999999999999" y="669.8000000000001" type="line"/>
      <point x="709.1999999999999" y="695.0999999999999"/>
      <point x="621.0999999999999" y="710.0"/>
      <point x="527.8" y="710.0" type="curve" smooth="yes"/>
      <point x="250.8" y="710.0"/>
      <point x="77.79999999999998" y="541.1999999999999"/>
      <point x="77.79999999999998" y="259.9" type="curve" smooth="yes"/>
      <point x="77.79999999999998" y="77.3"/>
      <point x="188.0" y="-10.0"/>
    </contour>
  </outline>
</glyph>
<glyph name="seven" format="2">
  <advance width="811.24"/>
  <unicode hex="0037"/>
  <note>
9
</note>
  <outline>
    <contour>
      <point x="230.52" y="0.0" type="curve"/>
      <point x="300.47999999999996" y="0.0" type="line"/>
      <point x="324.03999999999996" y="140.92"/>
      <point x="388.97999999999996" y="232.07999999999998"/>
      <point x="546.64" y="415.54" type="curve" smooth="yes"/>
      <point x="751.46" y="653.8" type="line"/>
      <point x="759.1199999999999" y="700.0" type="line"/>
      <point x="140.66" y="700.0" type="line"/>
      <point x="132.01999999999995" y="643.62" type="line"/>
      <point x="670.5799999999999" y="643.62" type="line"/>
      <point x="479.78" y="426.7" type="line" smooth="yes"/>
      <point x="326.66" y="252.57999999999998"/>
      <point x="255.6" y="157.20000000000002"/>
    </contour>
  </outline>
</glyph>
<glyph name="eight" format="2">
  <advance width="811.5999999999999"/>
  <unicode hex="0038"/>
  <outline>
    <contour>
      <point x="372.19999999999993" y="-10.0" type="curve" smooth="yes"/>
      <point x="575.1" y="-10.0"/>
      <point x="737.1999999999999" y="45.00000000000001"/>
      <point x="737.1999999999999" y="208.2" type="curve" smooth="yes"/>
      <point x="737.1999999999999" y="463.0"/>
      <point x="200.0" y="324.0"/>
      <point x="200.0" y="524.8000000000001" type="curve" smooth="yes"/>
      <point x="200.0" y="620.4000000000001"/>
      <point x="312.1" y="659.8"/>
      <point x="458.29999999999995" y="659.8" type="curve" smooth="yes"/>
      <point x="620.4000000000001" y="659.8"/>
      <point x="688.9999999999999" y="614.5999999999999"/>
      <point x="688.9999999999999" y="540.9999999999999" type="curve" smooth="yes"/>
      <point x="688.9999999999999" y="453.7"/>
      <point x="632.6999999999999" y="408.7"/>
      <point x="529.1" y="366.6" type="curve"/>
      <point x="581.1" y="349.70000000000005" type="line"/>
      <point x="680.0" y="390.20000000000005"/>
      <point x="750.4" y="446.2"/>
      <point x="750.4" y="549.3000000000001" type="curve" smooth="yes"/>
      <point x="750.4" y="646.6999999999999"/>
      <point x="664.3000000000001" y="710.0"/>
      <point x="461.5" y="710.0" type="curve" smooth="yes"/>
      <point x="282.6" y="710.0"/>
      <point x="136.79999999999998" y="658.4000000000001"/>
      <point x="136.79999999999998" y="516.9" type="curve" smooth="yes"/>
      <point x="136.79999999999998" y="268.29999999999995"/>
      <point x="668.8" y="414.3"/>
      <point x="668.8" y="200.2" type="curve" smooth="yes"/>
      <point x="668.8" y="79.20000000000002"/>
      <point x="540.6" y="37.800000000000004"/>
      <point x="377.2" y="37.800000000000004" type="curve" smooth="yes"/>
      <point x="194.9" y="37.800000000000004"/>
      <point x="111.49999999999999" y="90.1"/>
      <point x="111.49999999999999" y="180.6" type="curve" smooth="yes"/>
      <point x="111.49999999999999" y="276.59999999999997"/>
      <point x="188.00000000000003" y="338.4"/>
      <point x="301.49999999999994" y="371.59999999999997" type="curve"/>
      <point x="245.79999999999995" y="392.9" type="line"/>
      <point x="130.39999999999998" y="357.7"/>
      <point x="45.3" y="285.1"/>
      <point x="45.3" y="172.0" type="curve" smooth="yes"/>
      <point x="45.3" y="57.5"/>
      <point x="146.4" y="-10.0"/>
    </contour>
  </outline>
</glyph>
<glyph name="nine" format="2">
  <advance width="811.5999999999999"/>
  <unicode hex="0039"/>
  <outline>
    <contour>
      <point x="444.09999999999997" y="710.0" type="curve" smooth="yes"/>
      <point x="224.29999999999998" y="710.0"/>
      <point x="96.5" y="620.1999999999999"/>
      <point x="96.5" y="462.70000000000005" type="curve" smooth="yes"/>
      <point x="96.5" y="331.59999999999997"/>
      <point x="191.70000000000002" y="264.99999999999994"/>
      <point x="367.3" y="264.99999999999994" type="curve" smooth="yes"/>
      <point x="482.4" y="264.99999999999994"/>
      <point x="618.2999999999998" y="297.9"/>
      <point x="705.3" y="360.5" type="curve"/>
      <point x="709.0" y="415.0" type="line"/>
      <point x="631.3" y="352.90000000000003"/>
      <point x="503.5" y="316.00000000000006"/>
      <point x="386.8999999999999" y="316.00000000000006" type="curve" smooth="yes"/>
      <point x="234.19999999999996" y="316.00000000000006"/>
      <point x="162.2" y="368.6"/>
      <point x="162.2" y="468.3" type="curve" smooth="yes"/>
      <point x="162.2" y="586.1999999999999"/>
      <point x="260.49999999999994" y="657.6"/>
      <point x="433.79999999999995" y="657.6" type="curve" smooth="yes"/>
      <point x="612.5999999999999" y="657.6"/>
      <point x="702.6" y="588.1"/>
      <point x="702.6" y="434.90000000000003" type="curve" smooth="yes"/>
      <point x="702.6" y="300.70000000000005"/>
      <point x="657.5000000000001" y="192.0"/>
      <point x="574.4000000000001" y="124.60000000000001" type="curve" smooth="yes"/>
      <point x="509.4" y="71.49999999999999"/>
      <point x="422.09999999999997" y="43.2"/>
      <point x="318.29999999999995" y="43.2" type="curve" smooth="yes"/>
      <point x="233.79999999999998" y="43.2"/>
      <point x="159.8" y="55.400000000000006"/>
      <point x="85.69999999999999" y="80.7" type="curve"/>
      <point x="64.79999999999998" y="30.199999999999996" type="line"/>
      <point x="135.79999999999998" y="4.8999999999999995"/>
      <point x="223.89999999999998" y="-10.0"/>
      <point x="317.19999999999993" y="-10.0" type="curve" smooth="yes"/>
      <point x="594.2" y="-10.0"/>
      <point x="767.1999999999998" y="158.8"/>
      <point x="767.1999999999998" y="440.0999999999999" type="curve" smooth="yes"/>
      <point x="767.1999999999998" y="621.1"/>
      <point x="656.1999999999999" y="710.0"/>
    </contour>
  </outline>
</glyph>
<glyph name="less" format="2">
  <advance width="495.91999999999996"/>
  <unicode hex="003C"/>
  <outline>
    <contour>
      <point x="408.36" y="69.42" type="line"/>
      <point x="416.84" y="124.80000000000001" type="line"/>
      <point x="113.49999999999999" y="294.44" type="line"/>
      <point x="471.06" y="464.23999999999995" type="line"/>
      <point x="479.54" y="520.88" type="line"/>
      <point x="62.559999999999995" y="324.38" type="line"/>
      <point x="53.52" y="267.14" type="line"/>
    </contour>
  </outline>
</glyph>
<glyph name="equal" format="2">
  <advance width="493.28"/>
  <unicode hex="003D"/>
  <outline>
    <contour>
      <point x="428.1" y="215.76000000000002" type="line"/>
      <point x="46.89999999999999" y="215.76000000000002" type="line"/>
      <point x="38.35999999999999" y="162.58" type="line"/>
      <point x="419.56000000000006" y="162.58" type="line"/>
    </contour>
    <contour>
      <point x="461.3" y="428.90000000000003" type="line"/>
      <point x="80.02" y="428.90000000000003" type="line"/>
      <point x="71.56" y="375.72" type="line"/>
      <point x="452.76" y="375.72" type="line"/>
    </contour>
  </outline>
</glyph>
<glyph name="greater" format="2">
  <advance width="495.91999999999996"/>
  <unicode hex="003E"/>
  <outline>
    <contour>
      <point x="439.8" y="266.42" type="line"/>
      <point x="448.56" y="321.56" type="line"/>
      <point x="93.82000000000001" y="519.0" type="line"/>
      <point x="85.06" y="464.79999999999995" type="line"/>
      <point x="388.84" y="294.68" type="line"/>
      <point x="31.36" y="125.6" type="line"/>
      <point x="22.5" y="68.94000000000001" type="line"/>
    </contour>
  </outline>
</glyph>
<glyph name="question" format="2">
  <advance width="540.1"/>
  <unicode hex="003F"/>
  <outline>
    <contour>
      <point x="215.49999999999997" y="261.52" type="line"/>
      <point x="270.47999999999996" y="261.52" type="line"/>
      <point x="281.64" y="327.54" type="line"/>
      <point x="452.02" y="381.48"/>
      <point x="551.82" y="447.18"/>
      <point x="551.82" y="589.42" type="curve" smooth="yes"/>
      <point x="551.82" y="706.5"/>
      <point x="447.03999999999996" y="750.0"/>
      <point x="342.8" y="750.0" type="curve" smooth="yes"/>
      <point x="255.66" y="750.0"/>
      <point x="153.5" y="723.38"/>
      <point x="74.75999999999999" y="676.3000000000001" type="curve"/>
      <point x="87.0" y="628.12" type="line"/>
      <point x="163.76" y="669.68"/>
      <point x="250.26000000000002" y="694.62"/>
      <point x="329.68" y="694.62" type="curve" smooth="yes"/>
      <point x="410.84" y="694.62"/>
      <point x="485.70000000000005" y="668.3399999999999"/>
      <point x="485.70000000000005" y="576.54" type="curve" smooth="yes"/>
      <point x="485.70000000000005" y="483.06"/>
      <point x="430.65999999999997" y="414.41999999999996"/>
      <point x="230.14" y="362.02" type="curve"/>
    </contour>
    <contour>
      <point x="171.64" y="21.48" type="curve" smooth="yes"/>
      <point x="171.6" y="4.54"/>
      <point x="180.51999999999998" y="-2.0"/>
      <point x="204.57999999999998" y="-2.0" type="curve" smooth="yes"/>
      <point x="236.82" y="-2.0"/>
      <point x="251.93999999999997" y="9.3"/>
      <point x="252.05999999999997" y="47.14000000000001" type="curve" smooth="yes"/>
      <point x="252.1" y="64.8"/>
      <point x="242.55999999999997" y="71.16"/>
      <point x="219.08" y="71.16" type="curve" smooth="yes"/>
      <point x="186.76" y="71.16"/>
      <point x="171.76" y="59.44"/>
    </contour>
  </outline>
</glyph>
<glyph name="at" format="2">
  <advance width="887.6"/>
  <unicode hex="0040"/>
  <outline>
    <contour>
      <point x="367.8" y="-120.0" type="curve" smooth="yes"/>
      <point x="452.79999999999995" y="-120.0"/>
      <point x="538.8999999999999" y="-96.5"/>
      <point x="613.7" y="-52.5" type="curve"/>
      <point x="603.0999999999999" y="-21.700000000000003" type="line"/>
      <point x="530.1" y="-62.099999999999994"/>
      <point x="449.29999999999995" y="-82.7"/>
      <point x="372.0" y="-82.7" type="curve" smooth="yes"/>
      <point x="196.20000000000002" y="-82.7"/>
      <point x="89.10000000000001" y="18.9"/>
      <point x="89.10000000000001" y="192.29999999999995" type="curve" smooth="yes"/>
      <point x="89.10000000000001" y="466.5"/>
      <point x="270.29999999999995" y="692.8000000000001"/>
      <point x="525.6" y="692.8000000000001" type="curve" smooth="yes"/>
      <point x="707.8" y="692.8000000000001"/>
      <point x="814.4999999999999" y="598.0000000000001"/>
      <point x="814.4999999999999" y="432.19999999999993" type="curve" smooth="yes"/>
      <point x="814.4999999999999" y="273.2"/>
      <point x="739.0" y="115.19999999999999"/>
      <point x="661.0999999999999" y="115.19999999999999" type="curve" smooth="yes"/>
      <point x="606.4" y="115.19999999999999"/>
      <point x="605.2" y="177.6"/>
      <point x="619.8999999999999" y="247.50000000000003" type="curve" smooth="yes"/>
      <point x="676.7999999999998" y="513.0" type="line"/>
      <point x="619.3" y="531.6"/>
      <point x="565.4999999999999" y="541.1"/>
      <point x="519.9999999999999" y="541.1" type="curve" smooth="yes"/>
      <point x="350.90000000000003" y="541.1"/>
      <point x="224.0" y="382.4"/>
      <point x="224.0" y="214.99999999999997" type="curve" smooth="yes"/>
      <point x="224.0" y="124.10000000000002"/>
      <point x="273.3" y="76.89999999999999"/>
      <point x="362.29999999999995" y="76.89999999999999" type="curve" smooth="yes"/>
      <point x="436.5999999999999" y="76.89999999999999"/>
      <point x="517.0" y="120.7"/>
      <point x="563.0" y="190.29999999999998" type="curve"/>
      <point x="560.5999999999999" y="116.3"/>
      <point x="590.3000000000001" y="73.30000000000001"/>
      <point x="653.5" y="73.30000000000001" type="curve" smooth="yes"/>
      <point x="764.9000000000001" y="73.30000000000001"/>
      <point x="854.1999999999999" y="253.79999999999998"/>
      <point x="854.1999999999999" y="434.9" type="curve" smooth="yes"/>
      <point x="854.1999999999999" y="619.4"/>
      <point x="729.4999999999999" y="730.5"/>
      <point x="530.5999999999999" y="730.5" type="curve" smooth="yes"/>
      <point x="250.2" y="730.5"/>
      <point x="49.6" y="493.20000000000005"/>
      <point x="49.6" y="185.7" type="curve" smooth="yes"/>
      <point x="49.6" y="-5.900000000000007"/>
      <point x="169.6" y="-120.0"/>
    </contour>
    <contour>
      <point x="387.40000000000003" y="127.1" type="curve" smooth="yes"/>
      <point x="319.69999999999993" y="127.1"/>
      <point x="284.8" y="161.8"/>
      <point x="284.8" y="227.3" type="curve" smooth="yes"/>
      <point x="284.8" y="361.7"/>
      <point x="387.2" y="494.70000000000005"/>
      <point x="506.9" y="494.70000000000005" type="curve" smooth="yes"/>
      <point x="545.9" y="494.70000000000005"/>
      <point x="575.5999999999999" y="490.09999999999997"/>
      <point x="613.8" y="477.70000000000005" type="curve"/>
      <point x="565.4" y="254.49999999999997" type="line" smooth="yes"/>
      <point x="532.4999999999999" y="180.09999999999997"/>
      <point x="455.9" y="127.1"/>
    </contour>
  </outline>
</glyph>
<glyph name="A" format="2">
  <advance width="731.0"/>
  <unicode hex="0041"/>
  <anchor x="321.622" y="0.0" name="bottom"/>
  <anchor x="673.8" y="0.0" name="ogonek"/>
  <anchor x="432.79999999999995" y="700.0" name="top"/>
  <outline>
    <contour>
      <point x="-30.8" y="0.0" type="line"/>
      <point x="44.5" y="0.0" type="line"/>
      <point x="162.99999999999997" y="197.0" type="line"/>
      <point x="543.7" y="197.0" type="line"/>
      <point x="599.6" y="0.0" type="line"/>
      <point x="673.8" y="0.0" type="line"/>
      <point x="467.5999999999999" y="709.4" type="line"/>
      <point x="398.4" y="709.4" type="line"/>
    </contour>
    <contour>
      <point x="189.7" y="248.49999999999997" type="line"/>
      <point x="424.0" y="642.0" type="line"/>
      <point x="534.0000000000001" y="248.49999999999997" type="line"/>
    </contour>
  </outline>
</glyph>
<glyph name="B" format="2">
  <advance width="780.1999999999999"/>
  <unicode hex="0042"/>
  <outline>
    <contour>
      <point x="55.63999999999999" y="2.3599999999999994" type="line"/>
      <point x="202.26" y="-6.300000000000001"/>
      <point x="266.58" y="-10.0"/>
      <point x="366.5199999999999" y="-10.0" type="curve" smooth="yes"/>
      <point x="527.66" y="-10.0"/>
      <point x="720.1600000000001" y="36.90000000000002"/>
      <point x="720.1600000000001" y="226.52" type="curve" smooth="yes"/>
      <point x="720.1600000000001" y="307.7"/>
      <point x="658.26" y="362.16"/>
      <point x="573.7799999999999" y="371.78" type="curve"/>
      <point x="655.86" y="394.56"/>
      <point x="730.36" y="467.46"/>
      <point x="730.36" y="565.4000000000001" type="curve" smooth="yes"/>
      <point x="730.36" y="669.44"/>
      <point x="646.24" y="710.0"/>
      <point x="460.5799999999999" y="710.0" type="curve" smooth="yes"/>
      <point x="393.4" y="710.0"/>
      <point x="314.15999999999997" y="706.54"/>
      <point x="166.14" y="697.1600000000001" type="curve"/>
    </contour>
    <contour>
      <point x="183.74" y="385.66" type="line"/>
      <point x="224.76" y="647.28" type="line"/>
      <point x="304.7" y="652.4599999999999"/>
      <point x="373.56" y="657.58"/>
      <point x="450.03999999999996" y="657.58" type="curve" smooth="yes"/>
      <point x="593.76" y="657.58"/>
      <point x="662.02" y="632.38"/>
      <point x="662.02" y="548.4999999999999" type="curve" smooth="yes"/>
      <point x="662.02" y="448.59999999999997"/>
      <point x="557.6" y="385.66"/>
      <point x="472.62" y="385.66" type="curve" smooth="yes"/>
    </contour>
    <contour>
      <point x="175.62" y="338.4" type="line"/>
      <point x="473.23999999999995" y="338.4" type="line" smooth="yes"/>
      <point x="551.4399999999999" y="338.4"/>
      <point x="650.98" y="312.47999999999996"/>
      <point x="650.98" y="222.04" type="curve" smooth="yes"/>
      <point x="650.98" y="82.52"/>
      <point x="508.14000000000004" y="42.239999999999995"/>
      <point x="372.08" y="42.239999999999995" type="curve" smooth="yes"/>
      <point x="281.7" y="42.239999999999995"/>
      <point x="222.1" y="47.24"/>
      <point x="130.42" y="51.959999999999994" type="curve"/>
    </contour>
  </outline>
</glyph>
<glyph name="C" format="2">
  <advance width="777.66"/>
  <unicode hex="0043"/>
  <anchor x="423.8599999999999" y="0.0" name="bottom"/>
  <anchor x="519.92" y="700.0" name="top"/>
  <outline>
    <contour>
      <point x="442.3799999999999" y="-10.0" type="curve" smooth="yes"/>
      <point x="543.0799999999999" y="-10.0"/>
      <point x="628.64" y="2.279999999999999"/>
      <point x="701.36" y="26.659999999999997" type="curve"/>
      <point x="693.34" y="78.86" type="line"/>
      <point x="625.8399999999998" y="57.9"/>
      <point x="545.06" y="45.39999999999999"/>
      <point x="452.42" y="45.39999999999999" type="curve" smooth="yes"/>
      <point x="252.2" y="45.39999999999999"/>
      <point x="135.3" y="121.42"/>
      <point x="135.3" y="275.46000000000004" type="curve" smooth="yes"/>
      <point x="135.3" y="501.5"/>
      <point x="277.40000000000003" y="654.6000000000001"/>
      <point x="512.9200000000001" y="654.6000000000001" type="curve" smooth="yes"/>
      <point x="601.6600000000001" y="654.6000000000001"/>
      <point x="677.0" y="642.8"/>
      <point x="758.0999999999999" y="620.0799999999999" type="curve"/>
      <point x="774.68" y="672.08" type="line"/>
      <point x="684.8" y="699.8"/>
      <point x="606.5399999999998" y="710.0"/>
      <point x="511.74" y="710.0" type="curve" smooth="yes"/>
      <point x="232.99999999999997" y="710.0"/>
      <point x="66.10000000000001" y="537.7"/>
      <point x="66.10000000000001" y="269.48" type="curve" smooth="yes"/>
      <point x="66.10000000000001" y="83.03999999999999"/>
      <point x="201.66" y="-10.0"/>
    </contour>
  </outline>
</glyph>
<glyph name="D" format="2">
  <advance width="845.98"/>
  <unicode hex="0044"/>
  <anchor x="357.58" y="0.0" name="bottom"/>
  <anchor x="417.93999999999994" y="350.0" name="center"/>
  <anchor x="450.08" y="700.0" name="top"/>
  <outline>
    <contour>
      <point x="337.34000000000003" y="-10.0" type="curve" smooth="yes"/>
      <point x="604.82" y="-10.0"/>
      <point x="800.5199999999999" y="129.04"/>
      <point x="800.5199999999999" y="404.52" type="curve" smooth="yes"/>
      <point x="800.5199999999999" y="645.56"/>
      <point x="621.02" y="710.0"/>
      <point x="415.46" y="710.0" type="curve" smooth="yes"/>
      <point x="329.1000000000001" y="710.0"/>
      <point x="252.28" y="707.36"/>
      <point x="166.07999999999998" y="701.46" type="curve"/>
      <point x="54.300000000000004" y="-1.0800000000000003" type="line"/>
      <point x="151.23999999999995" y="-8.200000000000001"/>
      <point x="220.57999999999998" y="-10.0"/>
    </contour>
    <contour>
      <point x="338.96" y="41.24000000000001" type="curve" smooth="yes"/>
      <point x="256.75999999999993" y="41.24000000000001"/>
      <point x="200.16" y="43.06000000000001"/>
      <point x="129.11999999999998" y="47.760000000000005" type="curve"/>
      <point x="225.06" y="650.9999999999999" type="line"/>
      <point x="267.2" y="654.9000000000001"/>
      <point x="346.36" y="658.0"/>
      <point x="417.26" y="658.0" type="curve" smooth="yes"/>
      <point x="574.22" y="658.0"/>
      <point x="731.9" y="608.14"/>
      <point x="731.9" y="401.12" type="curve" smooth="yes"/>
      <point x="731.9" y="163.16000000000005"/>
      <point x="565.4799999999999" y="41.24000000000001"/>
    </contour>
  </outline>
</glyph>
<glyph name="E" format="2">
  <advance width="712.32"/>
  <unicode hex="0045"/>
  <anchor x="341.46000000000004" y="0.0" name="bottom"/>
  <anchor x="626.16" y="0.0" name="ogonek"/>
  <anchor x="440.69999999999993" y="700.0" name="top"/>
  <anchor x="103.23999999999998" y="700.0" name="topleft"/>
  <outline>
    <contour>
      <point x="54.48" y="0.0" type="line"/>
      <point x="626.16" y="0.0" type="line"/>
      <point x="635.5600000000001" y="56.99999999999999" type="line"/>
      <point x="129.48" y="56.99999999999999" type="line"/>
      <point x="174.75999999999996" y="342.59999999999997" type="line"/>
      <point x="633.3599999999999" y="342.59999999999997" type="line"/>
      <point x="642.76" y="398.8" type="line"/>
      <point x="183.33999999999997" y="398.8" type="line"/>
      <point x="222.3" y="643.0000000000001" type="line"/>
      <point x="706.62" y="643.0000000000001" type="line"/>
      <point x="716.1999999999999" y="700.0" type="line"/>
      <point x="165.7" y="700.0" type="line"/>
    </contour>
  </outline>
</glyph>
<glyph name="F" format="2">
  <advance width="677.3"/>
  <unicode hex="0046"/>
  <outline>
    <contour>
      <point x="54.58" y="0.0" type="line"/>
      <point x="121.11999999999999" y="0.0" type="line"/>
      <point x="168.16" y="290.56000000000006" type="line"/>
      <point x="593.8999999999999" y="290.56000000000006" type="line"/>
      <point x="602.3399999999999" y="347.88" type="line"/>
      <point x="176.82" y="347.88" type="line"/>
      <point x="223.26" y="642.6800000000001" type="line"/>
      <point x="705.4200000000001" y="642.6800000000001" type="line"/>
      <point x="714.9" y="700.0" type="line"/>
      <point x="165.89999999999998" y="700.0" type="line"/>
    </contour>
  </outline>
</glyph>
<glyph name="G" format="2">
  <advance width="798.3"/>
  <unicode hex="0047"/>
  <anchor x="396.79999999999995" y="0.0" name="bottom"/>
  <anchor x="516.06" y="700.0" name="top"/>
  <outline>
    <contour>
      <point x="416.85999999999996" y="-10.0" type="curve" smooth="yes"/>
      <point x="533.82" y="-10.0"/>
      <point x="629.14" y="12.459999999999999"/>
      <point x="691.16" y="38.32" type="curve"/>
      <point x="739.42" y="339.21999999999997" type="line"/>
      <point x="435.04" y="339.21999999999997" type="line"/>
      <point x="427.11999999999995" y="289.8" type="line"/>
      <point x="671.04" y="289.8" type="line"/>
      <point x="637.02" y="76.7" type="line"/>
      <point x="587.2" y="55.660000000000004"/>
      <point x="514.1199999999999" y="41.78"/>
      <point x="428.35999999999996" y="41.78" type="curve" smooth="yes"/>
      <point x="260.7" y="41.78"/>
      <point x="132.48" y="113.67999999999999"/>
      <point x="132.48" y="272.53999999999996" type="curve" smooth="yes"/>
      <point x="132.48" y="503.43999999999994"/>
      <point x="280.92" y="655.3"/>
      <point x="514.3199999999999" y="655.3" type="curve" smooth="yes"/>
      <point x="601.9" y="655.3"/>
      <point x="666.2399999999999" y="644.76"/>
      <point x="747.9399999999999" y="621.9" type="curve"/>
      <point x="768.16" y="673.24" type="line"/>
      <point x="693.26" y="697.4"/>
      <point x="606.8599999999999" y="710.0"/>
      <point x="514.88" y="710.0" type="curve" smooth="yes"/>
      <point x="233.54" y="710.0"/>
      <point x="65.02" y="536.6800000000001"/>
      <point x="65.02" y="265.6" type="curve" smooth="yes"/>
      <point x="65.02" y="80.60000000000001"/>
      <point x="214.32" y="-10.0"/>
    </contour>
  </outline>
</glyph>
<glyph name="H" format="2">
  <advance width="866.2799999999999"/>
  <unicode hex="0048"/>
  <anchor x="389.87744000000004" y="0.0" name="bottom"/>
  <anchor x="445.44804" y="350.0" name="center"/>
  <anchor x="500.7778799999999" y="700.0" name="top"/>
  <anchor x="86.75788" y="700.0" name="topleft"/>
  <outline>
    <contour>
      <point x="54.44" y="0.0" type="line"/>
      <point x="121.6" y="0.0" type="line"/>
      <point x="165.44" y="277.47999999999996" type="line"/>
      <point x="701.98" y="277.47999999999996" type="line"/>
      <point x="657.9200000000001" y="0.0" type="line"/>
      <point x="723.5199999999999" y="0.0" type="line"/>
      <point x="835.0799999999999" y="700.0" type="line"/>
      <point x="769.56" y="700.0" type="line"/>
      <point x="711.06" y="334.32000000000005" type="line"/>
      <point x="174.28" y="334.32000000000005" type="line"/>
      <point x="232.92" y="700.0" type="line"/>
      <point x="165.76" y="700.0" type="line"/>
    </contour>
  </outline>
</glyph>
<glyph name="I" format="2">
  <advance width="264.12"/>
  <unicode hex="0049"/>
  <anchor x="88.61528000000001" y="0.0" name="bottom"/>
  <anchor x="121.54168" y="0.6000000000000001" name="ogonek"/>
  <anchor x="199.53405999999998" y="700.0" name="top"/>
  <anchor x="103.33877999999999" y="700.0" name="topleft"/>
  <outline>
    <contour>
      <point x="54.44" y="0.0" type="line"/>
      <point x="121.36" y="0.0" type="line"/>
      <point x="232.92" y="700.0" type="line"/>
      <point x="165.76" y="700.0" type="line"/>
    </contour>
  </outline>
</glyph>
<glyph name="J" format="2">
  <advance width="595.32"/>
  <unicode hex="004A"/>
  <anchor x="240.18663999999998" y="0.0" name="bottom"/>
  <anchor x="362.88" y="700.0" name="top"/>
  <outline>
    <contour>
      <point x="-17.020000000000003" y="28.999999999999996" type="line"/>
      <point x="39.4" y="9.5"/>
      <point x="106.11999999999999" y="-10.0"/>
      <point x="211.45999999999998" y="-10.0" type="curve" smooth="yes"/>
      <point x="368.68" y="-10.0"/>
      <point x="475.0799999999999" y="65.58"/>
      <point x="503.02" y="234.46" type="curve" smooth="yes"/>
      <point x="577.2800000000001" y="700.0" type="line"/>
      <point x="143.28" y="700.0" type="line"/>
      <point x="133.98000000000002" y="643.18" type="line"/>
      <point x="501.06" y="643.18" type="line"/>
      <point x="437.08" y="242.73999999999995" type="line" smooth="yes"/>
      <point x="414.84" y="101.63999999999999"/>
      <point x="323.2" y="47.120000000000005"/>
      <point x="207.54" y="47.120000000000005" type="curve" smooth="yes"/>
      <point x="113.89999999999999" y="47.120000000000005"/>
      <point x="55.17999999999999" y="67.17999999999999"/>
      <point x="0.6599999999999997" y="85.05999999999999" type="curve"/>
    </contour>
  </outline>
</glyph>
<glyph name="K" format="2">
  <advance width="767.4799999999999"/>
  <unicode hex="004B"/>
  <anchor x="352.3" y="0.0" name="bottom"/>
  <anchor x="443.6" y="700.0" name="top"/>
  <outline>
    <contour>
      <point x="54.22" y="0.0" type="line"/>
      <point x="121.56" y="0.0" type="line"/>
      <point x="232.62" y="700.0" type="line"/>
      <point x="166.18" y="700.0" type="line"/>
    </contour>
    <contour>
      <point x="692.5799999999999" y="-9.620000000000001" type="curve" smooth="yes"/>
      <point x="698.16" y="-9.620000000000001"/>
      <point x="710.7" y="-8.86"/>
      <point x="716.6599999999999" y="-6.96" type="curve"/>
      <point x="722.76" y="52.32000000000001" type="line"/>
      <point x="718.02" y="52.440000000000005"/>
      <point x="713.56" y="51.940000000000005"/>
      <point x="708.72" y="51.940000000000005" type="curve" smooth="yes"/>
      <point x="657.08" y="51.940000000000005"/>
      <point x="620.0" y="74.22"/>
      <point x="543.0199999999999" y="140.48" type="curve" smooth="yes"/>
      <point x="178.92" y="454.76" type="line"/>
      <point x="168.16" y="385.02000000000004" type="line"/>
      <point x="488.85999999999996" y="98.42" type="line" smooth="yes"/>
      <point x="578.58" y="21.4"/>
      <point x="628.6400000000001" y="-9.620000000000001"/>
    </contour>
    <contour>
      <point x="315.68" y="309.47999999999996" type="line"/>
      <point x="449.67999999999995" y="369.92"/>
      <point x="673.3599999999999" y="505.5"/>
      <point x="792.08" y="677.0400000000001" type="curve"/>
      <point x="746.54" y="710.8" type="line"/>
      <point x="613.72" y="535.54"/>
      <point x="401.64" y="407.76000000000005"/>
      <point x="273.86" y="348.42" type="curve"/>
    </contour>
  </outline>
</glyph>
<glyph name="L" format="2">
  <advance width="640.76"/>
  <unicode hex="004C"/>
  <anchor x="318.35999999999996" y="0.0" name="bottom"/>
  <anchor x="329.80804" y="350.0" name="center"/>
  <anchor x="198.82" y="700.0" name="top"/>
  <anchor x="488.84" y="700.0" name="topright"/>
  <outline>
    <contour>
      <point x="54.2" y="0.0" type="line"/>
      <point x="580.16" y="0.0" type="line"/>
      <point x="589.66" y="56.17999999999999" type="line"/>
      <point x="130.34" y="56.17999999999999" type="line"/>
      <point x="232.68" y="700.0" type="line"/>
      <point x="165.76" y="700.0" type="line"/>
    </contour>
  </outline>
</glyph>
<glyph name="M" format="2">
  <advance width="974.4399999999999"/>
  <unicode hex="004D"/>
  <outline>
    <contour>
      <point x="54.14" y="0.0" type="line"/>
      <point x="118.65999999999998" y="0.0" type="line"/>
      <point x="214.29999999999995" y="612.16" type="line"/>
      <point x="466.76" y="250.75999999999996" type="line"/>
      <point x="498.3999999999999" y="250.75999999999996" type="line"/>
      <point x="867.3799999999999" y="613.28" type="line"/>
      <point x="768.8799999999999" y="0.0" type="line"/>
      <point x="831.68" y="0.0" type="line"/>
      <point x="943.2399999999999" y="700.0" type="line"/>
      <point x="872.3199999999999" y="700.0" type="line"/>
      <point x="491.9" y="320.78000000000003" type="line"/>
      <point x="231.66" y="700.0" type="line"/>
      <point x="165.76" y="700.0" type="line"/>
    </contour>
  </outline>
</glyph>
<glyph name="N" format="2">
  <advance width="857.3"/>
  <unicode hex="004E"/>
  <anchor x="381.5444" y="0.0" name="bottom"/>
  <anchor x="497.4312999999999" y="700.0" name="top"/>
  <outline>
    <contour>
      <point x="54.6" y="0.0" type="line"/>
      <point x="116.89999999999999" y="0.0" type="line"/>
      <point x="213.10000000000002" y="609.1999999999999" type="line"/>
      <point x="653.4" y="-5.6" type="line"/>
      <point x="713.6000000000001" y="-5.6" type="line"/>
      <point x="826.1" y="700.0" type="line"/>
      <point x="764.1" y="700.0" type="line"/>
      <point x="667.1" y="86.5" type="line"/>
      <point x="228.10000000000002" y="705.6" type="line"/>
      <point x="167.10000000000002" y="705.6" type="line"/>
    </contour>
  </outline>
</glyph>
<glyph name="O" format="2">
  <advance width="886.2"/>
  <unicode hex="004F"/>
  <note>
8
</note>
  <anchor x="401.8332" y="0.0" name="bottom"/>
  <anchor x="457.66369999999995" y="350.0" name="center"/>
  <anchor x="485.8" y="1.1102230246251565e-16" name="ogonek"/>
  <anchor x="501.0999999999999" y="700.0" name="top"/>
  <anchor x="94.3" y="700.0" name="topleft"/>
  <anchor x="716.9999999999999" y="671.8" name="topright"/>
  <outline>
    <contour>
      <point x="428.8999999999999" y="-9.4" type="curve" smooth="yes"/>
      <point x="690.2999999999998" y="-9.4"/>
      <point x="840.0999999999999" y="151.3"/>
      <point x="840.0999999999999" y="409.29999999999995" type="curve" smooth="yes"/>
      <point x="840.0999999999999" y="604.9"/>
      <point x="721.5" y="709.6"/>
      <point x="481.09999999999997" y="709.6" type="curve" smooth="yes"/>
      <point x="219.7" y="709.6"/>
      <point x="69.9" y="548.9"/>
      <point x="69.9" y="290.90000000000003" type="curve" smooth="yes"/>
      <point x="69.9" y="95.3"/>
      <point x="188.5" y="-9.4"/>
    </contour>
    <contour>
      <point x="431.99999999999994" y="43.300000000000004" type="curve" smooth="yes"/>
      <point x="235.79999999999998" y="43.300000000000004"/>
      <point x="137.7" y="127.90000000000002"/>
      <point x="137.7" y="292.59999999999997" type="curve" smooth="yes"/>
      <point x="137.7" y="513.2"/>
      <point x="259.5" y="656.9000000000001"/>
      <point x="478.2" y="656.9000000000001" type="curve" smooth="yes"/>
      <point x="674.2" y="656.9000000000001"/>
      <point x="772.3" y="572.3"/>
      <point x="772.3" y="407.59999999999997" type="curve" smooth="yes"/>
      <point x="772.3" y="187.00000000000003"/>
      <point x="650.4999999999999" y="43.300000000000004"/>
    </contour>
  </outline>
</glyph>
<glyph name="P" format="2">
  <advance width="775.4999999999999"/>
  <unicode hex="0050"/>
  <outline>
    <contour>
      <point x="54.6" y="0.0" type="line"/>
      <point x="121.3" y="0.0" type="line"/>
      <point x="160.5" y="243.59999999999997" type="line"/>
      <point x="252.29999999999995" y="240.40000000000003"/>
      <point x="303.5" y="239.10000000000002"/>
      <point x="388.90000000000003" y="239.10000000000002" type="curve" smooth="yes"/>
      <point x="651.9999999999999" y="239.10000000000002"/>
      <point x="763.6" y="325.8"/>
      <point x="764.8" y="510.0" type="curve" smooth="yes"/>
      <point x="765.2" y="653.3000000000001"/>
      <point x="669.8999999999999" y="710.0"/>
      <point x="435.79999999999995" y="710.0" type="curve" smooth="yes"/>
      <point x="391.29999999999995" y="710.0"/>
      <point x="330.19999999999993" y="707.8"/>
      <point x="166.3" y="700.9000000000001" type="curve"/>
    </contour>
    <contour>
      <point x="224.8" y="649.7" type="line"/>
      <point x="332.2" y="654.6999999999999"/>
      <point x="383.3" y="656.8"/>
      <point x="435.0999999999999" y="656.8" type="curve" smooth="yes"/>
      <point x="626.6" y="656.8"/>
      <point x="696.4" y="616.7"/>
      <point x="696.4" y="501.6" type="curve" smooth="yes"/>
      <point x="696.4" y="364.2"/>
      <point x="609.9000000000001" y="292.8"/>
      <point x="389.59999999999997" y="292.8" type="curve" smooth="yes"/>
      <point x="315.9" y="292.8"/>
      <point x="260.59999999999997" y="295.0"/>
      <point x="169.20000000000002" y="297.59999999999997" type="curve"/>
    </contour>
  </outline>
</glyph>
<glyph name="Q" format="2">
  <advance width="886.7799999999999"/>
  <unicode hex="0051"/>
  <note>
14
</note>
  <outline>
    <contour>
      <point x="617.0799999999999" y="-205.73999999999998" type="curve" smooth="yes"/>
      <point x="663.36" y="-205.73999999999998"/>
      <point x="701.5" y="-195.44"/>
      <point x="737.26" y="-177.1" type="curve"/>
      <point x="733.0200000000001" y="-125.63999999999999" type="line"/>
      <point x="700.1999999999999" y="-143.16000000000003"/>
      <point x="668.3" y="-150.76000000000002"/>
      <point x="632.48" y="-150.76000000000002" type="curve" smooth="yes"/>
      <point x="548.12" y="-150.76000000000002"/>
      <point x="477.85999999999996" y="-93.58000000000001"/>
      <point x="454.52" y="5.34" type="curve"/>
      <point x="392.67999999999995" y="-0.4599999999999995" type="line"/>
      <point x="425.18" y="-143.22000000000003"/>
      <point x="515.68" y="-205.73999999999998"/>
    </contour>
    <component base="O"/>
  </outline>
</glyph>
<glyph name="R" format="2">
  <advance width="806.3000000000001"/>
  <unicode hex="0052"/>
  <anchor x="384.2" y="0.0" name="bottom"/>
  <anchor x="427.5" y="700.0" name="top"/>
  <outline>
    <contour>
      <point x="54.9" y="0.0" type="line"/>
      <point x="122.1" y="0.0" type="line"/>
      <point x="168.2" y="287.0" type="line"/>
      <point x="261.0" y="284.70000000000005"/>
      <point x="343.49999999999994" y="283.6"/>
      <point x="453.79999999999995" y="283.40000000000003" type="curve"/>
      <point x="471.0" y="285.59999999999997" type="line"/>
      <point x="652.0" y="286.29999999999995"/>
      <point x="755.0" y="371.09999999999997"/>
      <point x="755.0" y="522.2" type="curve" smooth="yes"/>
      <point x="755.0" y="653.2"/>
      <point x="682.9000000000001" y="710.0"/>
      <point x="429.5" y="710.0" type="curve" smooth="yes"/>
      <point x="343.1" y="710.0"/>
      <point x="274.09999999999997" y="707.8000000000001"/>
      <point x="166.5" y="701.9000000000001" type="curve"/>
    </contour>
    <contour>
      <point x="745.1999999999999" y="-10.0" type="curve" smooth="yes"/>
      <point x="751.0999999999999" y="-10.0"/>
      <point x="762.5999999999999" y="-8.799999999999999"/>
      <point x="768.1" y="-7.399999999999999" type="curve"/>
      <point x="772.5999999999998" y="50.900000000000006" type="line"/>
      <point x="767.6999999999999" y="49.60000000000001"/>
      <point x="760.4999999999999" y="49.60000000000001"/>
      <point x="756.9999999999999" y="49.60000000000001" type="curve" smooth="yes"/>
      <point x="689.2999999999998" y="49.900000000000006"/>
      <point x="591.5" y="144.7"/>
      <point x="494.5" y="309.70000000000005" type="curve"/>
      <point x="423.19999999999993" y="296.4" type="line"/>
      <point x="537.9999999999999" y="104.1"/>
      <point x="646.6" y="-10.0"/>
    </contour>
    <contour>
      <point x="451.09999999999997" y="335.2" type="curve" smooth="yes"/>
      <point x="328.7" y="335.2"/>
      <point x="251.99999999999997" y="336.7"/>
      <point x="176.69999999999996" y="340.09999999999997" type="curve"/>
      <point x="225.60000000000002" y="652.5" type="line"/>
      <point x="310.09999999999997" y="657.1000000000001"/>
      <point x="342.29999999999995" y="658.7"/>
      <point x="425.7999999999999" y="658.7" type="curve" smooth="yes"/>
      <point x="632.5" y="658.7"/>
      <point x="684.9" y="620.5999999999999"/>
      <point x="684.9" y="518.0999999999999" type="curve" smooth="yes"/>
      <point x="684.9" y="395.7"/>
      <point x="602.3" y="335.2"/>
    </contour>
  </outline>
</glyph>
<glyph name="S" format="2">
  <advance width="720.3999999999999"/>
  <unicode hex="0053"/>
  <anchor x="320.0" y="0.0" name="bottom"/>
  <anchor x="431.2" y="700.0" name="top"/>
  <outline>
    <contour>
      <point x="687.1999999999998" y="671.5" type="line"/>
      <point x="596.6999999999999" y="698.1"/>
      <point x="529.4" y="710.0"/>
      <point x="441.70000000000005" y="710.0" type="curve" smooth="yes"/>
      <point x="215.39999999999998" y="710.0"/>
      <point x="101.39999999999999" y="633.9000000000001"/>
      <point x="101.39999999999999" y="511.7" type="curve" smooth="yes"/>
      <point x="101.39999999999999" y="269.8"/>
      <point x="588.6999999999999" y="369.20000000000005"/>
      <point x="588.4" y="180.1" type="curve" smooth="yes"/>
      <point x="588.4" y="98.39999999999999"/>
      <point x="509.8999999999999" y="43.5"/>
      <point x="336.2" y="43.5" type="curve" smooth="yes"/>
      <point x="232.79999999999998" y="43.5"/>
      <point x="112.5" y="65.89999999999999"/>
      <point x="23.2" y="97.6" type="curve"/>
      <point x="0.7999999999999986" y="43.5" type="line"/>
      <point x="101.69999999999999" y="9.5"/>
      <point x="217.0" y="-10.0"/>
      <point x="323.79999999999995" y="-10.0" type="curve" smooth="yes"/>
      <point x="559.8" y="-10.0"/>
      <point x="658.3000000000001" y="66.5"/>
      <point x="658.3000000000001" y="189.6" type="curve" smooth="yes"/>
      <point x="658.8000000000001" y="425.3"/>
      <point x="170.79999999999995" y="331.6"/>
      <point x="170.79999999999995" y="518.0" type="curve" smooth="yes"/>
      <point x="170.79999999999995" y="603.8999999999999"/>
      <point x="266.3" y="656.3000000000001"/>
      <point x="427.59999999999997" y="656.3000000000001" type="curve" smooth="yes"/>
      <point x="514.6" y="656.3000000000001"/>
      <point x="591.4" y="643.3000000000001"/>
      <point x="665.7" y="617.3" type="curve"/>
    </contour>
  </outline>
</glyph>
<glyph name="T" format="2">
  <advance width="648.88"/>
  <unicode hex="0054"/>
  <anchor x="280.46664" y="0.0" name="bottom"/>
  <anchor x="336.36498" y="350.0" name="center"/>
  <anchor x="391.63406" y="700.0" name="top"/>
  <outline>
    <contour>
      <point x="697.06" y="646.28" type="line"/>
      <point x="706.42" y="700.0" type="line"/>
      <point x="77.49999999999999" y="700.0" type="line"/>
      <point x="68.0" y="646.28" type="line"/>
      <point x="349.4" y="646.28" type="line"/>
      <point x="246.99999999999997" y="0.0" type="line"/>
      <point x="313.91999999999996" y="0.0" type="line"/>
      <point x="416.17999999999995" y="646.28" type="line"/>
    </contour>
  </outline>
</glyph>
<glyph name="U" format="2">
  <advance width="840.4599999999999"/>
  <unicode hex="0055"/>
  <anchor x="376.6688" y="0.0" name="bottom"/>
  <anchor x="444.88" y="0.0" name="ogonek"/>
  <anchor x="484.9226" y="700.0" name="top"/>
  <anchor x="820.34" y="700.0" name="topright"/>
  <outline>
    <contour>
      <point x="374.03999999999996" y="-10.0" type="curve" smooth="yes"/>
      <point x="599.12" y="-10.0"/>
      <point x="722.3399999999999" y="73.39999999999999"/>
      <point x="749.74" y="243.67999999999998" type="curve" smooth="yes"/>
      <point x="822.42" y="700.0" type="line"/>
      <point x="756.2399999999999" y="700.0" type="line"/>
      <point x="683.4" y="245.88" type="line" smooth="yes"/>
      <point x="662.24" y="112.0"/>
      <point x="561.98" y="44.76"/>
      <point x="383.85999999999996" y="44.76" type="curve" smooth="yes"/>
      <point x="214.08" y="44.76"/>
      <point x="126.39999999999999" y="114.9"/>
      <point x="146.72" y="242.76000000000002" type="curve" smooth="yes"/>
      <point x="219.02" y="700.0" type="line"/>
      <point x="153.07999999999998" y="700.0" type="line"/>
      <point x="80.47999999999999" y="243.27999999999994" type="line" smooth="yes"/>
      <point x="76.9" y="218.48"/>
      <point x="76.08" y="206.77999999999997"/>
      <point x="76.08" y="192.77999999999997" type="curve" smooth="yes"/>
      <point x="76.08" y="60.62"/>
      <point x="180.72" y="-10.0"/>
    </contour>
  </outline>
</glyph>
<glyph name="V" format="2">
  <advance width="711.2399999999999"/>
  <unicode hex="0056"/>
  <outline>
    <contour>
      <point x="337.23999999999995" y="0.0" type="line"/>
      <point x="693.3" y="507.84000000000003"/>
      <point x="747.2" y="603.0"/>
      <point x="752.3" y="674.2" type="curve" smooth="yes"/>
      <point x="752.6" y="683.14"/>
      <point x="751.9999999999999" y="692.14"/>
      <point x="750.34" y="700.0" type="curve"/>
      <point x="679.34" y="700.0" type="line"/>
      <point x="681.1999999999999" y="690.9"/>
      <point x="681.9399999999999" y="682.54"/>
      <point x="681.9399999999999" y="675.5" type="curve" smooth="yes"/>
      <point x="681.9399999999999" y="606.3000000000001"/>
      <point x="623.7199999999998" y="514.4200000000001"/>
      <point x="312.5799999999999" y="64.39999999999999" type="curve"/>
      <point x="143.10000000000002" y="706.14" type="line"/>
      <point x="73.0" y="701.1999999999999" type="line"/>
      <point x="265.34" y="0.0" type="line"/>
    </contour>
  </outline>
</glyph>
<glyph name="W" format="2">
  <advance width="1056.9999999999998"/>
  <unicode hex="0057"/>
  <anchor x="477.99999999999994" y="0.0" name="bottom"/>
  <anchor x="594.0" y="700.0" name="top"/>
  <outline>
    <contour>
      <point x="766.6" y="-0.30000000000000004" type="line"/>
      <point x="1034.4" y="481.2"/>
      <point x="1097.6999999999998" y="615.4999999999999"/>
      <point x="1098.1" y="679.9" type="curve" smooth="yes"/>
      <point x="1098.1" y="686.4"/>
      <point x="1097.5999999999997" y="693.5"/>
      <point x="1095.9999999999998" y="700.0" type="curve"/>
      <point x="1030.5999999999997" y="700.0" type="line"/>
      <point x="1031.6999999999998" y="693.3"/>
      <point x="1032.6" y="688.0"/>
      <point x="1032.4" y="678.7" type="curve" smooth="yes"/>
      <point x="1029.6" y="607.9"/>
      <point x="982.8" y="512.1999999999999"/>
      <point x="737.7999999999998" y="67.3" type="curve"/>
      <point x="623.1" y="649.0999999999999" type="line"/>
      <point x="546.9999999999999" y="649.0999999999999" type="line"/>
      <point x="454.09999999999997" y="456.6"/>
      <point x="358.5" y="261.8"/>
      <point x="260.6" y="69.8" type="curve"/>
      <point x="142.8" y="700.0" type="line"/>
      <point x="73.7" y="700.0" type="line"/>
      <point x="209.89999999999998" y="-0.30000000000000004" type="line"/>
      <point x="282.19999999999993" y="-0.30000000000000004" type="line"/>
      <point x="380.8999999999999" y="190.7"/>
      <point x="479.79999999999995" y="382.40000000000003"/>
      <point x="574.0999999999999" y="571.4" type="curve"/>
      <point x="691.5" y="-0.30000000000000004" type="line"/>
    </contour>
  </outline>
</glyph>
<glyph name="X" format="2">
  <advance width="723.6"/>
  <unicode hex="0058"/>
  <outline>
    <contour>
      <point x="607.1" y="-5.8999999999999995" type="line"/>
      <point x="680.3999999999999" y="2.599999999999999" type="line"/>
      <point x="414.00000000000006" y="359.7" type="line"/>
      <point x="591.1999999999999" y="485.5"/>
      <point x="705.8" y="576.0000000000001"/>
      <point x="743.6" y="701.1" type="curve"/>
      <point x="669.4999999999999" y="705.9" type="line"/>
      <point x="634.6" y="591.1"/>
      <point x="545.0" y="518.6999999999999"/>
      <point x="385.9999999999999" y="405.3" type="curve"/>
      <point x="168.2" y="706.1" type="line"/>
      <point x="95.0" y="697.0" type="line"/>
      <point x="333.5" y="374.09999999999997" type="line"/>
      <point x="151.6" y="251.7"/>
      <point x="30.69999999999999" y="144.7"/>
      <point x="6.799999999999995" y="0.0" type="curve"/>
      <point x="82.6" y="0.0" type="line"/>
      <point x="108.0" y="133.0"/>
      <point x="200.5" y="218.10000000000002"/>
      <point x="362.2" y="327.3" type="curve"/>
    </contour>
  </outline>
</glyph>
<glyph name="Y" format="2">
  <advance width="670.5599999999998"/>
  <unicode hex="0059"/>
  <anchor x="287.3" y="0.0" name="bottom"/>
  <anchor x="407.2999999999999" y="700.0" name="top"/>
  <anchor x="80.72" y="700.0" name="topleft"/>
  <outline>
    <contour>
      <point x="267.23999999999995" y="0.0" type="line"/>
      <point x="333.28" y="0.0" type="line"/>
      <point x="381.58" y="287.72" type="line"/>
      <point x="595.7599999999999" y="469.12"/>
      <point x="668.22" y="557.76"/>
      <point x="706.74" y="661.46" type="curve" smooth="yes"/>
      <point x="711.6800000000001" y="674.1"/>
      <point x="716.7399999999999" y="687.3"/>
      <point x="721.02" y="700.9399999999999" type="curve"/>
      <point x="649.9799999999999" y="706.58" type="line"/>
      <point x="645.6" y="692.22"/>
      <point x="640.9399999999999" y="679.3"/>
      <point x="635.84" y="665.4399999999999" type="curve" smooth="yes"/>
      <point x="600.6999999999999" y="570.3599999999999"/>
      <point x="544.1" y="493.86"/>
      <point x="353.52" y="337.12" type="curve"/>
      <point x="138.12" y="706.36" type="line"/>
      <point x="67.78" y="698.4999999999999" type="line"/>
      <point x="314.37999999999994" y="287.72" type="line"/>
    </contour>
  </outline>
</glyph>
<glyph name="Z" format="2">
  <advance width="693.4000000000001"/>
  <unicode hex="005A"/>
  <anchor x="308.5" y="0.0" name="bottom"/>
  <anchor x="355.69999999999993" y="350.0" name="center"/>
  <anchor x="410.0999999999999" y="700.0" name="top"/>
  <outline>
    <contour>
      <point x="-12.500000000000002" y="0.0" type="line"/>
      <point x="629.0999999999999" y="0.0" type="line"/>
      <point x="637.6999999999999" y="53.2" type="line"/>
      <point x="86.89999999999999" y="53.2" type="line"/>
      <point x="701.2" y="652.1999999999999" type="line"/>
      <point x="708.5999999999999" y="700.0" type="line"/>
      <point x="128.3" y="700.0" type="line"/>
      <point x="119.69999999999999" y="646.8" type="line"/>
      <point x="610.9999999999999" y="646.8" type="line"/>
      <point x="-4.800000000000003" y="47.4" type="line"/>
    </contour>
  </outline>
</glyph>
<glyph name="bracketleft" format="2">
  <advance width="380.82"/>
  <unicode hex="005B"/>
  <outline>
    <contour>
      <point x="102.67999999999999" y="-164.6" type="line"/>
      <point x="239.24" y="695.1600000000001" type="line"/>
      <point x="426.64" y="695.1600000000001" type="line"/>
      <point x="434.03999999999996" y="740.0" type="line"/>
      <point x="194.24" y="740.0" type="line"/>
      <point x="43.26" y="-210.0" type="line"/>
      <point x="282.62" y="-210.0" type="line"/>
      <point x="290.08000000000004" y="-164.6" type="line"/>
    </contour>
  </outline>
</glyph>
<glyph name="backslash" format="2">
  <advance width="407.14000000000004"/>
  <unicode hex="005C"/>
  <outline>
    <contour>
      <point x="141.04" y="740.0" type="line"/>
      <point x="90.06" y="740.0" type="line"/>
      <point x="295.52000000000004" y="-210.0" type="line"/>
      <point x="346.44" y="-210.0" type="line"/>
    </contour>
  </outline>
</glyph>
<glyph name="bracketright" format="2">
  <advance width="380.82"/>
  <unicode hex="005D"/>
  <outline>
    <contour>
      <point x="-48.02" y="-164.6" type="line"/>
      <point x="-55.28" y="-210.0" type="line"/>
      <point x="183.28" y="-210.0" type="line"/>
      <point x="334.70000000000005" y="740.0" type="line"/>
      <point x="95.14000000000001" y="740.0" type="line"/>
      <point x="87.67999999999999" y="694.6" type="line"/>
      <point x="275.08" y="694.6" type="line"/>
      <point x="138.46" y="-164.6" type="line"/>
    </contour>
  </outline>
</glyph>
<glyph name="asciicircum" format="2">
  <advance width="494.12"/>
  <unicode hex="005E"/>
  <outline>
    <contour>
      <point x="48.16" y="264.32" type="line"/>
      <point x="101.86" y="264.32" type="line"/>
      <point x="304.86" y="643.94" type="line"/>
      <point x="389.96000000000004" y="264.32" type="line"/>
      <point x="442.48" y="264.32" type="line"/>
      <point x="342.68" y="708.0" type="line"/>
      <point x="287.38" y="708.0" type="line"/>
    </contour>
  </outline>
</glyph>
<glyph name="underscore" format="2">
  <advance width="873.3199999999998"/>
  <unicode hex="005F"/>
  <outline>
    <contour>
      <point x="-51.72000000000001" y="-150.73999999999998" type="line"/>
      <point x="790.12" y="-150.73999999999998" type="line"/>
      <point x="798.0400000000001" y="-102.26" type="line"/>
      <point x="-43.80000000000001" y="-102.26" type="line"/>
    </contour>
  </outline>
</glyph>
<glyph name="a" format="2">
  <advance width="652.6599999999999"/>
  <unicode hex="0061"/>
  <note>
15
</note>
  <anchor x="275.2444" y="0.0" name="bottom"/>
  <anchor x="607.0" y="1.4000000000000004" name="ogonek"/>
  <anchor x="371.06" y="534.0" name="top"/>
  <outline>
    <contour>
      <point x="551.38" y="-10.0" type="curve" smooth="yes"/>
      <point x="571.3" y="-10.0"/>
      <point x="592.1999999999999" y="-6.339999999999999"/>
      <point x="607.52" y="-0.15999999999999914" type="curve"/>
      <point x="606.58" y="47.69999999999999" type="line"/>
      <point x="597.0200000000001" y="44.019999999999996"/>
      <point x="586.5599999999998" y="42.14"/>
      <point x="575.38" y="42.14" type="curve" smooth="yes"/>
      <point x="546.26" y="42.14"/>
      <point x="532.98" y="59.38000000000001"/>
      <point x="532.98" y="94.4" type="curve" smooth="yes"/>
      <point x="532.98" y="102.27999999999999"/>
      <point x="556.2399999999999" y="247.73999999999998"/>
      <point x="598.04" y="507.34" type="curve"/>
      <point x="547.2400000000001" y="529.7"/>
      <point x="467.25999999999993" y="544.0"/>
      <point x="393.73999999999995" y="544.0" type="curve" smooth="yes"/>
      <point x="179.52" y="544.0"/>
      <point x="38.63999999999999" y="407.98"/>
      <point x="38.63999999999999" y="193.26" type="curve" smooth="yes"/>
      <point x="38.63999999999999" y="60.779999999999994"/>
      <point x="118.1" y="-10.0"/>
      <point x="248.21999999999997" y="-10.0" type="curve" smooth="yes"/>
      <point x="325.62" y="-10.0"/>
      <point x="410.7799999999999" y="17.939999999999998"/>
      <point x="470.2799999999999" y="59.92" type="curve"/>
      <point x="477.8" y="16.279999999999998"/>
      <point x="509.17999999999995" y="-10.0"/>
    </contour>
    <contour>
      <point x="467.6" y="104.0" type="line"/>
      <point x="413.2799999999999" y="67.72000000000001"/>
      <point x="336.8" y="42.52"/>
      <point x="271.23999999999995" y="42.52" type="curve" smooth="yes"/>
      <point x="166.38000000000002" y="42.52"/>
      <point x="104.46" y="100.05999999999999"/>
      <point x="104.46" y="203.18" type="curve" smooth="yes"/>
      <point x="104.46" y="375.0"/>
      <point x="221.83999999999997" y="494.88"/>
      <point x="385.73999999999995" y="494.88" type="curve" smooth="yes"/>
      <point x="441.36" y="494.88"/>
      <point x="490.03999999999996" y="486.48"/>
      <point x="525.6" y="469.5" type="curve"/>
    </contour>
  </outline>
</glyph>
<glyph name="b" format="2">
  <advance width="649.4399999999999"/>
  <unicode hex="0062"/>
  <note>
12
</note>
  <outline>
    <contour>
      <point x="228.82000000000002" y="740.0" type="line"/>
      <point x="164.02" y="740.0" type="line"/>
      <point x="49.53999999999999" y="17.119999999999997" type="line"/>
      <point x="108.55999999999999" y="2.9599999999999995"/>
      <point x="178.66" y="-10.0"/>
      <point x="258.96" y="-10.0" type="curve" smooth="yes"/>
      <point x="453.98" y="-10.0"/>
      <point x="610.16" y="130.44000000000003"/>
      <point x="610.0599999999998" y="347.65999999999997" type="curve" smooth="yes"/>
      <point x="610.06" y="469.32"/>
      <point x="547.1999999999999" y="544.0"/>
      <point x="421.75999999999993" y="544.0" type="curve" smooth="yes"/>
      <point x="333.97999999999996" y="544.0"/>
      <point x="260.44000000000005" y="508.02"/>
      <point x="183.5" y="456.84000000000003" type="curve"/>
    </contour>
    <contour>
      <point x="393.47999999999996" y="490.34" type="curve" smooth="yes"/>
      <point x="495.96" y="490.34"/>
      <point x="544.86" y="428.64"/>
      <point x="544.86" y="334.35999999999996" type="curve" smooth="yes"/>
      <point x="544.86" y="162.44000000000003"/>
      <point x="415.9" y="38.46"/>
      <point x="265.09999999999997" y="38.46" type="curve" smooth="yes"/>
      <point x="207.03999999999996" y="38.46"/>
      <point x="155.79999999999998" y="48.94"/>
      <point x="121.1" y="57.84" type="curve"/>
      <point x="176.29999999999998" y="407.06" type="line"/>
      <point x="257.64" y="463.68"/>
      <point x="325.21999999999997" y="490.34"/>
    </contour>
  </outline>
</glyph>
<glyph name="c" format="2">
  <advance width="591.1"/>
  <unicode hex="0063"/>
  <note>
10
</note>
  <anchor x="310.5199999999999" y="0.0" name="bottom"/>
  <anchor x="387.5" y="534.0" name="top"/>
  <outline>
    <contour>
      <point x="302.43999999999994" y="-10.0" type="curve" smooth="yes"/>
      <point x="390.65999999999997" y="-10.0"/>
      <point x="461.55999999999995" y="2.7199999999999998"/>
      <point x="521.5" y="21.66" type="curve"/>
      <point x="516.06" y="69.69999999999999" type="line"/>
      <point x="456.84" y="53.74"/>
      <point x="399.31999999999994" y="41.44"/>
      <point x="318.42" y="41.44" type="curve" smooth="yes"/>
      <point x="189.59999999999997" y="41.44"/>
      <point x="107.54" y="103.5"/>
      <point x="107.54" y="206.03999999999996" type="curve" smooth="yes"/>
      <point x="107.54" y="375.26000000000005"/>
      <point x="220.14000000000001" y="492.0"/>
      <point x="383.94" y="492.0" type="curve" smooth="yes"/>
      <point x="444.32" y="492.0"/>
      <point x="506.06" y="483.96000000000004"/>
      <point x="571.6599999999999" y="465.56" type="curve"/>
      <point x="588.64" y="516.6" type="line"/>
      <point x="524.7" y="535.0000000000001"/>
      <point x="456.64" y="544.0"/>
      <point x="387.74" y="544.0" type="curve" smooth="yes"/>
      <point x="176.54000000000002" y="544.0"/>
      <point x="42.31999999999999" y="409.9599999999999"/>
      <point x="42.31999999999999" y="199.36" type="curve" smooth="yes"/>
      <point x="42.31999999999999" y="69.20000000000002"/>
      <point x="136.48000000000002" y="-10.0"/>
    </contour>
  </outline>
</glyph>
<glyph name="d" format="2">
  <advance width="658.8000000000001"/>
  <unicode hex="0064"/>
  <note>
17
</note>
  <anchor x="275.41999999999996" y="0.0" name="bottom"/>
  <anchor x="328.41999999999996" y="297.7" name="center"/>
  <anchor x="399.80000000000007" y="740.0" name="top"/>
  <anchor x="720.6999999999999" y="740.0" name="topright"/>
  <outline>
    <contour>
      <point x="552.68" y="-10.0" type="curve" smooth="yes"/>
      <point x="569.04" y="-10.0"/>
      <point x="589.42" y="-6.619999999999999"/>
      <point x="606.44" y="-0.059999999999999165" type="curve"/>
      <point x="603.8399999999999" y="47.79999999999999" type="line"/>
      <point x="594.8399999999999" y="44.2"/>
      <point x="584.0200000000001" y="42.24"/>
      <point x="572.56" y="42.24" type="curve" smooth="yes"/>
      <point x="545.2399999999999" y="42.24"/>
      <point x="530.34" y="58.800000000000004"/>
      <point x="530.34" y="88.91999999999999" type="curve" smooth="yes"/>
      <point x="530.34" y="97.88000000000001"/>
      <point x="608.06" y="584.22"/>
      <point x="632.6" y="740.0" type="curve"/>
      <point x="568.0" y="740.0" type="line"/>
      <point x="533.7400000000001" y="524.84" type="line"/>
      <point x="493.58" y="534.3799999999999"/>
      <point x="445.75999999999993" y="544.0"/>
      <point x="381.21999999999997" y="544.0" type="curve" smooth="yes"/>
      <point x="186.59999999999997" y="544.0"/>
      <point x="38.18" y="406.55999999999995"/>
      <point x="38.18" y="188.94" type="curve" smooth="yes"/>
      <point x="38.18" y="56.08"/>
      <point x="123.21999999999998" y="-10.0"/>
      <point x="244.03999999999996" y="-10.0" type="curve" smooth="yes"/>
      <point x="321.20000000000005" y="-10.0"/>
      <point x="413.37999999999994" y="18.900000000000002"/>
      <point x="467.12000000000006" y="54.72" type="curve"/>
      <point x="475.44" y="13.600000000000001"/>
      <point x="507.20000000000005" y="-10.0"/>
    </contour>
    <contour>
      <point x="265.7" y="43.00000000000001" type="curve" smooth="yes"/>
      <point x="170.61999999999998" y="43.00000000000001"/>
      <point x="103.82000000000001" y="96.41999999999999"/>
      <point x="103.82000000000001" y="197.11999999999998" type="curve" smooth="yes"/>
      <point x="103.82000000000001" y="365.61999999999995"/>
      <point x="223.92" y="494.97999999999996"/>
      <point x="380.93999999999994" y="494.97999999999996" type="curve" smooth="yes"/>
      <point x="444.26" y="494.97999999999996"/>
      <point x="489.62000000000006" y="484.72"/>
      <point x="525.94" y="475.99999999999994" type="curve"/>
      <point x="466.1799999999999" y="98.61999999999999" type="line"/>
      <point x="410.82" y="65.92"/>
      <point x="333.84000000000003" y="43.00000000000001"/>
    </contour>
  </outline>
</glyph>
<glyph name="e" format="2">
  <advance width="617.1999999999999"/>
  <unicode hex="0065"/>
  <note>
14 points
</note>
  <anchor x="299.16" y="0.0" name="bottom"/>
  <anchor x="453.61999999999995" y="9.459999999999999" name="ogonek"/>
  <anchor x="385.18" y="534.5600000000001" name="top"/>
  <outline>
    <contour>
      <point x="98.58000000000001" y="289.40000000000003" type="curve"/>
      <point x="96.36" y="245.22" type="line"/>
      <point x="151.9" y="238.20000000000002"/>
      <point x="222.66000000000003" y="235.4"/>
      <point x="292.3" y="239.9" type="curve" smooth="yes"/>
      <point x="487.0" y="252.65999999999997"/>
      <point x="594.3000000000001" y="310.52"/>
      <point x="594.3000000000001" y="412.43999999999994" type="curve" smooth="yes"/>
      <point x="594.3000000000001" y="495.31999999999994"/>
      <point x="512.6" y="544.0"/>
      <point x="384.0199999999999" y="544.0" type="curve" smooth="yes"/>
      <point x="172.79999999999998" y="544.0"/>
      <point x="43.22" y="411.34"/>
      <point x="43.22" y="211.41999999999996" type="curve" smooth="yes"/>
      <point x="43.22" y="75.08"/>
      <point x="140.23999999999998" y="-10.0"/>
      <point x="299.06000000000006" y="-10.0" type="curve" smooth="yes"/>
      <point x="382.48" y="-10.0"/>
      <point x="468.20000000000005" y="6.72"/>
      <point x="542.5" y="36.48" type="curve"/>
      <point x="533.1000000000001" y="85.13999999999999" type="line"/>
      <point x="453.96" y="54.96000000000001"/>
      <point x="377.38000000000005" y="40.239999999999995"/>
      <point x="310.06000000000006" y="40.239999999999995" type="curve" smooth="yes"/>
      <point x="179.35999999999999" y="40.239999999999995"/>
      <point x="107.63999999999999" y="106.2"/>
      <point x="107.63999999999999" y="215.0" type="curve" smooth="yes"/>
      <point x="107.63999999999999" y="385.44000000000005"/>
      <point x="217.56000000000003" y="495.96000000000004"/>
      <point x="376.05999999999995" y="495.96000000000004" type="curve" smooth="yes"/>
      <point x="472.55999999999995" y="495.96000000000004"/>
      <point x="528.68" y="464.22"/>
      <point x="528.68" y="405.06" type="curve" smooth="yes"/>
      <point x="528.68" y="333.38"/>
      <point x="437.08" y="294.5400000000001"/>
      <point x="279.02" y="284.5" type="curve" smooth="yes"/>
      <point x="215.92" y="280.4"/>
      <point x="151.54000000000002" y="281.36"/>
    </contour>
  </outline>
</glyph>
<glyph name="f" format="2">
  <advance width="400.41999999999996"/>
  <unicode hex="0066"/>
  <outline>
    <contour>
      <point x="-15.360000000000012" y="-220.0" type="curve" smooth="yes"/>
      <point x="72.44" y="-220.0"/>
      <point x="117.97999999999999" y="-155.96"/>
      <point x="142.34" y="-1.9200000000000017" type="curve" smooth="yes"/>
      <point x="211.14000000000001" y="437.44" type="line"/>
      <point x="426.96000000000004" y="437.44" type="line"/>
      <point x="434.85999999999996" y="486.7" type="line"/>
      <point x="218.9" y="486.7" type="line"/>
      <point x="241.02" y="631.2199999999999"/>
      <point x="294.85999999999996" y="695.8"/>
      <point x="396.06" y="695.8" type="curve" smooth="yes"/>
      <point x="452.70000000000005" y="695.8"/>
      <point x="492.99999999999994" y="685.8"/>
      <point x="541.4599999999999" y="671.2" type="curve"/>
      <point x="558.06" y="721.1" type="line"/>
      <point x="501.09999999999997" y="740.76"/>
      <point x="449.88" y="750.0"/>
      <point x="394.85999999999996" y="750.0" type="curve" smooth="yes"/>
      <point x="258.23999999999995" y="750.0"/>
      <point x="183.12" y="670.0799999999999"/>
      <point x="153.8" y="486.7" type="curve"/>
      <point x="52.699999999999996" y="479.24" type="line"/>
      <point x="46.019999999999996" y="437.44" type="line"/>
      <point x="145.9" y="437.44" type="line"/>
      <point x="77.11999999999999" y="-1.7200000000000024" type="line" smooth="yes"/>
      <point x="58.31999999999999" y="-119.96000000000001"/>
      <point x="32.39999999999999" y="-167.62"/>
      <point x="-28.860000000000003" y="-167.62" type="curve" smooth="yes"/>
      <point x="-42.720000000000006" y="-167.62"/>
      <point x="-56.32000000000001" y="-165.18"/>
      <point x="-73.03999999999999" y="-159.34" type="curve"/>
      <point x="-86.34000000000002" y="-207.86" type="line"/>
      <point x="-62.78" y="-216.36"/>
      <point x="-40.64000000000001" y="-220.0"/>
    </contour>
  </outline>
</glyph>
<glyph name="g" format="2">
  <advance width="648.74"/>
  <unicode hex="0067"/>
  <note>
16
</note>
  <anchor x="228.70000000000002" y="-216.2" name="bottom"/>
  <anchor x="371.24" y="534.0" name="top"/>
  <outline>
    <contour>
      <point x="9.86" y="-179.74" type="line"/>
      <point x="75.86" y="-204.26"/>
      <point x="157.76" y="-220.0"/>
      <point x="236.9" y="-220.0" type="curve" smooth="yes"/>
      <point x="401.37999999999994" y="-220.0"/>
      <point x="493.96000000000004" y="-134.35999999999999"/>
      <point x="520.02" y="32.86" type="curve" smooth="yes"/>
      <point x="595.88" y="509.24" type="line"/>
      <point x="547.6600000000001" y="529.6"/>
      <point x="467.66" y="544.0"/>
      <point x="398.5199999999999" y="544.0" type="curve" smooth="yes"/>
      <point x="161.84" y="544.0"/>
      <point x="38.16" y="389.76000000000005"/>
      <point x="38.16" y="189.00000000000003" type="curve" smooth="yes"/>
      <point x="38.16" y="68.82000000000001"/>
      <point x="117.53999999999999" y="-3.4000000000000012"/>
      <point x="247.3" y="-3.4000000000000012" type="curve" smooth="yes"/>
      <point x="309.47999999999996" y="-3.4000000000000012"/>
      <point x="396.84" y="22.020000000000003"/>
      <point x="459.37999999999994" y="60.62" type="curve"/>
      <point x="454.97999999999996" y="31.5" type="line" smooth="yes"/>
      <point x="434.79999999999995" y="-105.42"/>
      <point x="359.73999999999995" y="-169.38"/>
      <point x="229.28" y="-169.38" type="curve" smooth="yes"/>
      <point x="162.67999999999998" y="-169.38"/>
      <point x="86.91999999999999" y="-154.01999999999998"/>
      <point x="27.36" y="-130.48" type="curve"/>
    </contour>
    <contour>
      <point x="524.88" y="471.38" type="curve"/>
      <point x="467.61999999999995" y="110.30000000000001" type="line"/>
      <point x="414.1" y="75.5"/>
      <point x="329.2" y="47.620000000000005"/>
      <point x="272.68" y="47.620000000000005" type="curve" smooth="yes"/>
      <point x="167.88" y="47.620000000000005"/>
      <point x="104.18" y="103.24"/>
      <point x="104.18" y="202.1" type="curve" smooth="yes"/>
      <point x="104.18" y="364.61999999999995"/>
      <point x="212.94" y="495.76"/>
      <point x="388.64" y="495.76" type="curve" smooth="yes"/>
      <point x="454.32" y="495.76"/>
      <point x="492.58" y="482.62"/>
    </contour>
  </outline>
</glyph>
<glyph name="h" format="2">
  <advance width="670.2"/>
  <unicode hex="0068"/>
  <note>
16
</note>
  <anchor x="305.84" y="0.0" name="bottom"/>
  <anchor x="353.76000000000005" y="373.59999999999997" name="center"/>
  <anchor x="409.47999999999996" y="740.0" name="top"/>
  <outline>
    <contour>
      <point x="552.4399999999999" y="85.56" type="curve" smooth="yes"/>
      <point x="552.4399999999999" y="127.15999999999998"/>
      <point x="596.92" y="353.18"/>
      <point x="596.92" y="410.2" type="curve" smooth="yes"/>
      <point x="596.92" y="491.64000000000004"/>
      <point x="549.0200000000001" y="544.0"/>
      <point x="443.58000000000004" y="544.0" type="curve" smooth="yes"/>
      <point x="349.37999999999994" y="544.0"/>
      <point x="273.68000000000006" y="510.8"/>
      <point x="185.45999999999998" y="468.34" type="curve"/>
      <point x="228.74" y="740.0" type="line"/>
      <point x="163.94000000000003" y="740.0" type="line"/>
      <point x="46.53999999999999" y="0.0" type="line"/>
      <point x="111.53999999999999" y="0.0" type="line"/>
      <point x="177.68" y="418.9" type="line"/>
      <point x="260.88000000000005" y="459.8399999999999"/>
      <point x="329.9599999999999" y="490.9800000000001"/>
      <point x="414.08" y="490.9800000000001" type="curve" smooth="yes"/>
      <point x="497.12000000000006" y="490.9800000000001"/>
      <point x="529.12" y="451.56000000000006"/>
      <point x="529.12" y="392.88" type="curve" smooth="yes"/>
      <point x="529.12" y="328.64"/>
      <point x="485.62" y="111.9"/>
      <point x="485.62" y="66.76" type="curve" smooth="yes"/>
      <point x="485.62" y="16.04"/>
      <point x="520.6600000000001" y="-10.0"/>
      <point x="569.56" y="-10.0" type="curve" smooth="yes"/>
      <point x="587.62" y="-10.0"/>
      <point x="611.84" y="-7.38"/>
      <point x="630.0799999999999" y="-0.17999999999999916" type="curve"/>
      <point x="628.2800000000001" y="49.28" type="line"/>
      <point x="617.0599999999998" y="45.08"/>
      <point x="603.84" y="42.84"/>
      <point x="592.44" y="42.84" type="curve" smooth="yes"/>
      <point x="567.5799999999999" y="42.84"/>
      <point x="552.4399999999999" y="57.66"/>
    </contour>
  </outline>
</glyph>
<glyph name="i" format="2">
  <advance width="245.45999999999998"/>
  <unicode hex="0069"/>
  <note>
Ajuster pts sur points
8
</note>
  <anchor x="78.42215999999999" y="0.0" name="bottom"/>
  <anchor x="111.23999999999998" y="0.0" name="ogonek"/>
  <anchor x="163.59784000000002" y="534.0" name="top"/>
  <outline>
    <contour>
      <point x="46.660000000000004" y="0.0" type="line"/>
      <point x="111.23999999999998" y="0.0" type="line"/>
      <point x="195.7" y="534.0" type="line"/>
      <point x="131.16" y="534.0" type="line"/>
    </contour>
    <contour>
      <point x="193.84" y="726.0" type="curve" smooth="yes"/>
      <point x="160.62" y="726.0"/>
      <point x="147.28" y="715.4"/>
      <point x="146.0" y="678.9" type="curve" smooth="yes"/>
      <point x="145.76" y="661.76"/>
      <point x="158.18" y="654.74"/>
      <point x="180.33999999999997" y="654.74" type="curve" smooth="yes"/>
      <point x="212.5" y="654.74"/>
      <point x="227.32000000000002" y="663.5000000000001"/>
      <point x="229.16" y="702.6" type="curve" smooth="yes"/>
      <point x="229.4" y="719.04"/>
      <point x="218.60000000000002" y="726.0"/>
    </contour>
  </outline>
</glyph>
<glyph name="j" format="2">
  <advance width="254.12"/>
  <unicode hex="006A"/>
  <note>
idem /i
12
</note>
  <outline>
    <contour>
      <point x="202.64000000000001" y="726.0" type="curve" smooth="yes"/>
      <point x="169.27999999999997" y="726.0"/>
      <point x="157.2" y="715.4"/>
      <point x="155.92" y="678.9" type="curve" smooth="yes"/>
      <point x="155.68" y="661.76"/>
      <point x="167.18" y="654.74"/>
      <point x="189.34" y="654.74" type="curve" smooth="yes"/>
      <point x="219.76" y="654.74"/>
      <point x="235.0" y="663.5000000000001"/>
      <point x="236.84" y="702.6" type="curve" smooth="yes"/>
      <point x="237.07999999999998" y="719.04"/>
      <point x="227.4" y="726.0"/>
    </contour>
    <contour>
      <point x="204.7" y="534.0" type="line"/>
      <point x="139.96" y="534.0" type="line"/>
      <point x="48.47999999999999" y="-45.88" type="line" smooth="yes"/>
      <point x="36.26" y="-123.10000000000001"/>
      <point x="12.359999999999996" y="-167.62"/>
      <point x="-41.89999999999999" y="-167.62" type="curve" smooth="yes"/>
      <point x="-55.5" y="-167.62"/>
      <point x="-73.02000000000001" y="-165.88"/>
      <point x="-93.32000000000001" y="-157.94" type="curve"/>
      <point x="-106.74000000000001" y="-208.54" type="line"/>
      <point x="-84.16" y="-217.04"/>
      <point x="-49.42000000000001" y="-220.0"/>
      <point x="-33.4" y="-220.0" type="curve" smooth="yes"/>
      <point x="54.64" y="-220.0"/>
      <point x="95.22" y="-158.22"/>
      <point x="112.91999999999999" y="-45.58" type="curve" smooth="yes"/>
    </contour>
  </outline>
</glyph>
<glyph name="k" format="2">
  <advance width="599.6999999999999"/>
  <unicode hex="006B"/>
  <anchor x="269.29999999999995" y="0.0" name="bottom"/>
  <anchor x="197.0" y="740.0" name="top"/>
  <outline>
    <contour>
      <point x="46.99999999999999" y="0.0" type="line"/>
      <point x="112.1" y="0.0" type="line"/>
      <point x="229.49999999999997" y="740.0" type="line"/>
      <point x="164.0" y="740.0" type="line"/>
    </contour>
    <contour>
      <point x="534.0" y="-10.0" type="curve" smooth="yes"/>
      <point x="543.9" y="-10.0"/>
      <point x="554.9" y="-7.7"/>
      <point x="563.1999999999999" y="-4.200000000000001" type="curve"/>
      <point x="566.5" y="52.7" type="line"/>
      <point x="559.9" y="50.6"/>
      <point x="552.1999999999999" y="50.0"/>
      <point x="545.8999999999999" y="50.0" type="curve" smooth="yes"/>
      <point x="509.09999999999997" y="50.0"/>
      <point x="463.59999999999997" y="82.6"/>
      <point x="348.59999999999997" y="199.3" type="curve" smooth="yes"/>
      <point x="160.9" y="387.2" type="line"/>
      <point x="147.9" y="321.2" type="line"/>
      <point x="329.8" y="135.1" type="line" smooth="yes"/>
      <point x="437.49999999999994" y="25.7"/>
      <point x="483.49999999999994" y="-10.0"/>
    </contour>
    <contour>
      <point x="275.2" y="258.70000000000005" type="line"/>
      <point x="422.29999999999995" y="327.9"/>
      <point x="542.0" y="429.4"/>
      <point x="603.3999999999999" y="532.9999999999999" type="curve"/>
      <point x="534.0999999999999" y="543.6999999999999" type="line"/>
      <point x="461.3999999999999" y="433.6"/>
      <point x="386.19999999999993" y="366.5"/>
      <point x="225.0" y="287.70000000000005" type="curve"/>
    </contour>
  </outline>
</glyph>
<glyph name="l" format="2">
  <advance width="300.62"/>
  <unicode hex="006C"/>
  <anchor x="164.35999999999999" y="0.0" name="bottom"/>
  <anchor x="146.34084" y="373.5" name="center"/>
  <anchor x="196.48000000000002" y="740.0" name="top"/>
  <anchor x="317.3" y="740.0" name="topright"/>
  <outline>
    <contour>
      <point x="163.98000000000002" y="740.0" type="line"/>
      <point x="69.35999999999999" y="143.99999999999997" type="line" smooth="yes"/>
      <point x="67.18" y="129.32"/>
      <point x="64.08" y="107.24"/>
      <point x="64.08" y="87.74" type="curve" smooth="yes"/>
      <point x="64.08" y="29.74"/>
      <point x="93.72" y="-10.0"/>
      <point x="166.12" y="-10.0" type="curve" smooth="yes"/>
      <point x="203.16" y="-10.0"/>
      <point x="237.8" y="-3.36"/>
      <point x="267.61999999999995" y="5.6000000000000005" type="curve"/>
      <point x="265.18" y="56.76" type="line"/>
      <point x="240.25999999999996" y="50.32"/>
      <point x="218.9" y="45.78000000000001"/>
      <point x="194.88" y="45.78000000000001" type="curve" smooth="yes"/>
      <point x="144.29999999999998" y="45.78000000000001"/>
      <point x="131.2" y="76.18"/>
      <point x="131.2" y="105.61999999999999" type="curve" smooth="yes"/>
      <point x="131.2" y="124.93999999999998"/>
      <point x="134.22" y="142.99999999999997"/>
      <point x="136.64" y="156.66" type="curve" smooth="yes"/>
      <point x="229.22" y="740.0" type="line"/>
    </contour>
  </outline>
</glyph>
<glyph name="m" format="2">
  <advance width="1005.74"/>
  <unicode hex="006D"/>
  <note>
24&gt;23 points
un point de trop dans la jointure avec 2e jambage
</note>
  <outline>
    <contour>
      <point x="904.9599999999999" y="-10.0" type="curve" smooth="yes"/>
      <point x="923.0399999999998" y="-10.0"/>
      <point x="947.36" y="-7.4799999999999995"/>
      <point x="965.66" y="-0.13999999999999924" type="curve"/>
      <point x="963.7799999999999" y="48.92" type="line"/>
      <point x="952.6" y="44.72"/>
      <point x="939.1999999999999" y="42.660000000000004"/>
      <point x="927.8399999999999" y="42.660000000000004" type="curve" smooth="yes"/>
      <point x="903.12" y="42.660000000000004"/>
      <point x="888.1199999999999" y="57.02"/>
      <point x="888.1199999999999" y="85.22" type="curve" smooth="yes"/>
      <point x="888.1199999999999" y="127.96"/>
      <point x="932.88" y="353.48"/>
      <point x="932.88" y="410.34000000000003" type="curve" smooth="yes"/>
      <point x="932.88" y="491.36"/>
      <point x="883.7799999999999" y="544.0"/>
      <point x="778.5" y="544.0" type="curve" smooth="yes"/>
      <point x="691.46" y="544.0"/>
      <point x="619.8000000000001" y="508.35999999999996"/>
      <point x="541.76" y="461.30000000000007" type="curve"/>
      <point x="525.74" y="510.84000000000003"/>
      <point x="483.74" y="544.0"/>
      <point x="406.82" y="544.0" type="curve" smooth="yes"/>
      <point x="329.5" y="544.0"/>
      <point x="258.04" y="511.7"/>
      <point x="180.73999999999998" y="466.88" type="curve"/>
      <point x="190.5" y="534.0" type="line"/>
      <point x="130.78" y="534.0" type="line"/>
      <point x="46.739999999999995" y="0.0" type="line"/>
      <point x="111.42" y="0.0" type="line"/>
      <point x="178.23999999999998" y="421.15999999999997" type="line"/>
      <point x="251.51999999999998" y="464.06"/>
      <point x="312.46" y="491.00000000000006"/>
      <point x="375.32" y="491.00000000000006" type="curve" smooth="yes"/>
      <point x="460.46" y="491.00000000000006"/>
      <point x="485.5" y="443.3"/>
      <point x="485.5" y="385.86000000000007" type="curve" smooth="yes"/>
      <point x="485.5" y="366.08"/>
      <point x="461.06" y="214.95999999999995"/>
      <point x="429.34000000000003" y="0.0" type="curve"/>
      <point x="493.64" y="0.0" type="line"/>
      <point x="524.52" y="208.16"/>
      <point x="546.54" y="349.88"/>
      <point x="549.9799999999999" y="387.64000000000004" type="curve" smooth="yes"/>
      <point x="550.18" y="397.23999999999995"/>
      <point x="550.0600000000001" y="410.3"/>
      <point x="548.9" y="419.32000000000005" type="curve"/>
      <point x="616.5" y="460.32"/>
      <point x="678.6" y="490.58000000000004"/>
      <point x="751.04" y="490.58000000000004" type="curve" smooth="yes"/>
      <point x="833.8599999999999" y="490.58000000000004"/>
      <point x="864.4399999999999" y="450.56"/>
      <point x="864.4399999999999" y="388.82" type="curve" smooth="yes"/>
      <point x="864.4399999999999" y="326.84000000000003"/>
      <point x="821.62" y="112.6"/>
      <point x="821.62" y="66.92" type="curve" smooth="yes"/>
      <point x="821.62" y="15.639999999999999"/>
      <point x="856.24" y="-10.0"/>
    </contour>
  </outline>
</glyph>
<glyph name="n" format="2">
  <advance width="669.92"/>
  <unicode hex="006E"/>
  <note>
16
</note>
  <anchor x="308.82" y="0.0" name="bottom"/>
  <anchor x="367.02000000000004" y="534.0" name="top"/>
  <outline>
    <contour>
      <point x="130.78" y="534.0" type="line"/>
      <point x="46.739999999999995" y="0.0" type="line"/>
      <point x="111.28" y="0.0" type="line"/>
      <point x="177.73999999999998" y="419.09999999999997" type="line"/>
      <point x="262.84000000000003" y="461.08"/>
      <point x="329.38" y="491.24"/>
      <point x="413.96" y="491.24" type="curve" smooth="yes"/>
      <point x="496.12" y="491.24"/>
      <point x="528.8" y="451.54"/>
      <point x="528.8" y="389.52" type="curve" smooth="yes"/>
      <point x="528.8" y="326.9"/>
      <point x="485.84000000000003" y="114.0"/>
      <point x="485.84000000000003" y="66.44" type="curve" smooth="yes"/>
      <point x="485.84000000000003" y="16.06"/>
      <point x="520.5400000000001" y="-10.0"/>
      <point x="569.26" y="-10.0" type="curve" smooth="yes"/>
      <point x="587.3399999999999" y="-10.0"/>
      <point x="611.54" y="-7.4799999999999995"/>
      <point x="629.84" y="-0.13999999999999924" type="curve"/>
      <point x="627.9599999999999" y="48.92" type="line"/>
      <point x="616.78" y="44.72"/>
      <point x="603.38" y="42.660000000000004"/>
      <point x="592.0199999999999" y="42.660000000000004" type="curve" smooth="yes"/>
      <point x="567.3" y="42.660000000000004"/>
      <point x="552.2199999999999" y="57.4"/>
      <point x="552.2199999999999" y="85.42" type="curve" smooth="yes"/>
      <point x="552.2199999999999" y="127.07999999999998"/>
      <point x="597.0400000000001" y="353.06"/>
      <point x="597.0400000000001" y="409.98" type="curve" smooth="yes"/>
      <point x="597.0400000000001" y="493.44"/>
      <point x="545.44" y="544.0"/>
      <point x="442.74" y="544.0" type="curve" smooth="yes"/>
      <point x="347.19999999999993" y="544.0"/>
      <point x="270.2" y="511.6"/>
      <point x="180.4" y="464.96" type="curve"/>
      <point x="191.22" y="534.0" type="line"/>
    </contour>
  </outline>
</glyph>
<glyph name="o" format="2">
  <advance width="660.8999999999999"/>
  <unicode hex="006F"/>
  <note>
8
</note>
  <anchor x="305.7" y="0.0" name="bottom"/>
  <anchor x="333.7" y="272.6" name="center"/>
  <anchor x="385.5" y="1.2000000000000002" name="ogonek"/>
  <anchor x="362.0" y="534.0" name="top"/>
  <anchor x="480.20000000000005" y="529.6" name="topright"/>
  <outline>
    <contour>
      <point x="310.0999999999999" y="-10.0" type="curve" smooth="yes"/>
      <point x="508.7" y="-10.0"/>
      <point x="612.9" y="128.4"/>
      <point x="612.5" y="326.5" type="curve" smooth="yes"/>
      <point x="612.1" y="469.2"/>
      <point x="518.8" y="544.6"/>
      <point x="348.5" y="544.6" type="curve" smooth="yes"/>
      <point x="149.59999999999997" y="544.6"/>
      <point x="44.9" y="401.6"/>
      <point x="45.3" y="207.1" type="curve" smooth="yes"/>
      <point x="45.7" y="64.19999999999999"/>
      <point x="137.29999999999998" y="-10.0"/>
    </contour>
    <contour>
      <point x="309.7" y="38.300000000000004" type="curve" smooth="yes"/>
      <point x="178.7" y="38.300000000000004"/>
      <point x="109.69999999999999" y="93.8"/>
      <point x="109.69999999999999" y="210.7" type="curve" smooth="yes"/>
      <point x="109.69999999999999" y="370.1"/>
      <point x="191.6" y="496.3"/>
      <point x="348.40000000000003" y="496.3" type="curve" smooth="yes"/>
      <point x="477.2" y="496.3"/>
      <point x="547.7" y="439.5"/>
      <point x="547.7" y="324.6" type="curve" smooth="yes"/>
      <point x="547.7" y="160.30000000000004"/>
      <point x="466.99999999999994" y="38.300000000000004"/>
    </contour>
  </outline>
</glyph>
<glyph name="p" format="2">
  <advance width="650.0999999999999"/>
  <unicode hex="0070"/>
  <note>
14 point
</note>
  <outline>
    <contour>
      <point x="14.019999999999998" y="-210.0" type="line"/>
      <point x="78.17999999999999" y="-210.0" type="line"/>
      <point x="113.05999999999999" y="8.239999999999998" type="line"/>
      <point x="151.66" y="-0.6800000000000015"/>
      <point x="201.11999999999998" y="-9.899999999999999"/>
      <point x="261.34" y="-9.899999999999999" type="curve" smooth="yes"/>
      <point x="473.9" y="-9.899999999999999"/>
      <point x="610.0599999999998" y="140.3"/>
      <point x="610.0599999999998" y="345.98" type="curve" smooth="yes"/>
      <point x="610.0599999999998" y="473.36"/>
      <point x="543.72" y="544.0"/>
      <point x="422.58" y="544.0" type="curve" smooth="yes"/>
      <point x="330.28" y="544.0"/>
      <point x="258.32" y="507.47999999999996"/>
      <point x="179.29999999999998" y="456.0" type="curve"/>
      <point x="190.29999999999998" y="536.4" type="line"/>
      <point x="131.3" y="536.4" type="line"/>
    </contour>
    <contour>
      <point x="260.61999999999995" y="38.46" type="curve" smooth="yes"/>
      <point x="202.55999999999997" y="38.46"/>
      <point x="155.79999999999998" y="49.260000000000005"/>
      <point x="120.86000000000001" y="58.16000000000001" type="curve"/>
      <point x="175.73999999999998" y="406.5" type="line"/>
      <point x="252.60000000000002" y="460.64"/>
      <point x="323.73999999999995" y="490.34"/>
      <point x="393.68" y="490.34" type="curve" smooth="yes"/>
      <point x="490.80000000000007" y="490.34"/>
      <point x="544.86" y="436.8"/>
      <point x="544.86" y="332.12" type="curve" smooth="yes"/>
      <point x="544.86" y="167.39999999999998"/>
      <point x="426.7" y="38.46"/>
    </contour>
  </outline>
</glyph>
<glyph name="q" format="2">
  <advance width="648.48"/>
  <unicode hex="0071"/>
  <note>
12
</note>
  <outline>
    <contour>
      <point x="596.7200000000001" y="515.98" type="line"/>
      <point x="537.6800000000001" y="530.6600000000001"/>
      <point x="463.5999999999999" y="544.0"/>
      <point x="384.90000000000003" y="544.0" type="curve" smooth="yes"/>
      <point x="159.08" y="544.0"/>
      <point x="37.839999999999996" y="376.34"/>
      <point x="37.839999999999996" y="183.17999999999998" type="curve" smooth="yes"/>
      <point x="37.839999999999996" y="67.54"/>
      <point x="112.91999999999999" y="-10.0"/>
      <point x="236.28" y="-10.0" type="curve" smooth="yes"/>
      <point x="317.06" y="-10.0"/>
      <point x="387.2" y="17.939999999999998"/>
      <point x="461.86" y="71.71999999999998" type="curve"/>
      <point x="416.31999999999994" y="-210.0" type="line"/>
      <point x="481.2" y="-210.0" type="line"/>
    </contour>
    <contour>
      <point x="525.7199999999999" y="475.08000000000004" type="curve"/>
      <point x="469.06" y="119.03999999999999" type="line"/>
      <point x="391.28000000000003" y="63.739999999999995"/>
      <point x="326.32" y="42.46000000000001"/>
      <point x="258.32" y="42.46000000000001" type="curve" smooth="yes"/>
      <point x="166.07999999999998" y="42.46000000000001"/>
      <point x="102.81999999999998" y="100.47999999999999"/>
      <point x="102.81999999999998" y="193.94" type="curve" smooth="yes"/>
      <point x="102.81999999999998" y="355.94"/>
      <point x="207.4" y="494.58000000000004"/>
      <point x="380.35999999999996" y="494.58000000000004" type="curve" smooth="yes"/>
      <point x="437.79999999999995" y="494.58000000000004"/>
      <point x="489.90000000000003" y="483.74"/>
    </contour>
  </outline>
</glyph>
<glyph name="r" format="2">
  <advance width="468.40000000000003"/>
  <unicode hex="0072"/>
  <anchor x="77.63999999999999" y="0.0" name="bottom"/>
  <anchor x="306.5" y="534.0" name="top"/>
  <outline>
    <contour>
      <point x="189.54" y="534.0" type="line"/>
      <point x="131.06" y="534.0" type="line"/>
      <point x="46.599999999999994" y="0.0" type="line"/>
      <point x="110.67999999999999" y="0.0" type="line"/>
      <point x="172.52" y="389.38" type="line"/>
      <point x="255.58" y="459.56"/>
      <point x="326.0" y="485.96000000000004"/>
      <point x="388.34" y="485.96000000000004" type="curve" smooth="yes"/>
      <point x="418.32" y="485.96000000000004"/>
      <point x="452.44" y="480.66"/>
      <point x="480.06" y="472.6" type="curve"/>
      <point x="498.7" y="529.88" type="line"/>
      <point x="475.88" y="537.72"/>
      <point x="440.59999999999997" y="544.0"/>
      <point x="403.0799999999999" y="544.0" type="curve" smooth="yes"/>
      <point x="332.96" y="544.0"/>
      <point x="265.46" y="515.92"/>
      <point x="175.22" y="443.16" type="curve"/>
    </contour>
  </outline>
</glyph>
<glyph name="s" format="2">
  <advance width="564.6999999999999"/>
  <unicode hex="0073"/>
  <anchor x="249.79999999999998" y="0.0" name="bottom"/>
  <anchor x="328.99999999999994" y="534.0" name="top"/>
  <outline>
    <contour>
      <point x="0.6999999999999991" y="30.400000000000002" type="line"/>
      <point x="61.699999999999996" y="8.700000000000001"/>
      <point x="144.5" y="-10.0"/>
      <point x="241.89999999999995" y="-10.0" type="curve" smooth="yes"/>
      <point x="406.59999999999997" y="-10.0"/>
      <point x="505.5999999999999" y="43.400000000000006"/>
      <point x="505.5999999999999" y="147.2" type="curve" smooth="yes"/>
      <point x="505.5999999999999" y="330.7"/>
      <point x="137.5" y="261.2"/>
      <point x="137.5" y="397.99999999999994" type="curve" smooth="yes"/>
      <point x="137.5" y="455.3"/>
      <point x="198.6" y="495.90000000000003"/>
      <point x="324.7" y="495.90000000000003" type="curve" smooth="yes"/>
      <point x="392.8" y="495.90000000000003"/>
      <point x="459.2" y="483.3"/>
      <point x="511.3999999999999" y="465.8" type="curve"/>
      <point x="527.1999999999999" y="513.3" type="line"/>
      <point x="475.2" y="531.5000000000001"/>
      <point x="402.09999999999997" y="544.0"/>
      <point x="333.7" y="544.0" type="curve" smooth="yes"/>
      <point x="164.09999999999997" y="544.0"/>
      <point x="75.60000000000001" y="486.0"/>
      <point x="75.60000000000001" y="391.00000000000006" type="curve" smooth="yes"/>
      <point x="75.60000000000001" y="208.90000000000003"/>
      <point x="443.4" y="280.9"/>
      <point x="443.4" y="138.0" type="curve" smooth="yes"/>
      <point x="443.4" y="78.1"/>
      <point x="375.4" y="38.3"/>
      <point x="250.0" y="38.3" type="curve" smooth="yes"/>
      <point x="160.10000000000002" y="38.3"/>
      <point x="72.7" y="58.1"/>
      <point x="17.999999999999996" y="79.7" type="curve"/>
    </contour>
  </outline>
</glyph>
<glyph name="t" format="2">
  <advance width="449.81999999999994"/>
  <unicode hex="0074"/>
  <anchor x="232.9" y="0.0" name="bottom"/>
  <anchor x="219.28" y="288.91999999999996" name="center"/>
  <anchor x="216.29999999999995" y="664.3399999999999" name="top"/>
  <anchor x="421.22" y="779.3" name="topright"/>
  <outline>
    <contour>
      <point x="394.91999999999996" y="71.3" type="line"/>
      <point x="348.86" y="56.17999999999999"/>
      <point x="302.7" y="45.14"/>
      <point x="259.12" y="45.14" type="curve" smooth="yes"/>
      <point x="186.61999999999998" y="45.14"/>
      <point x="161.76" y="79.08"/>
      <point x="161.76" y="132.34" type="curve" smooth="yes"/>
      <point x="161.76" y="144.74"/>
      <point x="162.85999999999999" y="158.0"/>
      <point x="165.22" y="172.17999999999998" type="curve" smooth="yes"/>
      <point x="214.98" y="485.86" type="line"/>
      <point x="452.54" y="485.86" type="line"/>
      <point x="460.84" y="534.0" type="line"/>
      <point x="222.85999999999999" y="534.0" type="line"/>
      <point x="243.83999999999997" y="664.3399999999999" type="line"/>
      <point x="190.78" y="664.3399999999999" type="line"/>
      <point x="158.94" y="534.0" type="line"/>
      <point x="39.38" y="526.04" type="line"/>
      <point x="31.8" y="485.91999999999996" type="line"/>
      <point x="150.22" y="485.91999999999996" type="line"/>
      <point x="100.41999999999999" y="169.66" type="line" smooth="yes"/>
      <point x="97.01999999999998" y="149.44"/>
      <point x="95.08" y="127.0"/>
      <point x="95.08" y="112.74" type="curve" smooth="yes"/>
      <point x="95.08" y="25.08"/>
      <point x="145.8" y="-10.0"/>
      <point x="230.07999999999998" y="-10.0" type="curve" smooth="yes"/>
      <point x="277.5799999999999" y="-10.0"/>
      <point x="335.47999999999996" y="-1.06"/>
      <point x="397.3" y="20.619999999999997" type="curve"/>
    </contour>
  </outline>
</glyph>
<glyph name="u" format="2">
  <advance width="655.8"/>
  <unicode hex="0075"/>
  <note>
15
</note>
  <anchor x="279.32" y="0.0" name="bottom"/>
  <anchor x="606.4000000000001" y="4.54" name="ogonek"/>
  <anchor x="357.69336" y="534.0" name="top"/>
  <anchor x="595.36" y="534.0" name="topright"/>
  <outline>
    <contour>
      <point x="215.51999999999998" y="-10.0" type="curve" smooth="yes"/>
      <point x="305.32000000000005" y="-10.0"/>
      <point x="379.06" y="17.5"/>
      <point x="467.84" y="66.92" type="curve"/>
      <point x="472.71999999999997" y="13.82"/>
      <point x="501.1" y="-10.0"/>
      <point x="546.54" y="-10.0" type="curve" smooth="yes"/>
      <point x="562.46" y="-10.0"/>
      <point x="588.3" y="-4.5200000000000005"/>
      <point x="606.4000000000001" y="6.08" type="curve"/>
      <point x="604.56" y="49.099999999999994" type="line"/>
      <point x="591.84" y="44.480000000000004"/>
      <point x="578.36" y="42.080000000000005"/>
      <point x="572.22" y="42.080000000000005" type="curve" smooth="yes"/>
      <point x="545.04" y="42.080000000000005"/>
      <point x="530.7399999999999" y="56.26"/>
      <point x="530.7399999999999" y="94.42" type="curve" smooth="yes"/>
      <point x="530.7399999999999" y="105.76"/>
      <point x="532.2199999999999" y="129.2"/>
      <point x="597.16" y="534.0" type="curve"/>
      <point x="531.9599999999999" y="534.0" type="line"/>
      <point x="467.08" y="109.16000000000001" type="line"/>
      <point x="386.6" y="66.86"/>
      <point x="322.96" y="42.36"/>
      <point x="242.67999999999998" y="42.36" type="curve" smooth="yes"/>
      <point x="169.72" y="42.36"/>
      <point x="133.57999999999998" y="78.30000000000001"/>
      <point x="133.7" y="135.5" type="curve" smooth="yes"/>
      <point x="134.78" y="157.58"/>
      <point x="137.79999999999998" y="186.28"/>
      <point x="193.22" y="534.0" type="curve"/>
      <point x="128.51999999999998" y="534.0" type="line"/>
      <point x="75.1" y="188.92000000000002"/>
      <point x="67.08" y="140.02"/>
      <point x="67.08" y="116.3" type="curve" smooth="yes"/>
      <point x="67.08" y="39.980000000000004"/>
      <point x="116.77999999999999" y="-10.0"/>
    </contour>
  </outline>
</glyph>
<glyph name="v" format="2">
  <advance width="557.28"/>
  <unicode hex="0076"/>
  <outline>
    <contour>
      <point x="265.96" y="-0.7600000000000006" type="line"/>
      <point x="506.17999999999995" y="358.06"/>
      <point x="567.52" y="422.3"/>
      <point x="574.9399999999999" y="534.0" type="curve"/>
      <point x="508.29999999999995" y="534.0" type="line"/>
      <point x="501.78" y="437.62"/>
      <point x="455.15999999999997" y="390.78000000000003"/>
      <point x="240.73999999999998" y="54.8" type="curve"/>
      <point x="108.52000000000001" y="539.6" type="line"/>
      <point x="42.08" y="535.58" type="line"/>
      <point x="193.89999999999998" y="-0.7600000000000006" type="line"/>
    </contour>
  </outline>
</glyph>
<glyph name="w" format="2">
  <advance width="832.34"/>
  <unicode hex="0077"/>
  <note>
15
</note>
  <anchor x="384.9799999999999" y="0.0" name="bottom"/>
  <anchor x="442.47999999999996" y="534.0" name="top"/>
  <outline>
    <contour>
      <point x="595.52" y="0.0" type="line"/>
      <point x="796.3599999999998" y="351.24000000000007"/>
      <point x="845.4" y="446.78"/>
      <point x="847.4200000000001" y="534.0" type="curve"/>
      <point x="788.5200000000001" y="534.0" type="line"/>
      <point x="784.8199999999999" y="457.94"/>
      <point x="756.9599999999999" y="393.3"/>
      <point x="567.8599999999999" y="53.9" type="curve"/>
      <point x="482.82000000000005" y="520.04" type="line"/>
      <point x="412.34000000000003" y="520.04" type="line"/>
      <point x="340.67999999999995" y="359.3"/>
      <point x="269.52" y="209.88"/>
      <point x="196.17999999999998" y="55.019999999999996" type="curve"/>
      <point x="104.6" y="539.6" type="line"/>
      <point x="44.26" y="535.72" type="line"/>
      <point x="148.99999999999997" y="0.0" type="line"/>
      <point x="223.66000000000003" y="0.0" type="line"/>
      <point x="295.11999999999995" y="146.7"/>
      <point x="368.97999999999996" y="301.18"/>
      <point x="437.08000000000004" y="445.08000000000004" type="curve"/>
      <point x="525.38" y="0.0" type="line"/>
    </contour>
  </outline>
</glyph>
<glyph name="x" format="2">
  <advance width="570.1999999999999"/>
  <unicode hex="0078"/>
  <outline>
    <contour>
      <point x="519.5" y="534.0" type="line"/>
      <point x="485.7999999999999" y="455.4"/>
      <point x="453.99999999999994" y="408.3"/>
      <point x="302.4" y="311.9" type="curve"/>
      <point x="144.89999999999998" y="543.0" type="line"/>
      <point x="77.4" y="533.0" type="line"/>
      <point x="249.0" y="286.59999999999997" type="line"/>
      <point x="74.8" y="175.89999999999998"/>
      <point x="17.4" y="95.8"/>
      <point x="-10.100000000000001" y="0.0" type="curve"/>
      <point x="57.19999999999999" y="0.0" type="line"/>
      <point x="83.8" y="80.8"/>
      <point x="115.8" y="141.6"/>
      <point x="277.0" y="243.49999999999997" type="curve"/>
      <point x="449.99999999999994" y="-5.999999999999999" type="line"/>
      <point x="516.0" y="2.4" type="line"/>
      <point x="328.69999999999993" y="270.3" type="line"/>
      <point x="502.3999999999999" y="377.5"/>
      <point x="557.0" y="456.6"/>
      <point x="584.9000000000001" y="534.0" type="curve"/>
    </contour>
  </outline>
</glyph>
<glyph name="y" format="2">
  <advance width="565.3"/>
  <unicode hex="0079"/>
  <anchor x="269.9" y="-147.00000000000003" name="bottom"/>
  <anchor x="314.8999999999999" y="534.0" name="top"/>
  <outline>
    <contour>
      <point x="516.9" y="536.4" type="line"/>
      <point x="506.79999999999995" y="425.4"/>
      <point x="384.79999999999995" y="210.4"/>
      <point x="263.59999999999997" y="36.0" type="curve"/>
      <point x="106.0" y="542.0" type="line"/>
      <point x="40.0" y="537.7" type="line"/>
      <point x="211.09999999999997" y="-5.6" type="line"/>
      <point x="232.6" y="-5.6" type="line"/>
      <point x="175.5" y="-85.19999999999999"/>
      <point x="117.1" y="-155.9"/>
      <point x="67.69999999999999" y="-207.6" type="curve"/>
      <point x="133.2" y="-218.5" type="line"/>
      <point x="299.59999999999997" y="-38.699999999999996"/>
      <point x="576.4" y="384.2"/>
      <point x="581.4999999999999" y="535.6" type="curve"/>
    </contour>
  </outline>
</glyph>
<glyph name="z" format="2">
  <advance width="592.64"/>
  <unicode hex="007A"/>
  <anchor x="268.52" y="0.0" name="bottom"/>
  <anchor x="293.53999999999996" y="275.0" name="center"/>
  <anchor x="332.32" y="534.0" name="top"/>
  <outline>
    <contour>
      <point x="11.599999999999998" y="0.0" type="line"/>
      <point x="523.6199999999999" y="0.0" type="line"/>
      <point x="531.66" y="49.400000000000006" type="line"/>
      <point x="107.06" y="49.400000000000006" type="line"/>
      <point x="572.8799999999999" y="487.94" type="line"/>
      <point x="580.8399999999999" y="534.0" type="line"/>
      <point x="103.46" y="534.0" type="line"/>
      <point x="95.22" y="484.47999999999996" type="line"/>
      <point x="486.46" y="484.47999999999996" type="line"/>
      <point x="17.88" y="44.50000000000001" type="line"/>
    </contour>
  </outline>
</glyph>
<glyph name="braceleft" format="2">
  <advance width="386.34000000000003"/>
  <unicode hex="007B"/>
  <outline>
    <contour>
      <point x="85.69999999999999" y="-100.60000000000001" type="curve" smooth="yes"/>
      <point x="85.69999999999999" y="-165.3"/>
      <point x="122.32" y="-210.0"/>
      <point x="212.26" y="-210.0" type="curve" smooth="yes"/>
      <point x="274.76" y="-210.0" type="line"/>
      <point x="282.22" y="-163.0" type="line"/>
      <point x="233.04" y="-163.0" type="line" smooth="yes"/>
      <point x="165.92" y="-163.0"/>
      <point x="144.28" y="-129.39999999999998"/>
      <point x="144.28" y="-87.28" type="curve" smooth="yes"/>
      <point x="144.28" y="5.68"/>
      <point x="214.5" y="88.06"/>
      <point x="214.5" y="191.48" type="curve" smooth="yes"/>
      <point x="214.5" y="223.9"/>
      <point x="202.72" y="251.98"/>
      <point x="170.22" y="266.59999999999997" type="curve"/>
      <point x="229.42" y="280.47999999999996"/>
      <point x="251.3" y="349.94"/>
      <point x="251.3" y="426.1" type="curve" smooth="yes"/>
      <point x="251.3" y="468.50000000000006"/>
      <point x="245.74" y="501.82000000000005"/>
      <point x="245.74" y="544.8000000000001" type="curve" smooth="yes"/>
      <point x="245.74" y="609.6600000000001"/>
      <point x="265.09999999999997" y="693.0"/>
      <point x="370.20000000000005" y="693.0" type="curve" smooth="yes"/>
      <point x="418.3" y="693.0" type="line"/>
      <point x="425.64" y="740.0" type="line"/>
      <point x="364.34000000000003" y="740.0" type="line" smooth="yes"/>
      <point x="226.39999999999998" y="740.0"/>
      <point x="188.49999999999997" y="636.16"/>
      <point x="188.49999999999997" y="542.4599999999999" type="curve" smooth="yes"/>
      <point x="188.49999999999997" y="501.56"/>
      <point x="194.1" y="462.02"/>
      <point x="194.1" y="422.02" type="curve" smooth="yes"/>
      <point x="194.1" y="352.49999999999994"/>
      <point x="177.84" y="290.44000000000005"/>
      <point x="120.02" y="290.44000000000005" type="curve" smooth="yes"/>
      <point x="103.74" y="290.44000000000005" type="line"/>
      <point x="96.34" y="243.98000000000002" type="line"/>
      <point x="112.69999999999999" y="243.98000000000002" type="line" smooth="yes"/>
      <point x="146.07999999999998" y="243.98000000000002"/>
      <point x="158.95999999999998" y="220.44000000000003"/>
      <point x="158.95999999999998" y="191.3" type="curve" smooth="yes"/>
      <point x="158.95999999999998" y="85.84"/>
      <point x="85.69999999999999" y="6.200000000000001"/>
    </contour>
  </outline>
</glyph>
<glyph name="bar" format="2">
  <advance width="252.43999999999997"/>
  <unicode hex="007C"/>
  <outline>
    <contour>
      <point x="234.6" y="790.0600000000001" type="line"/>
      <point x="182.20000000000002" y="790.0600000000001" type="line"/>
      <point x="22.779999999999998" y="-210.0" type="line"/>
      <point x="75.1" y="-210.0" type="line"/>
    </contour>
  </outline>
</glyph>
<glyph name="braceright" format="2">
  <advance width="386.34000000000003"/>
  <unicode hex="007D"/>
  <outline>
    <contour>
      <point x="297.08" y="630.6" type="curve" smooth="yes"/>
      <point x="297.08" y="695.36"/>
      <point x="260.40000000000003" y="740.0600000000001"/>
      <point x="170.46" y="740.0600000000001" type="curve" smooth="yes"/>
      <point x="107.96" y="740.0600000000001" type="line"/>
      <point x="100.5" y="693.0600000000001" type="line"/>
      <point x="149.08" y="693.0600000000001" type="line" smooth="yes"/>
      <point x="216.26" y="693.0600000000001"/>
      <point x="237.95999999999998" y="659.4000000000001"/>
      <point x="237.95999999999998" y="617.28" type="curve" smooth="yes"/>
      <point x="237.95999999999998" y="524.2"/>
      <point x="167.74" y="445.18"/>
      <point x="167.74" y="340.49999999999994" type="curve" smooth="yes"/>
      <point x="167.74" y="308.26"/>
      <point x="179.45999999999998" y="280.18"/>
      <point x="212.07999999999998" y="265.62" type="curve"/>
      <point x="152.88" y="251.68"/>
      <point x="130.94" y="182.34"/>
      <point x="130.94" y="106.12" type="curve" smooth="yes"/>
      <point x="130.94" y="63.72"/>
      <point x="136.5" y="28.240000000000002"/>
      <point x="136.5" y="-14.619999999999997" type="curve" smooth="yes"/>
      <point x="136.5" y="-79.47999999999999"/>
      <point x="117.19999999999999" y="-162.94"/>
      <point x="12.099999999999998" y="-162.94" type="curve" smooth="yes"/>
      <point x="-35.52" y="-162.94" type="line"/>
      <point x="-42.86" y="-210.0" type="line"/>
      <point x="18.379999999999995" y="-210.0" type="line" smooth="yes"/>
      <point x="156.32" y="-210.0"/>
      <point x="194.22" y="-105.38000000000001"/>
      <point x="194.22" y="-13.6" type="curve" smooth="yes"/>
      <point x="194.22" y="28.919999999999998"/>
      <point x="188.62" y="70.86000000000001"/>
      <point x="188.62" y="110.44" type="curve" smooth="yes"/>
      <point x="188.62" y="179.84"/>
      <point x="205.0" y="241.78000000000003"/>
      <point x="262.7" y="241.78000000000003" type="curve" smooth="yes"/>
      <point x="278.98" y="241.78000000000003" type="line"/>
      <point x="286.38" y="288.17999999999995" type="line"/>
      <point x="270.02000000000004" y="288.17999999999995" type="line" smooth="yes"/>
      <point x="236.64" y="288.17999999999995"/>
      <point x="223.76" y="311.71999999999997"/>
      <point x="223.76" y="340.86" type="curve" smooth="yes"/>
      <point x="223.76" y="446.38"/>
      <point x="297.08" y="522.9599999999999"/>
    </contour>
  </outline>
</glyph>
<glyph name="asciitilde" format="2">
  <advance width="498.98"/>
  <unicode hex="007E"/>
  <outline>
    <contour>
      <point x="429.36" y="256.7" type="curve"/>
      <point x="438.2" y="314.34000000000003" type="line"/>
      <point x="412.41999999999996" y="291.40000000000003"/>
      <point x="384.94" y="271.62"/>
      <point x="349.76" y="271.62" type="curve" smooth="yes"/>
      <point x="270.5" y="271.62"/>
      <point x="238.14" y="373.1"/>
      <point x="162.0" y="373.1" type="curve" smooth="yes"/>
      <point x="127.2" y="373.1"/>
      <point x="97.17999999999999" y="353.06"/>
      <point x="76.74000000000001" y="335.5" type="curve"/>
      <point x="67.19999999999999" y="277.3" type="line"/>
      <point x="91.06" y="296.7"/>
      <point x="117.43999999999998" y="318.34000000000003"/>
      <point x="153.9" y="318.34000000000003" type="curve" smooth="yes"/>
      <point x="229.84" y="318.34000000000003"/>
      <point x="261.03999999999996" y="216.85999999999999"/>
      <point x="344.42" y="216.85999999999999" type="curve" smooth="yes"/>
      <point x="378.36" y="216.85999999999999"/>
      <point x="406.16" y="235.04000000000002"/>
    </contour>
  </outline>
</glyph>
<glyph name="cent" format="2">
  <advance width="811.24"/>
  <unicode hex="00A2"/>
  <outline>
    <contour>
      <point x="353.98" y="-104.92" type="line"/>
      <point x="403.26000000000005" y="-104.92" type="line"/>
      <point x="418.46" y="-8.82" type="line"/>
      <point x="510.0599999999999" y="-5.26"/>
      <point x="584.88" y="9.44"/>
      <point x="625.92" y="20.78" type="curve"/>
      <point x="622.4000000000001" y="71.02" type="line"/>
      <point x="573.4999999999999" y="59.78000000000001"/>
      <point x="488.9799999999999" y="43.12"/>
      <point x="422.8999999999999" y="43.12" type="curve" smooth="yes"/>
      <point x="288.86" y="43.12"/>
      <point x="220.07999999999998" y="100.30000000000001"/>
      <point x="220.07999999999998" y="208.9" type="curve" smooth="yes"/>
      <point x="220.07999999999998" y="372.12"/>
      <point x="324.94" y="489.64"/>
      <point x="495.76" y="489.64" type="curve" smooth="yes"/>
      <point x="569.86" y="489.64"/>
      <point x="626.14" y="476.76"/>
      <point x="677.5799999999999" y="462.34" type="curve"/>
      <point x="694.66" y="515.7200000000001" type="line"/>
      <point x="639.0" y="531.58"/>
      <point x="581.9799999999999" y="542.7599999999999"/>
      <point x="507.66" y="543.46" type="curve"/>
      <point x="523.24" y="638.9399999999999" type="line"/>
      <point x="473.9599999999999" y="638.9399999999999" type="line"/>
      <point x="457.84000000000003" y="539.4" type="line"/>
      <point x="263.17999999999995" y="523.6800000000001"/>
      <point x="153.64" y="384.28000000000003"/>
      <point x="153.64" y="197.5" type="curve" smooth="yes"/>
      <point x="153.64" y="58.42"/>
      <point x="241.95999999999998" y="-0.7399999999999988"/>
      <point x="368.71999999999997" y="-6.779999999999999" type="curve"/>
    </contour>
  </outline>
</glyph>
<glyph name="sterling" format="2">
  <advance width="811.48"/>
  <unicode hex="00A3"/>
  <outline>
    <contour>
      <point x="86.58" y="0.0" type="line"/>
      <point x="676.3" y="0.0" type="line"/>
      <point x="684.5" y="52.400000000000006" type="line"/>
      <point x="174.76" y="52.400000000000006" type="line"/>
      <point x="271.06" y="127.24000000000001"/>
      <point x="314.50000000000006" y="185.68"/>
      <point x="314.50000000000006" y="272.43999999999994" type="curve" smooth="yes"/>
      <point x="314.50000000000006" y="335.2"/>
      <point x="272.02000000000004" y="394.41999999999996"/>
      <point x="272.02000000000004" y="458.96000000000004" type="curve" smooth="yes"/>
      <point x="272.02000000000004" y="592.78"/>
      <point x="383.54" y="656.4399999999999"/>
      <point x="520.5799999999999" y="656.4399999999999" type="curve" smooth="yes"/>
      <point x="592.44" y="656.4399999999999"/>
      <point x="664.2" y="648.14"/>
      <point x="742.72" y="624.12" type="curve"/>
      <point x="760.84" y="673.8999999999999" type="line"/>
      <point x="679.6999999999999" y="700.98"/>
      <point x="594.4" y="710.0"/>
      <point x="523.18" y="710.0" type="curve" smooth="yes"/>
      <point x="355.29999999999995" y="710.0"/>
      <point x="209.6" y="631.92"/>
      <point x="209.6" y="466.16" type="curve" smooth="yes"/>
      <point x="209.6" y="388.58000000000004"/>
      <point x="253.10000000000002" y="338.41999999999996"/>
      <point x="253.10000000000002" y="268.92" type="curve" smooth="yes"/>
      <point x="253.10000000000002" y="177.85999999999999"/>
      <point x="187.47999999999996" y="117.86"/>
      <point x="92.83999999999999" y="45.400000000000006" type="curve"/>
    </contour>
    <contour>
      <point x="112.19999999999999" y="342.58" type="line"/>
      <point x="625.2399999999999" y="343.62" type="line"/>
      <point x="632.84" y="390.78000000000003" type="line"/>
      <point x="119.6" y="390.78000000000003" type="line"/>
    </contour>
  </outline>
</glyph>
<glyph name="currency" format="2">
  <advance width="427.46"/>
  <unicode hex="00A4"/>
  <outline>
    <contour>
      <point x="52.7" y="107.34" type="line"/>
      <point x="130.86" y="181.52" type="line"/>
      <point x="147.04" y="165.12"/>
      <point x="168.83999999999997" y="156.17999999999998"/>
      <point x="195.26" y="156.17999999999998" type="curve" smooth="yes"/>
      <point x="221.28" y="156.17999999999998"/>
      <point x="246.92000000000002" y="165.67999999999998"/>
      <point x="268.56" y="181.6" type="curve"/>
      <point x="324.38" y="107.34" type="line"/>
      <point x="360.64" y="141.56" type="line"/>
      <point x="307.5" y="212.92000000000002" type="line"/>
      <point x="330.86" y="240.64"/>
      <point x="346.62" y="277.26"/>
      <point x="346.74" y="317.96" type="curve" smooth="yes"/>
      <point x="346.86" y="338.58000000000004"/>
      <point x="341.92" y="357.97999999999996"/>
      <point x="332.92" y="373.72" type="curve"/>
      <point x="408.46000000000004" y="445.08" type="line"/>
      <point x="383.20000000000005" y="479.3" type="line"/>
      <point x="304.32" y="405.21999999999997" type="line"/>
      <point x="288.17999999999995" y="421.7"/>
      <point x="265.12" y="431.5"/>
      <point x="238.9" y="431.5" type="curve" smooth="yes"/>
      <point x="212.42" y="431.5"/>
      <point x="187.36" y="421.64"/>
      <point x="165.88" y="405.3" type="curve"/>
      <point x="111.38" y="479.3" type="line"/>
      <point x="75.48" y="445.08" type="line"/>
      <point x="126.82" y="374.36" type="line"/>
      <point x="102.74000000000001" y="347.14"/>
      <point x="87.83999999999999" y="310.66"/>
      <point x="87.71999999999998" y="270.7" type="curve" smooth="yes"/>
      <point x="87.60000000000001" y="248.3"/>
      <point x="92.48" y="228.24"/>
      <point x="101.62" y="211.72" type="curve"/>
      <point x="27.519999999999996" y="141.56" type="line"/>
    </contour>
    <contour>
      <point x="202.39999999999998" y="197.28" type="curve" smooth="yes"/>
      <point x="159.14" y="197.28"/>
      <point x="129.44" y="231.42"/>
      <point x="129.62" y="277.52" type="curve" smooth="yes"/>
      <point x="129.8" y="338.8"/>
      <point x="180.42" y="390.34"/>
      <point x="232.48" y="390.34" type="curve" smooth="yes"/>
      <point x="276.12" y="390.34"/>
      <point x="305.52" y="356.29999999999995"/>
      <point x="305.34000000000003" y="310.78000000000003" type="curve" smooth="yes"/>
      <point x="305.16" y="249.2"/>
      <point x="255.54" y="197.28"/>
    </contour>
  </outline>
</glyph>
<glyph name="yen" format="2">
  <advance width="811.5999999999999"/>
  <unicode hex="00A5"/>
  <outline>
    <contour>
      <point x="153.89999999999998" y="345.7" type="line"/>
      <point x="386.0999999999999" y="345.7" type="line"/>
      <point x="367.09999999999997" y="225.50000000000003" type="line"/>
      <point x="135.39999999999998" y="225.50000000000003" type="line"/>
      <point x="128.4" y="184.20000000000002" type="line"/>
      <point x="360.4" y="184.20000000000002" type="line"/>
      <point x="331.59999999999997" y="0.0" type="line"/>
      <point x="399.59999999999997" y="0.0" type="line"/>
      <point x="428.59999999999997" y="184.20000000000002" type="line"/>
      <point x="663.8000000000001" y="184.20000000000002" type="line"/>
      <point x="670.3000000000001" y="225.50000000000003" type="line"/>
      <point x="435.09999999999997" y="225.50000000000003" type="line"/>
      <point x="454.09999999999997" y="345.7" type="line"/>
      <point x="688.9999999999999" y="345.7" type="line"/>
      <point x="696.0" y="386.9" type="line"/>
      <point x="461.29999999999995" y="386.9" type="line"/>
      <point x="772.0" y="695.6999999999999" type="line"/>
      <point x="708.8" y="706.4" type="line"/>
      <point x="433.8999999999999" y="430.3" type="line"/>
      <point x="239.70000000000002" y="704.8" type="line"/>
      <point x="172.79999999999998" y="695.6999999999999" type="line"/>
      <point x="392.79999999999995" y="386.9" type="line"/>
      <point x="161.29999999999995" y="386.9" type="line"/>
    </contour>
  </outline>
</glyph>
<glyph name="brokenbar" format="2">
  <advance width="252.98"/>
  <unicode hex="00A6"/>
  <outline>
    <contour>
      <point x="170.7" y="391.0" type="line"/>
      <point x="234.95999999999998" y="790.0600000000001" type="line"/>
      <point x="182.56" y="790.0600000000001" type="line"/>
      <point x="118.3" y="391.0" type="line"/>
    </contour>
    <contour>
      <point x="86.98" y="190.06" type="line"/>
      <point x="23.019999999999992" y="-210.0" type="line"/>
      <point x="75.28" y="-210.0" type="line"/>
      <point x="139.3" y="190.06" type="line"/>
    </contour>
  </outline>
</glyph>
<glyph name="section" format="2">
  <advance width="565.38"/>
  <unicode hex="00A7"/>
  <outline>
    <contour>
      <point x="11.659999999999998" y="-99.56" type="curve"/>
      <point x="-15.260000000000002" y="-152.66" type="line"/>
      <point x="39.72" y="-196.64"/>
      <point x="96.16" y="-220.0"/>
      <point x="171.0" y="-220.0" type="curve" smooth="yes"/>
      <point x="337.49999999999994" y="-220.0"/>
      <point x="491.75999999999993" y="-100.71999999999998"/>
      <point x="491.75999999999993" y="112.37999999999998" type="curve" smooth="yes"/>
      <point x="491.75999999999993" y="291.16"/>
      <point x="356.71999999999997" y="424.09999999999997"/>
      <point x="356.71999999999997" y="568.9200000000001" type="curve" smooth="yes"/>
      <point x="356.71999999999997" y="637.18"/>
      <point x="391.92" y="686.74"/>
      <point x="461.22" y="686.74" type="curve" smooth="yes"/>
      <point x="492.73999999999995" y="686.74"/>
      <point x="516.58" y="677.6600000000001"/>
      <point x="540.64" y="668.5" type="curve"/>
      <point x="560.2" y="726.5799999999999" type="line"/>
      <point x="517.4399999999999" y="741.54"/>
      <point x="464.21999999999997" y="749.5600000000001"/>
      <point x="412.46" y="749.5600000000001" type="curve" smooth="yes"/>
      <point x="238.06" y="749.5600000000001"/>
      <point x="85.53999999999999" y="621.38"/>
      <point x="85.53999999999999" y="401.6" type="curve" smooth="yes"/>
      <point x="85.53999999999999" y="213.79999999999998"/>
      <point x="217.24" y="76.02"/>
      <point x="217.24" y="-43.81999999999999" type="curve" smooth="yes"/>
      <point x="217.24" y="-111.86"/>
      <point x="170.2" y="-153.42000000000002"/>
      <point x="120.41999999999999" y="-153.42000000000002" type="curve" smooth="yes"/>
      <point x="79.38" y="-153.42000000000002"/>
      <point x="41.28" y="-127.60000000000001"/>
    </contour>
    <contour>
      <point x="393.32" y="708.62" type="curve"/>
      <point x="333.04" y="684.56"/>
      <point x="306.53999999999996" y="626.5799999999999"/>
      <point x="306.53999999999996" y="563.08" type="curve" smooth="yes"/>
      <point x="306.53999999999996" y="406.56"/>
      <point x="438.81999999999994" y="261.0"/>
      <point x="438.81999999999994" y="97.17999999999999" type="curve" smooth="yes"/>
      <point x="438.81999999999994" y="-74.25999999999999"/>
      <point x="303.91999999999996" y="-190.64"/>
      <point x="162.38" y="-181.46" type="curve"/>
      <point x="228.14" y="-162.7"/>
      <point x="268.47999999999996" y="-100.28"/>
      <point x="268.47999999999996" y="-34.36" type="curve" smooth="yes"/>
      <point x="268.47999999999996" y="101.52000000000001"/>
      <point x="141.32" y="235.9"/>
      <point x="141.32" y="405.8" type="curve" smooth="yes"/>
      <point x="141.32" y="575.8399999999999"/>
      <point x="237.44" y="695.6999999999999"/>
    </contour>
  </outline>
</glyph>
<glyph name="copyright" format="2">
  <advance width="816.6799999999998"/>
  <unicode hex="00A9"/>
  <outline>
    <contour>
      <point x="387.76" y="-9.780000000000001" type="curve" smooth="yes"/>
      <point x="632.3800000000001" y="-10.34"/>
      <point x="770.04" y="156.78000000000003"/>
      <point x="770.04" y="409.47999999999996" type="curve" smooth="yes"/>
      <point x="770.04" y="608.1600000000001"/>
      <point x="638.46" y="709.04"/>
      <point x="449.76" y="709.5999999999999" type="curve" smooth="yes"/>
      <point x="208.38" y="710.16"/>
      <point x="70.57999999999998" y="544.34"/>
      <point x="70.57999999999998" y="290.12" type="curve" smooth="yes"/>
      <point x="70.57999999999998" y="91.78"/>
      <point x="200.59999999999997" y="-9.22"/>
    </contour>
    <contour>
      <point x="410.32" y="172.55999999999997" type="curve" smooth="yes"/>
      <point x="463.85999999999996" y="172.55999999999997"/>
      <point x="508.79999999999995" y="182.42000000000002"/>
      <point x="545.0199999999999" y="194.86" type="curve"/>
      <point x="540.06" y="233.5" type="line"/>
      <point x="504.58000000000004" y="223.1"/>
      <point x="466.08" y="215.26"/>
      <point x="419.42" y="215.26" type="curve" smooth="yes"/>
      <point x="346.17999999999995" y="215.26"/>
      <point x="297.7" y="253.05999999999997"/>
      <point x="297.7" y="309.40000000000003" type="curve" smooth="yes"/>
      <point x="297.7" y="409.92"/>
      <point x="362.41999999999996" y="481.76"/>
      <point x="458.80000000000007" y="481.76" type="curve" smooth="yes"/>
      <point x="498.79999999999995" y="481.76"/>
      <point x="533.5799999999999" y="476.70000000000005"/>
      <point x="571.64" y="466.2" type="curve"/>
      <point x="583.74" y="507.92" type="line"/>
      <point x="546.4" y="519.1"/>
      <point x="505.68" y="525.24"/>
      <point x="461.18" y="525.24" type="curve" smooth="yes"/>
      <point x="336.20000000000005" y="525.24"/>
      <point x="248.64" y="442.22"/>
      <point x="248.64" y="308.38000000000005" type="curve" smooth="yes"/>
      <point x="248.64" y="222.82"/>
      <point x="309.84" y="172.55999999999997"/>
    </contour>
    <contour>
      <point x="392.23999999999995" y="24.419999999999998" type="curve" smooth="yes"/>
      <point x="222.95999999999998" y="24.419999999999998"/>
      <point x="107.42" y="111.24000000000002"/>
      <point x="107.42" y="294.66" type="curve" smooth="yes"/>
      <point x="107.42" y="519.8"/>
      <point x="223.6" y="675.68"/>
      <point x="445.84000000000003" y="675.68" type="curve" smooth="yes"/>
      <point x="614.8199999999999" y="675.68"/>
      <point x="733.1999999999999" y="588.58"/>
      <point x="733.1999999999999" y="404.22" type="curve" smooth="yes"/>
      <point x="733.1999999999999" y="178.64000000000004"/>
      <point x="614.92" y="24.419999999999998"/>
    </contour>
  </outline>
</glyph>
<glyph name="ordfeminine" format="2">
  <advance width="446.15999999999997"/>
  <unicode hex="00AA"/>
  <outline>
    <contour>
      <point x="47.78" y="264.74" type="line"/>
      <point x="382.69999999999993" y="264.74" type="line"/>
      <point x="388.81999999999994" y="302.72" type="line"/>
      <point x="53.9" y="302.72" type="line"/>
    </contour>
    <component base="a.superior" xOffset="14.08"/>
  </outline>
</glyph>
<glyph name="logicalnot" format="2">
  <advance width="495.6"/>
  <unicode hex="00AC"/>
  <outline>
    <contour>
      <point x="70.44" y="364.84000000000003" type="line"/>
      <point x="401.70000000000005" y="364.84000000000003" type="line"/>
      <point x="372.04" y="173.62" type="line"/>
      <point x="422.82" y="173.62" type="line"/>
      <point x="461.14" y="416.94000000000005" type="line"/>
      <point x="79.10000000000001" y="416.94000000000005" type="line"/>
    </contour>
  </outline>
</glyph>
<glyph name="registered" format="2">
  <advance width="761.1999999999999"/>
  <unicode hex="00AE"/>
  <outline>
    <contour>
      <point x="392.5199999999999" y="210.44000000000003" type="curve" smooth="yes"/>
      <point x="617.1999999999999" y="210.44000000000003"/>
      <point x="748.4" y="377.0"/>
      <point x="748.4" y="621.26" type="curve" smooth="yes"/>
      <point x="748.4" y="793.4599999999999"/>
      <point x="647.1" y="891.94"/>
      <point x="455.11999999999995" y="891.94" type="curve" smooth="yes"/>
      <point x="230.44" y="891.94"/>
      <point x="100.52" y="724.8800000000001"/>
      <point x="100.52" y="481.12000000000006" type="curve" smooth="yes"/>
      <point x="100.52" y="309.20000000000005"/>
      <point x="200.26" y="210.44000000000003"/>
    </contour>
    <contour>
      <point x="394.99999999999994" y="242.57999999999998" type="curve" smooth="yes"/>
      <point x="221.72" y="242.57999999999998"/>
      <point x="134.72" y="330.3"/>
      <point x="134.72" y="481.6" type="curve" smooth="yes"/>
      <point x="134.72" y="708.06"/>
      <point x="250.4" y="859.5799999999999"/>
      <point x="452.91999999999996" y="859.5799999999999" type="curve" smooth="yes"/>
      <point x="626.1999999999999" y="859.5799999999999"/>
      <point x="714.2" y="772.0799999999999"/>
      <point x="714.2" y="620.28" type="curve" smooth="yes"/>
      <point x="714.2" y="393.82"/>
      <point x="597.24" y="242.57999999999998"/>
    </contour>
    <contour>
      <point x="268.47999999999996" y="397.14" type="line"/>
      <point x="310.4599999999999" y="397.14" type="line"/>
      <point x="331.43999999999994" y="525.54" type="line"/>
      <point x="363.5599999999999" y="524.44"/>
      <point x="388.56" y="523.06"/>
      <point x="432.76000000000005" y="523.9999999999999" type="curve"/>
      <point x="462.0" y="532.02" type="line"/>
      <point x="539.3599999999998" y="537.6600000000001"/>
      <point x="577.3999999999999" y="569.1400000000001"/>
      <point x="577.3999999999999" y="636.9" type="curve" smooth="yes"/>
      <point x="577.3999999999999" y="695.9"/>
      <point x="535.8399999999999" y="717.38"/>
      <point x="436.94" y="717.38" type="curve" smooth="yes"/>
      <point x="399.48" y="717.38"/>
      <point x="367.84" y="716.82"/>
      <point x="318.73999999999995" y="713.04" type="curve"/>
    </contour>
    <contour>
      <point x="417.87999999999994" y="556.34" type="curve" smooth="yes"/>
      <point x="391.23999999999995" y="556.34"/>
      <point x="369.74" y="557.2800000000001"/>
      <point x="336.78000000000003" y="558.0000000000001" type="curve"/>
      <point x="355.26" y="678.38" type="line"/>
      <point x="391.1199999999999" y="681.26"/>
      <point x="400.09999999999997" y="681.76"/>
      <point x="434.54" y="681.76" type="curve" smooth="yes"/>
      <point x="506.41999999999996" y="681.76"/>
      <point x="534.0799999999999" y="669.1199999999999"/>
      <point x="534.0799999999999" y="630.8000000000001" type="curve" smooth="yes"/>
      <point x="534.0799999999999" y="577.68"/>
      <point x="507.8399999999999" y="556.34"/>
    </contour>
    <contour>
      <point x="570.66" y="394.9" type="curve" smooth="yes"/>
      <point x="572.4599999999999" y="394.9"/>
      <point x="576.42" y="395.02"/>
      <point x="579.5600000000001" y="395.7" type="curve"/>
      <point x="585.0199999999999" y="435.63999999999993" type="line"/>
      <point x="582.9599999999999" y="435.26"/>
      <point x="580.9599999999999" y="435.26"/>
      <point x="579.6200000000001" y="435.26" type="curve" smooth="yes"/>
      <point x="551.72" y="435.26"/>
      <point x="505.84" y="474.88"/>
      <point x="469.03999999999996" y="541.5400000000001" type="curve"/>
      <point x="420.44" y="531.56" type="line"/>
      <point x="470.0999999999999" y="442.7"/>
      <point x="524.4199999999998" y="394.9"/>
    </contour>
  </outline>
</glyph>
<glyph name="degree" format="2">
  <advance width="271.2"/>
  <unicode hex="00B0"/>
  <outline>
    <contour>
      <point x="169.60000000000002" y="481.71999999999997" type="curve" smooth="yes"/>
      <point x="238.62" y="481.71999999999997"/>
      <point x="293.24" y="544.66"/>
      <point x="293.24" y="626.18" type="curve" smooth="yes"/>
      <point x="293.24" y="680.1199999999999"/>
      <point x="262.7" y="724.12"/>
      <point x="205.06" y="724.12" type="curve" smooth="yes"/>
      <point x="136.32" y="724.12"/>
      <point x="81.64" y="657.92"/>
      <point x="81.64" y="577.52" type="curve" smooth="yes"/>
      <point x="81.64" y="524.52"/>
      <point x="111.96" y="481.71999999999997"/>
    </contour>
    <contour>
      <point x="175.79999999999998" y="527.68" type="curve" smooth="yes"/>
      <point x="144.28" y="527.68"/>
      <point x="125.78" y="552.52"/>
      <point x="125.78" y="585.68" type="curve" smooth="yes"/>
      <point x="125.78" y="636.9"/>
      <point x="158.68" y="677.92"/>
      <point x="199.02" y="677.92" type="curve" smooth="yes"/>
      <point x="232.14" y="677.92"/>
      <point x="249.52" y="652.18"/>
      <point x="249.52" y="618.38" type="curve" smooth="yes"/>
      <point x="249.52" y="568.8000000000001"/>
      <point x="215.85999999999999" y="527.68"/>
    </contour>
  </outline>
</glyph>
<glyph name="plusminus" format="2">
  <advance width="496.35999999999996"/>
  <unicode hex="00B1"/>
  <outline>
    <contour>
      <point x="405.97999999999996" y="59.06" type="line"/>
      <point x="414.64000000000004" y="112.0" type="line"/>
      <point x="250.14" y="112.0" type="line"/>
      <point x="279.14" y="296.91999999999996" type="line"/>
      <point x="443.4" y="296.91999999999996" type="line"/>
      <point x="452.05999999999995" y="349.86" type="line"/>
      <point x="287.79999999999995" y="349.86" type="line"/>
      <point x="317.84000000000003" y="533.7" type="line"/>
      <point x="262.5" y="533.7" type="line"/>
      <point x="232.42000000000002" y="349.86" type="line"/>
      <point x="68.1" y="349.86" type="line"/>
      <point x="59.44" y="296.91999999999996" type="line"/>
      <point x="223.79999999999998" y="296.91999999999996" type="line"/>
      <point x="194.51999999999998" y="112.0" type="line"/>
      <point x="30.68" y="112.0" type="line"/>
      <point x="22.019999999999996" y="59.06" type="line"/>
    </contour>
  </outline>
</glyph>
<glyph name="uni00B2" format="2">
  <advance width="483.79999999999995"/>
  <unicode hex="00B2"/>
  <outline>
    <contour>
      <point x="76.1" y="369.18" type="line"/>
      <point x="437.86" y="369.18" type="line"/>
      <point x="442.0799999999999" y="403.38" type="line"/>
      <point x="160.56" y="403.38" type="line"/>
      <point x="296.28" y="492.12"/>
      <point x="421.76000000000005" y="563.76"/>
      <point x="421.76000000000005" y="675.42" type="curve" smooth="yes"/>
      <point x="421.76000000000005" y="739.68"/>
      <point x="372.44" y="771.48"/>
      <point x="297.78" y="771.48" type="curve" smooth="yes"/>
      <point x="247.3" y="771.48"/>
      <point x="186.94" y="755.54"/>
      <point x="144.39999999999998" y="733.32" type="curve"/>
      <point x="155.66" y="698.96" type="line"/>
      <point x="195.86" y="720.68"/>
      <point x="241.85999999999996" y="733.1800000000001"/>
      <point x="283.9" y="733.1800000000001" type="curve" smooth="yes"/>
      <point x="338.7799999999999" y="733.1800000000001"/>
      <point x="369.94" y="708.76"/>
      <point x="369.94" y="663.98" type="curve" smooth="yes"/>
      <point x="369.5" y="572.6"/>
      <point x="254.45999999999998" y="501.0"/>
      <point x="78.75999999999999" y="397.42" type="curve"/>
    </contour>
  </outline>
</glyph>
<glyph name="uni00B3" format="2">
  <advance width="456.2"/>
  <unicode hex="00B3"/>
  <outline>
    <contour>
      <point x="43.199999999999996" y="407.7" type="line"/>
      <point x="92.2" y="376.90000000000003"/>
      <point x="155.0" y="363.8"/>
      <point x="232.39999999999998" y="363.8" type="curve" smooth="yes"/>
      <point x="365.4" y="363.8"/>
      <point x="446.29999999999995" y="405.69999999999993"/>
      <point x="446.29999999999995" y="490.09999999999997" type="curve" smooth="yes"/>
      <point x="446.29999999999995" y="536.0"/>
      <point x="414.79999999999995" y="569.5"/>
      <point x="362.59999999999997" y="579.4000000000001" type="curve"/>
      <point x="413.0" y="593.7"/>
      <point x="448.8999999999999" y="625.5999999999999"/>
      <point x="448.8999999999999" y="673.9" type="curve" smooth="yes"/>
      <point x="448.8999999999999" y="733.0999999999999"/>
      <point x="389.8" y="771.6"/>
      <point x="282.7" y="771.6" type="curve" smooth="yes"/>
      <point x="232.4" y="771.6"/>
      <point x="170.4" y="762.6999999999999"/>
      <point x="123.3" y="747.7" type="curve"/>
      <point x="129.1" y="714.7" type="line"/>
      <point x="175.8" y="727.9"/>
      <point x="231.69999999999996" y="735.3000000000001"/>
      <point x="273.8" y="735.3000000000001" type="curve" smooth="yes"/>
      <point x="353.59999999999997" y="735.3000000000001"/>
      <point x="401.59999999999997" y="710.1"/>
      <point x="401.59999999999997" y="665.7" type="curve" smooth="yes"/>
      <point x="401.59999999999997" y="618.0000000000001"/>
      <point x="348.59999999999997" y="592.2"/>
      <point x="283.99999999999994" y="592.2" type="curve" smooth="yes"/>
      <point x="177.0" y="592.2" type="line"/>
      <point x="172.00000000000003" y="561.0" type="line"/>
      <point x="272.29999999999995" y="561.0" type="line" smooth="yes"/>
      <point x="359.1" y="561.0"/>
      <point x="399.9" y="537.3"/>
      <point x="399.9" y="487.29999999999995" type="curve" smooth="yes"/>
      <point x="399.9" y="429.2"/>
      <point x="340.59999999999997" y="398.8"/>
      <point x="230.19999999999996" y="398.8" type="curve" smooth="yes"/>
      <point x="158.7" y="398.8"/>
      <point x="105.3" y="412.3"/>
      <point x="61.8" y="439.20000000000005" type="curve"/>
    </contour>
  </outline>
</glyph>
<glyph name="uni00B5" format="2">
  <advance width="658.12"/>
  <unicode hex="00B5"/>
  <outline>
    <contour>
      <point x="14.719999999999999" y="-210.0" type="line"/>
      <point x="78.9" y="-210.0" type="line"/>
      <point x="120.4" y="54.44" type="line"/>
      <point x="133.54" y="13.899999999999999"/>
      <point x="170.2" y="-10.0"/>
      <point x="230.84" y="-10.0" type="curve" smooth="yes"/>
      <point x="316.17999999999995" y="-10.0"/>
      <point x="385.9" y="17.08"/>
      <point x="470.7" y="66.19999999999999" type="curve"/>
      <point x="475.58000000000004" y="13.700000000000001"/>
      <point x="503.72" y="-10.0"/>
      <point x="548.8599999999999" y="-10.0" type="curve" smooth="yes"/>
      <point x="564.78" y="-10.0"/>
      <point x="590.62" y="-4.5200000000000005"/>
      <point x="608.7199999999999" y="6.08" type="curve"/>
      <point x="606.88" y="49.099999999999994" type="line"/>
      <point x="594.16" y="44.480000000000004"/>
      <point x="580.68" y="42.080000000000005"/>
      <point x="574.54" y="42.080000000000005" type="curve" smooth="yes"/>
      <point x="547.3599999999999" y="42.080000000000005"/>
      <point x="533.06" y="56.26"/>
      <point x="533.06" y="94.42" type="curve" smooth="yes"/>
      <point x="533.06" y="105.76"/>
      <point x="534.54" y="129.2"/>
      <point x="599.4799999999999" y="534.0" type="curve"/>
      <point x="534.2799999999999" y="534.0" type="line"/>
      <point x="469.4" y="109.16000000000001" type="line"/>
      <point x="388.91999999999996" y="66.86"/>
      <point x="323.36" y="42.36"/>
      <point x="244.52" y="42.36" type="curve" smooth="yes"/>
      <point x="171.55999999999997" y="42.36"/>
      <point x="135.66" y="77.10000000000001"/>
      <point x="135.78" y="134.29999999999998" type="curve" smooth="yes"/>
      <point x="137.16" y="157.34"/>
      <point x="145.16" y="218.92"/>
      <point x="195.54" y="534.0" type="curve"/>
      <point x="130.84" y="534.0" type="line"/>
    </contour>
  </outline>
</glyph>
<glyph name="paragraph" format="2">
  <advance width="640.76"/>
  <unicode hex="00B6"/>
  <outline>
    <contour>
      <point x="418.14" y="-210.0" type="line"/>
      <point x="468.96000000000004" y="-210.0" type="line"/>
      <point x="619.28" y="740.0" type="line"/>
      <point x="568.46" y="740.0" type="line"/>
    </contour>
    <contour>
      <point x="262.40000000000003" y="230.84000000000003" type="line"/>
      <point x="183.24" y="241.02"/>
      <point x="128.04" y="301.78"/>
      <point x="128.04" y="394.17999999999995" type="curve" smooth="yes"/>
      <point x="128.04" y="553.04"/>
      <point x="216.24" y="685.62"/>
      <point x="395.52" y="688.86" type="curve"/>
      <point x="253.84000000000003" y="-210.0" type="line"/>
      <point x="304.65999999999997" y="-210.0" type="line"/>
      <point x="454.97999999999996" y="740.0" type="line"/>
      <point x="419.48" y="740.0" type="line" smooth="yes"/>
      <point x="197.1" y="740.0"/>
      <point x="72.93999999999998" y="601.26"/>
      <point x="72.93999999999998" y="390.82000000000005" type="curve" smooth="yes"/>
      <point x="72.93999999999998" y="275.98"/>
      <point x="141.44" y="201.74"/>
      <point x="250.1" y="189.07999999999998" type="curve"/>
    </contour>
  </outline>
</glyph>
<glyph name="periodcentered" format="2">
  <advance width="207.49999999999997"/>
  <unicode hex="00B7"/>
  <outline>
    <contour>
      <point x="66.58" y="284.66" type="curve" smooth="yes"/>
      <point x="65.4" y="264.56000000000006"/>
      <point x="75.25999999999999" y="256.8"/>
      <point x="99.62" y="256.8" type="curve" smooth="yes"/>
      <point x="132.14" y="256.8"/>
      <point x="144.14000000000001" y="269.2"/>
      <point x="146.16" y="302.53999999999996" type="curve" smooth="yes"/>
      <point x="147.34" y="322.65999999999997"/>
      <point x="137.46" y="330.59999999999997"/>
      <point x="113.3" y="330.59999999999997" type="curve" smooth="yes"/>
      <point x="81.38" y="330.59999999999997"/>
      <point x="68.60000000000001" y="317.4"/>
    </contour>
  </outline>
</glyph>
<glyph name="uni00B9" format="2">
  <advance width="425.28"/>
  <unicode hex="00B9"/>
  <outline>
    <contour>
      <point x="45.64" y="370.0" type="line"/>
      <point x="420.72" y="370.0" type="line"/>
      <point x="426.14" y="404.6" type="line"/>
      <point x="278.28" y="404.6" type="line"/>
      <point x="337.09999999999997" y="767.9200000000001" type="line"/>
      <point x="309.28000000000003" y="767.9200000000001" type="line"/>
      <point x="88.54" y="670.8599999999999" type="line"/>
      <point x="94.66000000000001" y="634.18" type="line"/>
      <point x="280.05999999999995" y="715.52" type="line"/>
      <point x="228.66" y="404.6" type="line"/>
      <point x="50.62" y="404.6" type="line"/>
    </contour>
  </outline>
</glyph>
<glyph name="ordmasculine" format="2">
  <advance width="417.42"/>
  <unicode hex="00BA"/>
  <outline>
    <contour>
      <point x="41.58" y="264.74" type="line"/>
      <point x="367.65999999999997" y="264.74" type="line"/>
      <point x="373.53999999999996" y="302.72" type="line"/>
      <point x="47.46" y="302.72" type="line"/>
    </contour>
    <component base="o.superior" xOffset="10.4"/>
  </outline>
</glyph>
<glyph name="AE" format="2">
  <advance width="1130.2199999999998"/>
  <unicode hex="00C6"/>
  <anchor x="526.5664799999998" y="0.0" name="bottom"/>
  <anchor x="639.02" y="700.0" name="top"/>
  <outline>
    <contour>
      <point x="477.97999999999996" y="0.0" type="line"/>
      <point x="1044.0600000000002" y="0.0" type="line"/>
      <point x="1053.26" y="56.99999999999999" type="line"/>
      <point x="551.98" y="56.99999999999999" type="line"/>
      <point x="594.64" y="326.86000000000007" type="line"/>
      <point x="1036.2800000000002" y="326.86000000000007" type="line"/>
      <point x="1045.48" y="383.06" type="line"/>
      <point x="603.6399999999999" y="383.06" type="line"/>
      <point x="644.8" y="643.0000000000001" type="line"/>
      <point x="1124.52" y="643.0000000000001" type="line"/>
      <point x="1134.1000000000001" y="700.0" type="line"/>
      <point x="550.66" y="700.0" type="line"/>
      <point x="-39.46" y="0.0" type="line"/>
      <point x="37.66" y="0.0" type="line"/>
      <point x="293.41999999999996" y="300.26" type="line"/>
      <point x="525.2400000000001" y="300.26" type="line"/>
    </contour>
    <contour>
      <point x="332.06000000000006" y="351.26000000000005" type="line"/>
      <point x="580.0200000000001" y="648.46" type="line"/>
      <point x="533.2399999999999" y="351.26000000000005" type="line"/>
    </contour>
  </outline>
</glyph>
<glyph name="multiply" format="2">
  <advance width="474.4599999999999"/>
  <unicode hex="00D7"/>
  <outline>
    <contour>
      <point x="65.64" y="81.4" type="line"/>
      <point x="236.0" y="257.13999999999993" type="line"/>
      <point x="348.02000000000004" y="82.92" type="line"/>
      <point x="386.91999999999996" y="122.12" type="line"/>
      <point x="276.50000000000006" y="294.78000000000003" type="line"/>
      <point x="447.68" y="472.02" type="line"/>
      <point x="417.08" y="510.24" type="line"/>
      <point x="246.01999999999998" y="334.14" type="line"/>
      <point x="130.5" y="511.44" type="line"/>
      <point x="91.89999999999999" y="473.53999999999996" type="line"/>
      <point x="205.53999999999996" y="296.38" type="line"/>
      <point x="34.94" y="118.92" type="line"/>
    </contour>
  </outline>
</glyph>
<glyph name="Oslash" format="2">
  <advance width="886.2"/>
  <unicode hex="00D8"/>
  <anchor x="492.7999999999999" y="700.0" name="top"/>
  <outline>
    <contour>
      <point x="913.4" y="710.0" type="line"/>
      <point x="842.0" y="710.0" type="line"/>
      <point x="724.4999999999999" y="610.0000000000001" type="line"/>
      <point x="723.9999999999999" y="609.8000000000001" type="line"/>
      <point x="150.5" y="126.60000000000001" type="line"/>
      <point x="149.79999999999998" y="126.4" type="line"/>
      <point x="-6.9" y="-8.0" type="line"/>
      <point x="64.2" y="-8.0" type="line"/>
      <point x="181.29999999999998" y="91.3" type="line"/>
      <point x="181.8" y="91.50000000000003" type="line"/>
      <point x="760.6999999999999" y="578.9" type="line"/>
      <point x="761.4000000000001" y="579.1" type="line"/>
    </contour>
    <contour>
      <point x="426.99999999999994" y="-9.6" type="curve" smooth="yes"/>
      <point x="686.8" y="-9.6"/>
      <point x="838.1999999999999" y="149.70000000000002"/>
      <point x="838.1999999999999" y="408.9" type="curve" smooth="yes"/>
      <point x="838.1999999999999" y="603.7"/>
      <point x="720.0000000000001" y="709.8000000000001"/>
      <point x="479.2" y="709.8000000000001" type="curve" smooth="yes"/>
      <point x="219.39999999999998" y="709.8000000000001"/>
      <point x="68.0" y="550.7"/>
      <point x="68.0" y="291.1" type="curve" smooth="yes"/>
      <point x="68.0" y="96.3"/>
      <point x="186.2" y="-9.6"/>
    </contour>
    <contour>
      <point x="430.09999999999997" y="43.099999999999994" type="curve" smooth="yes"/>
      <point x="234.69999999999996" y="43.099999999999994"/>
      <point x="135.79999999999998" y="128.29999999999998"/>
      <point x="135.79999999999998" y="291.4" type="curve" smooth="yes"/>
      <point x="135.79999999999998" y="521.1999999999999"/>
      <point x="261.40000000000003" y="657.1"/>
      <point x="476.90000000000003" y="657.1" type="curve" smooth="yes"/>
      <point x="671.6999999999999" y="657.1"/>
      <point x="770.3999999999999" y="571.9"/>
      <point x="770.3999999999999" y="408.79999999999995" type="curve" smooth="yes"/>
      <point x="770.3999999999999" y="183.0"/>
      <point x="645.1999999999999" y="43.099999999999994"/>
    </contour>
  </outline>
</glyph>
<glyph name="Thorn" format="2">
  <advance width="776.3"/>
  <unicode hex="00DE"/>
  <outline>
    <contour>
      <point x="55.0" y="0.0" type="line"/>
      <point x="121.9" y="0.0" type="line"/>
      <point x="147.29999999999998" y="157.8" type="line"/>
      <point x="242.39999999999998" y="154.6"/>
      <point x="296.0" y="154.0"/>
      <point x="381.29999999999995" y="154.0" type="curve" smooth="yes"/>
      <point x="635.2" y="154.0"/>
      <point x="751.4000000000001" y="237.1"/>
      <point x="751.4000000000001" y="430.4" type="curve" smooth="yes"/>
      <point x="751.4000000000001" y="559.6999999999999"/>
      <point x="662.0" y="624.2"/>
      <point x="432.40000000000003" y="624.2" type="curve" smooth="yes"/>
      <point x="392.8" y="624.2"/>
      <point x="338.2" y="622.8"/>
      <point x="219.50000000000003" y="617.5" type="curve"/>
      <point x="233.0" y="700.0" type="line"/>
      <point x="166.1" y="700.0" type="line"/>
    </contour>
    <contour>
      <point x="377.5999999999999" y="206.89999999999998" type="curve" smooth="yes"/>
      <point x="290.4" y="206.89999999999998"/>
      <point x="243.39999999999998" y="207.8"/>
      <point x="156.09999999999997" y="211.7" type="curve"/>
      <point x="211.6" y="563.8" type="line"/>
      <point x="335.40000000000003" y="569.7"/>
      <point x="380.4" y="571.0"/>
      <point x="428.0999999999999" y="571.0" type="curve" smooth="yes"/>
      <point x="614.7" y="571.0"/>
      <point x="682.9" y="523.8000000000001"/>
      <point x="682.9" y="423.5" type="curve" smooth="yes"/>
      <point x="682.9" y="272.2"/>
      <point x="594.4" y="206.89999999999998"/>
    </contour>
  </outline>
</glyph>
<glyph name="germandbls" format="2">
  <advance width="727.7"/>
  <unicode hex="00DF"/>
  <outline>
    <contour>
      <point x="68.9" y="-46.8" type="line" smooth="yes"/>
      <point x="56.699999999999996" y="-122.80000000000001"/>
      <point x="32.699999999999996" y="-167.7"/>
      <point x="-20.10000000000001" y="-167.7" type="curve" smooth="yes"/>
      <point x="-34.1" y="-167.7"/>
      <point x="-51.900000000000006" y="-165.70000000000002"/>
      <point x="-72.50000000000001" y="-157.9" type="curve"/>
      <point x="-85.19999999999999" y="-206.20000000000002" type="line"/>
      <point x="-62.900000000000006" y="-216.5"/>
      <point x="-29.00000000000001" y="-220.0"/>
      <point x="-6.900000000000015" y="-220.0" type="curve" smooth="yes"/>
      <point x="72.6" y="-220.0"/>
      <point x="114.29999999999998" y="-161.3"/>
      <point x="130.70000000000002" y="-56.8" type="curve" smooth="yes"/>
      <point x="219.0" y="498.20000000000005" type="line" smooth="yes"/>
      <point x="242.0" y="639.7"/>
      <point x="308.19999999999993" y="701.2"/>
      <point x="453.4" y="701.2" type="curve" smooth="yes"/>
      <point x="549.9000000000001" y="701.2"/>
      <point x="599.4999999999999" y="674.6999999999999"/>
      <point x="599.4999999999999" y="625.3" type="curve" smooth="yes"/>
      <point x="599.4999999999999" y="579.9999999999999"/>
      <point x="570.0999999999999" y="554.6000000000001"/>
      <point x="462.79999999999995" y="529.4000000000001" type="curve" smooth="yes"/>
      <point x="342.5" y="500.59999999999997"/>
      <point x="291.90000000000003" y="461.4"/>
      <point x="291.90000000000003" y="381.0" type="curve" smooth="yes"/>
      <point x="291.90000000000003" y="305.40000000000003"/>
      <point x="345.29999999999995" y="270.70000000000005"/>
      <point x="485.40000000000003" y="241.20000000000002" type="curve" smooth="yes"/>
      <point x="599.1999999999999" y="216.39999999999998"/>
      <point x="642.2" y="192.89999999999998"/>
      <point x="642.2" y="140.6" type="curve" smooth="yes"/>
      <point x="642.2" y="75.50000000000001"/>
      <point x="567.2" y="38.60000000000001"/>
      <point x="447.2" y="38.60000000000001" type="curve" smooth="yes"/>
      <point x="381.2" y="38.60000000000001"/>
      <point x="293.69999999999993" y="54.800000000000004"/>
      <point x="229.79999999999998" y="78.2" type="curve"/>
      <point x="213.6" y="30.599999999999998" type="line"/>
      <point x="281.4" y="5.599999999999999"/>
      <point x="368.7" y="-10.499999999999998"/>
      <point x="440.70000000000005" y="-10.499999999999998" type="curve" smooth="yes"/>
      <point x="610.0999999999999" y="-10.499999999999998"/>
      <point x="702.7" y="43.4"/>
      <point x="702.7" y="147.70000000000002" type="curve" smooth="yes"/>
      <point x="702.7" y="218.10000000000002"/>
      <point x="649.4000000000001" y="259.9"/>
      <point x="518.9999999999999" y="287.99999999999994" type="curve" smooth="yes"/>
      <point x="390.6999999999999" y="315.19999999999993"/>
      <point x="350.29999999999995" y="335.80000000000007"/>
      <point x="350.29999999999995" y="387.80000000000007" type="curve" smooth="yes"/>
      <point x="350.29999999999995" y="439.6"/>
      <point x="390.20000000000005" y="462.59999999999997"/>
      <point x="499.90000000000003" y="489.7" type="curve" smooth="yes"/>
      <point x="618.9000000000001" y="519.4"/>
      <point x="656.4999999999999" y="557.6999999999999"/>
      <point x="656.4999999999999" y="630.1000000000001" type="curve" smooth="yes"/>
      <point x="656.4999999999999" y="707.8"/>
      <point x="588.6" y="750.0"/>
      <point x="452.4" y="750.0" type="curve" smooth="yes"/>
      <point x="272.9" y="750.0"/>
      <point x="186.4" y="677.7"/>
      <point x="158.1" y="509.8" type="curve" smooth="yes"/>
      <point x="154.8" y="486.8" type="line"/>
      <point x="40.1" y="477.20000000000005" type="line"/>
      <point x="32.3" y="436.6000000000001" type="line"/>
      <point x="145.20000000000002" y="436.6000000000001" type="line"/>
    </contour>
  </outline>
</glyph>
<glyph name="ae" format="2">
  <advance width="1062.7"/>
  <unicode hex="00E6"/>
  <anchor x="489.69999999999993" y="0.0" name="bottom"/>
  <anchor x="563.3" y="534.0" name="top"/>
  <outline>
    <contour>
      <point x="244.09999999999997" y="-10.0" type="curve" smooth="yes"/>
      <point x="323.5" y="-10.0"/>
      <point x="403.19999999999993" y="19.9"/>
      <point x="457.79999999999995" y="55.49999999999999" type="curve"/>
      <point x="448.4" y="-2.0999999999999996" type="line"/>
      <point x="507.29999999999995" y="-2.0999999999999996" type="line"/>
      <point x="526.4" y="118.29999999999998" type="line"/>
      <point x="550.3" y="37.4"/>
      <point x="623.4000000000001" y="-9.799999999999999"/>
      <point x="741.9999999999999" y="-9.799999999999999" type="curve" smooth="yes"/>
      <point x="821.4" y="-9.799999999999999"/>
      <point x="918.2999999999998" y="8.7"/>
      <point x="988.0" y="36.599999999999994" type="curve"/>
      <point x="978.8999999999999" y="84.80000000000001" type="line"/>
      <point x="903.2999999999998" y="56.8"/>
      <point x="815.6999999999999" y="40.1"/>
      <point x="747.5" y="40.1" type="curve" smooth="yes"/>
      <point x="620.8" y="40.1"/>
      <point x="544.9" y="102.39999999999999"/>
      <point x="544.9" y="205.9" type="curve" smooth="yes"/>
      <point x="544.9" y="373.3"/>
      <point x="656.6999999999999" y="495.9"/>
      <point x="825.0" y="495.9" type="curve" smooth="yes"/>
      <point x="921.3" y="495.9"/>
      <point x="971.6999999999998" y="465.4"/>
      <point x="971.6999999999998" y="409.29999999999995" type="curve" smooth="yes"/>
      <point x="971.6999999999998" y="337.3"/>
      <point x="880.7999999999998" y="292.0"/>
      <point x="722.5999999999998" y="281.2" type="curve" smooth="yes"/>
      <point x="656.8" y="276.1"/>
      <point x="589.2" y="279.09999999999997"/>
      <point x="534.5" y="287.8" type="curve"/>
      <point x="532.9" y="246.2" type="line"/>
      <point x="589.1" y="236.5"/>
      <point x="664.0" y="232.9"/>
      <point x="736.1000000000001" y="238.4" type="curve" smooth="yes"/>
      <point x="930.8" y="250.40000000000003"/>
      <point x="1037.4" y="316.0"/>
      <point x="1037.4" y="416.5" type="curve" smooth="yes"/>
      <point x="1037.4" y="496.49999999999994"/>
      <point x="965.9999999999999" y="544.0"/>
      <point x="844.5000000000001" y="544.0" type="curve" smooth="yes"/>
      <point x="722.5999999999999" y="544.0"/>
      <point x="623.2999999999998" y="493.59999999999997"/>
      <point x="572.4999999999999" y="409.4" type="curve"/>
      <point x="592.3999999999999" y="537.0" type="line"/>
      <point x="533.4999999999999" y="537.0" type="line"/>
      <point x="527.4" y="499.2" type="line"/>
      <point x="482.69999999999993" y="528.5"/>
      <point x="425.29999999999995" y="544.0"/>
      <point x="366.3" y="544.0" type="curve" smooth="yes"/>
      <point x="182.4" y="544.0"/>
      <point x="38.699999999999996" y="410.09999999999997"/>
      <point x="38.699999999999996" y="191.89999999999998" type="curve" smooth="yes"/>
      <point x="38.699999999999996" y="61.4"/>
      <point x="115.19999999999999" y="-10.0"/>
    </contour>
    <contour>
      <point x="271.2" y="40.900000000000006" type="curve" smooth="yes"/>
      <point x="168.49999999999997" y="40.900000000000006"/>
      <point x="104.4" y="96.0"/>
      <point x="104.4" y="199.4" type="curve" smooth="yes"/>
      <point x="104.4" y="393.9"/>
      <point x="241.59999999999997" y="496.7"/>
      <point x="374.99999999999994" y="496.7" type="curve" smooth="yes"/>
      <point x="429.8" y="496.7"/>
      <point x="477.29999999999995" y="485.3"/>
      <point x="521.1" y="456.40000000000003" type="curve"/>
      <point x="465.0999999999999" y="101.99999999999999" type="line"/>
      <point x="410.19999999999993" y="65.6"/>
      <point x="336.0" y="40.900000000000006"/>
    </contour>
  </outline>
</glyph>
<glyph name="eth" format="2">
  <advance width="705.3"/>
  <unicode hex="00F0"/>
  <outline>
    <contour>
      <point x="618.0" y="406.6" type="curve"/>
      <point x="626.3" y="452.0" type="line"/>
      <point x="568.3999999999999" y="505.40000000000003"/>
      <point x="471.29999999999995" y="532.5"/>
      <point x="369.4" y="532.5" type="curve" smooth="yes"/>
      <point x="175.7" y="532.5"/>
      <point x="45.599999999999994" y="409.6"/>
      <point x="45.599999999999994" y="216.09999999999997" type="curve" smooth="yes"/>
      <point x="45.599999999999994" y="51.80000000000001"/>
      <point x="157.2" y="-9.600000000000001"/>
      <point x="309.40000000000003" y="-9.600000000000001" type="curve" smooth="yes"/>
      <point x="500.4999999999999" y="-9.600000000000001"/>
      <point x="623.3000000000001" y="89.5"/>
      <point x="660.1999999999998" y="309.59999999999997" type="curve" smooth="yes"/>
      <point x="668.0999999999999" y="353.7"/>
      <point x="671.1" y="390.0"/>
      <point x="671.1" y="425.30000000000007" type="curve" smooth="yes"/>
      <point x="671.1" y="622.8000000000001"/>
      <point x="527.4" y="720.8"/>
      <point x="292.79999999999995" y="720.8" type="curve" smooth="yes"/>
      <point x="230.10000000000002" y="720.8"/>
      <point x="182.1" y="713.6"/>
      <point x="125.79999999999998" y="703.2" type="curve"/>
      <point x="125.39999999999998" y="660.3000000000001" type="line"/>
      <point x="178.3" y="669.2"/>
      <point x="217.29999999999998" y="676.5"/>
      <point x="285.99999999999994" y="676.5" type="curve" smooth="yes"/>
      <point x="497.0" y="676.5"/>
      <point x="605.9" y="592.3"/>
      <point x="605.9" y="433.2" type="curve" smooth="yes"/>
      <point x="605.9" y="396.59999999999997"/>
      <point x="603.0999999999999" y="359.5"/>
      <point x="595.1" y="316.9" type="curve" smooth="yes"/>
      <point x="561.2" y="121.89999999999999"/>
      <point x="468.4" y="38.5"/>
      <point x="315.9" y="38.5" type="curve" smooth="yes"/>
      <point x="194.09999999999997" y="38.5"/>
      <point x="109.39999999999999" y="88.00000000000001"/>
      <point x="109.39999999999999" y="216.59999999999997" type="curve" smooth="yes"/>
      <point x="109.39999999999999" y="381.0"/>
      <point x="221.1" y="486.49999999999994"/>
      <point x="377.7999999999999" y="486.49999999999994" type="curve" smooth="yes"/>
      <point x="476.29999999999995" y="486.49999999999994"/>
      <point x="560.3999999999999" y="459.2"/>
    </contour>
    <contour>
      <point x="240.29999999999998" y="557.3" type="line"/>
      <point x="508.0999999999999" y="652.4000000000001" type="line"/>
      <point x="503.2" y="653.9000000000001" type="line"/>
      <point x="708.8" y="730.1999999999999" type="line"/>
      <point x="618.8000000000001" y="730.1999999999999" type="line"/>
      <point x="464.2" y="673.7" type="line"/>
      <point x="470.2" y="672.6" type="line"/>
      <point x="151.09999999999997" y="557.3" type="line"/>
    </contour>
  </outline>
</glyph>
<glyph name="divide" format="2">
  <advance width="496.46000000000004"/>
  <unicode hex="00F7"/>
  <outline>
    <contour>
      <point x="185.48000000000002" y="91.58000000000001" type="curve" smooth="yes"/>
      <point x="184.48000000000002" y="75.75999999999999"/>
      <point x="193.14000000000001" y="70.17999999999999"/>
      <point x="214.32" y="70.17999999999999" type="curve" smooth="yes"/>
      <point x="242.56" y="70.17999999999999"/>
      <point x="253.37999999999997" y="77.17999999999999"/>
      <point x="255.98" y="111.38" type="curve" smooth="yes"/>
      <point x="256.97999999999996" y="127.38000000000001"/>
      <point x="247.95999999999998" y="132.78000000000003"/>
      <point x="226.95999999999998" y="132.78000000000003" type="curve" smooth="yes"/>
      <point x="199.27999999999997" y="132.78000000000003"/>
      <point x="188.07999999999998" y="124.58"/>
    </contour>
    <contour>
      <point x="248.3" y="480.21999999999997" type="curve" smooth="yes"/>
      <point x="247.3" y="464.8"/>
      <point x="255.56000000000003" y="458.82"/>
      <point x="277.14" y="458.82" type="curve" smooth="yes"/>
      <point x="305.38" y="458.82"/>
      <point x="315.8" y="466.42"/>
      <point x="318.4" y="500.21999999999997" type="curve" smooth="yes"/>
      <point x="319.4" y="516.42"/>
      <point x="310.58" y="521.62"/>
      <point x="289.38" y="521.62" type="curve" smooth="yes"/>
      <point x="261.3" y="521.62"/>
      <point x="250.9" y="513.02"/>
    </contour>
    <contour>
      <point x="55.08" y="268.59999999999997" type="line"/>
      <point x="439.16" y="268.59999999999997" type="line"/>
      <point x="448.58" y="322.99999999999994" type="line"/>
      <point x="64.3" y="322.99999999999994" type="line"/>
    </contour>
  </outline>
</glyph>
<glyph name="oslash" format="2">
  <advance width="660.8999999999999"/>
  <unicode hex="00F8"/>
  <anchor x="361.0" y="534.0" name="top"/>
  <outline>
    <contour>
      <point x="598.9000000000001" y="544.6" type="line"/>
      <point x="522.8999999999999" y="472.59999999999997" type="line"/>
      <point x="522.0" y="473.0" type="line"/>
      <point x="120.69999999999999" y="90.1" type="line"/>
      <point x="119.59999999999998" y="90.7" type="line"/>
      <point x="15.199999999999996" y="-10.0" type="line"/>
      <point x="69.6" y="-10.0" type="line"/>
      <point x="146.6" y="63.8" type="line"/>
      <point x="147.7" y="63.4" type="line"/>
      <point x="549.6999999999999" y="446.2" type="line"/>
      <point x="550.5999999999999" y="445.6" type="line"/>
      <point x="653.3" y="544.6" type="line"/>
    </contour>
    <contour>
      <point x="312.29999999999995" y="-10.0" type="curve" smooth="yes"/>
      <point x="510.9" y="-10.0"/>
      <point x="615.0999999999999" y="128.4"/>
      <point x="614.6999999999998" y="326.5" type="curve" smooth="yes"/>
      <point x="614.2999999999998" y="469.2"/>
      <point x="521.0" y="544.6"/>
      <point x="350.7" y="544.6" type="curve" smooth="yes"/>
      <point x="151.8" y="544.6"/>
      <point x="47.099999999999994" y="401.6"/>
      <point x="47.5" y="207.1" type="curve" smooth="yes"/>
      <point x="47.9" y="64.19999999999999"/>
      <point x="139.5" y="-10.0"/>
    </contour>
    <contour>
      <point x="312.5" y="38.3" type="curve" smooth="yes"/>
      <point x="181.7" y="38.099999999999994"/>
      <point x="112.10000000000001" y="93.0"/>
      <point x="111.9" y="208.9" type="curve" smooth="yes"/>
      <point x="111.50000000000001" y="368.09999999999997"/>
      <point x="193.00000000000003" y="495.9"/>
      <point x="350.0" y="496.3" type="curve" smooth="yes"/>
      <point x="479.2" y="496.5"/>
      <point x="549.6999999999999" y="439.7"/>
      <point x="549.9" y="324.6" type="curve" smooth="yes"/>
      <point x="550.3" y="160.50000000000006"/>
      <point x="469.3999999999999" y="38.699999999999996"/>
    </contour>
  </outline>
</glyph>
<glyph name="thorn" format="2">
  <advance width="649.8"/>
  <unicode hex="00FE"/>
  <outline>
    <contour>
      <point x="13.919999999999998" y="-210.0" type="line"/>
      <point x="78.08" y="-210.0" type="line"/>
      <point x="112.96" y="8.239999999999998" type="line"/>
      <point x="151.56" y="-0.6800000000000015"/>
      <point x="201.01999999999998" y="-9.899999999999999"/>
      <point x="261.24" y="-9.899999999999999" type="curve" smooth="yes"/>
      <point x="473.79999999999995" y="-9.899999999999999"/>
      <point x="609.9599999999999" y="141.29999999999998"/>
      <point x="609.9599999999999" y="346.98" type="curve" smooth="yes"/>
      <point x="609.9599999999999" y="474.36"/>
      <point x="543.52" y="544.0"/>
      <point x="423.37999999999994" y="544.0" type="curve" smooth="yes"/>
      <point x="331.28" y="544.0"/>
      <point x="260.21999999999997" y="507.18"/>
      <point x="183.0" y="456.0" type="curve"/>
      <point x="228.12" y="740.0" type="line"/>
      <point x="164.02" y="740.0" type="line"/>
    </contour>
    <contour>
      <point x="260.81999999999994" y="39.46" type="curve" smooth="yes"/>
      <point x="202.85999999999996" y="39.46"/>
      <point x="155.99999999999997" y="50.260000000000005"/>
      <point x="120.86000000000001" y="59.160000000000004" type="curve"/>
      <point x="175.63999999999996" y="405.6" type="line"/>
      <point x="252.4" y="459.74"/>
      <point x="323.73999999999995" y="489.34"/>
      <point x="393.68" y="489.34" type="curve" smooth="yes"/>
      <point x="490.7" y="489.34"/>
      <point x="544.86" y="436.3"/>
      <point x="544.86" y="332.21999999999997" type="curve" smooth="yes"/>
      <point x="544.86" y="168.0"/>
      <point x="427.3" y="39.46"/>
    </contour>
  </outline>
</glyph>
<glyph name="Dcroat" format="2">
  <advance width="849.8399999999999"/>
  <unicode hex="0110"/>
  <outline>
    <contour>
      <point x="22.26" y="334.78" type="line"/>
      <point x="350.90000000000003" y="334.78" type="line"/>
      <point x="359.69999999999993" y="384.59999999999997" type="line"/>
      <point x="31.7" y="384.59999999999997" type="line"/>
    </contour>
    <component base="D" xOffset="3.8600000000000008"/>
  </outline>
</glyph>
<glyph name="dcroat" format="2">
  <advance width="656.7399999999999"/>
  <unicode hex="0111"/>
  <outline>
    <contour>
      <point x="362.53999999999996" y="613.94" type="line"/>
      <point x="714.8000000000001" y="613.94" type="line"/>
      <point x="721.6" y="651.1999999999999" type="line"/>
      <point x="369.34" y="651.1999999999999" type="line"/>
    </contour>
    <component base="d"/>
  </outline>
</glyph>
<glyph name="Hbar" format="2">
  <advance width="868.82"/>
  <unicode hex="0126"/>
  <outline>
    <contour>
      <point x="62.22" y="498.78000000000003" type="line"/>
      <point x="878.46" y="498.78000000000003" type="line"/>
      <point x="885.84" y="546.34" type="line"/>
      <point x="69.6" y="546.34" type="line"/>
    </contour>
    <component base="H" xOffset="1.2400000000000002"/>
  </outline>
</glyph>
<glyph name="hbar" format="2">
  <advance width="669.8"/>
  <unicode hex="0127"/>
  <outline>
    <contour>
      <point x="48.88000000000001" y="613.94" type="line"/>
      <point x="403.62" y="613.94" type="line"/>
      <point x="410.21999999999997" y="651.1999999999999" type="line"/>
      <point x="55.48" y="651.1999999999999" type="line"/>
    </contour>
    <component base="h" xOffset="-0.39999999999999963"/>
  </outline>
</glyph>
<glyph name="Idotaccent" format="2">
  <advance width="265.08000000000004"/>
  <unicode hex="0130"/>
  <outline>
    <contour>
      <point x="228.73999999999998" y="877.5999999999999" type="curve" smooth="yes"/>
      <point x="195.52" y="877.5999999999999"/>
      <point x="182.18" y="867.0"/>
      <point x="180.9" y="830.5" type="curve" smooth="yes"/>
      <point x="180.66" y="813.36"/>
      <point x="193.08" y="806.34"/>
      <point x="215.24" y="806.34" type="curve" smooth="yes"/>
      <point x="247.4" y="806.34"/>
      <point x="262.21999999999997" y="815.1"/>
      <point x="264.06" y="854.2" type="curve" smooth="yes"/>
      <point x="264.3" y="870.6399999999999"/>
      <point x="253.5" y="877.5999999999999"/>
    </contour>
    <component base="I"/>
  </outline>
</glyph>
<glyph name="dotlessi" format="2">
  <advance width="244.98"/>
  <unicode hex="0131"/>
  <anchor x="78.18216000000001" y="0.0" name="bottom"/>
  <anchor x="111.0" y="0.0" name="ogonek"/>
  <anchor x="163.35783999999998" y="534.0" name="top"/>
  <outline>
    <contour>
      <point x="111.0" y="0.0" type="line"/>
      <point x="195.46" y="534.0" type="line"/>
      <point x="130.92" y="534.0" type="line"/>
      <point x="46.419999999999995" y="0.13999999999999999" type="line"/>
    </contour>
  </outline>
</glyph>
<glyph name="kgreenlandic" format="2">
  <advance width="599.6999999999999"/>
  <unicode hex="0138"/>
  <anchor x="269.9" y="0.0" name="bottom"/>
  <anchor x="347.2" y="534.0" name="top"/>
  <outline>
    <contour>
      <point x="47.0" y="0.0" type="line"/>
      <point x="112.1" y="0.0" type="line"/>
      <point x="196.3" y="534.0" type="line"/>
      <point x="130.79999999999998" y="534.0" type="line"/>
    </contour>
    <contour>
      <point x="534.0" y="-10.0" type="curve" smooth="yes"/>
      <point x="543.9" y="-10.0"/>
      <point x="554.9" y="-7.7"/>
      <point x="563.1999999999999" y="-4.200000000000001" type="curve"/>
      <point x="566.5" y="52.7" type="line"/>
      <point x="559.9" y="50.6"/>
      <point x="552.1999999999999" y="50.0"/>
      <point x="545.8999999999999" y="50.0" type="curve" smooth="yes"/>
      <point x="509.09999999999997" y="50.0"/>
      <point x="463.59999999999997" y="82.6"/>
      <point x="348.59999999999997" y="199.3" type="curve" smooth="yes"/>
      <point x="160.9" y="387.2" type="line"/>
      <point x="147.9" y="321.2" type="line"/>
      <point x="329.8" y="135.1" type="line" smooth="yes"/>
      <point x="437.49999999999994" y="25.7"/>
      <point x="483.49999999999994" y="-10.0"/>
    </contour>
    <contour>
      <point x="275.2" y="258.70000000000005" type="line"/>
      <point x="422.29999999999995" y="327.9"/>
      <point x="542.0" y="429.4"/>
      <point x="603.3999999999999" y="532.9999999999999" type="curve"/>
      <point x="534.0999999999999" y="543.6999999999999" type="line"/>
      <point x="461.3999999999999" y="433.6"/>
      <point x="386.19999999999993" y="366.5"/>
      <point x="225.0" y="287.70000000000005" type="curve"/>
    </contour>
  </outline>
</glyph>
<glyph name="Ldot" format="2">
  <advance width="640.76"/>
  <unicode hex="013F"/>
  <outline>
    <contour>
      <point x="437.75987999999995" y="372.27772" type="curve" smooth="yes"/>
      <point x="436.71988" y="353.25812"/>
      <point x="446.09972" y="346.07833999999997"/>
      <point x="469.35929999999996" y="346.07833999999997" type="curve" smooth="yes"/>
      <point x="499.85865999999993" y="346.07833999999997"/>
      <point x="511.27848" y="356.41754"/>
      <point x="513.43848" y="388.33704" type="curve" smooth="yes"/>
      <point x="514.47848" y="407.31666"/>
      <point x="505.33864" y="414.73643999999996"/>
      <point x="482.25902" y="414.73643999999996" type="curve" smooth="yes"/>
      <point x="451.93968" y="414.73643999999996"/>
      <point x="439.91988" y="403.63721999999996"/>
    </contour>
    <component base="L"/>
  </outline>
</glyph>
<glyph name="ldot" format="2">
  <advance width="325.12"/>
  <unicode hex="0140"/>
  <outline>
    <contour>
      <point x="273.01540000000006" y="360.7019" type="curve" smooth="yes"/>
      <point x="271.9754" y="344.46988000000005"/>
      <point x="278.76136" y="338.88688"/>
      <point x="296.52774" y="338.88688" type="curve" smooth="yes"/>
      <point x="320.90482" y="338.88688"/>
      <point x="328.1725" y="347.32034000000004"/>
      <point x="330.33250000000004" y="375.13336" type="curve" smooth="yes"/>
      <point x="331.3725" y="391.23618000000005"/>
      <point x="324.82653999999997" y="397.05917999999997"/>
      <point x="307.1795" y="397.05917999999997" type="curve" smooth="yes"/>
      <point x="282.92156" y="397.05917999999997"/>
      <point x="275.17539999999997" y="388.13594"/>
    </contour>
    <component base="l"/>
  </outline>
</glyph>
<glyph name="Lslash" format="2">
  <advance width="641.66"/>
  <unicode hex="0141"/>
  <outline>
    <contour>
      <point x="55.099999999999994" y="0.0" type="line"/>
      <point x="581.06" y="0.0" type="line"/>
      <point x="590.56" y="56.17999999999999" type="line"/>
      <point x="131.18" y="56.17999999999999" type="line"/>
      <point x="164.06" y="264.86" type="line"/>
      <point x="456.52" y="431.12000000000006" type="line"/>
      <point x="466.64" y="491.79999999999995" type="line"/>
      <point x="174.06" y="325.48" type="line"/>
      <point x="233.57999999999998" y="700.0" type="line"/>
      <point x="166.72" y="700.0" type="line"/>
      <point x="101.36" y="289.58" type="line"/>
      <point x="25.379999999999995" y="245.48000000000002" type="line"/>
      <point x="15.479999999999999" y="185.26" type="line"/>
      <point x="91.11999999999999" y="229.22" type="line"/>
    </contour>
  </outline>
</glyph>
<glyph name="lslash" format="2">
  <advance width="303.6"/>
  <unicode hex="0142"/>
  <outline>
    <contour>
      <point x="10.52" y="169.06" type="line"/>
      <point x="285.59999999999997" y="401.24" type="line"/>
      <point x="294.44" y="458.67999999999995" type="line"/>
      <point x="19.16" y="226.50000000000003" type="line"/>
    </contour>
    <component base="l" xOffset="1.2000000000000002"/>
  </outline>
</glyph>
<glyph name="Eng" format="2">
  <advance width="857.1999999999999"/>
  <unicode hex="014A"/>
  <outline>
    <contour>
      <point x="54.5" y="0.0" type="line"/>
      <point x="118.6" y="0.0" type="line"/>
      <point x="213.60000000000002" y="601.4000000000001" type="line"/>
      <point x="651.4000000000001" y="-2.0000000000000004" type="line"/>
      <point x="625.1000000000001" y="-112.5"/>
      <point x="544.1999999999999" y="-143.89999999999998"/>
      <point x="455.1" y="-143.89999999999998" type="curve" smooth="yes"/>
      <point x="414.59999999999997" y="-144.29999999999998"/>
      <point x="372.99999999999994" y="-138.2"/>
      <point x="334.7" y="-129.3" type="curve"/>
      <point x="323.49999999999994" y="-182.99999999999997" type="line"/>
      <point x="365.5" y="-192.6"/>
      <point x="414.69999999999993" y="-198.1"/>
      <point x="455.4" y="-198.1" type="curve" smooth="yes"/>
      <point x="599.6" y="-198.1"/>
      <point x="692.1999999999999" y="-133.29999999999998"/>
      <point x="716.6" y="17.9" type="curve" smooth="yes"/>
      <point x="826.0" y="700.0" type="line"/>
      <point x="762.2" y="700.0" type="line"/>
      <point x="666.4" y="92.00000000000001" type="line"/>
      <point x="227.5" y="705.6" type="line"/>
      <point x="167.00000000000003" y="705.6" type="line"/>
    </contour>
  </outline>
</glyph>
<glyph name="eng" format="2">
  <advance width="666.18"/>
  <unicode hex="014B"/>
  <outline>
    <contour>
      <point x="523.2799999999999" y="-48.52" type="curve" smooth="yes"/>
      <point x="544.4399999999999" y="87.19999999999999"/>
      <point x="596.48" y="392.40000000000003"/>
      <point x="596.48" y="415.34" type="curve" smooth="yes"/>
      <point x="596.48" y="494.59999999999997"/>
      <point x="545.04" y="544.0"/>
      <point x="442.8399999999999" y="544.0" type="curve" smooth="yes"/>
      <point x="347.29999999999995" y="544.0"/>
      <point x="274.26" y="512.02"/>
      <point x="179.14" y="464.96" type="curve"/>
      <point x="189.96" y="534.0" type="line"/>
      <point x="130.78" y="534.0" type="line"/>
      <point x="46.739999999999995" y="0.0" type="line"/>
      <point x="110.34" y="0.0" type="line"/>
      <point x="177.32" y="419.79999999999995" type="line"/>
      <point x="264.1" y="461.91999999999996"/>
      <point x="328.92" y="491.38"/>
      <point x="413.35999999999996" y="491.38" type="curve" smooth="yes"/>
      <point x="494.46000000000004" y="491.38"/>
      <point x="529.46" y="453.94"/>
      <point x="528.34" y="390.34000000000003" type="curve" smooth="yes"/>
      <point x="526.66" y="357.78000000000003"/>
      <point x="485.66" y="116.42000000000004"/>
      <point x="460.34" y="-43.900000000000006" type="curve" smooth="yes"/>
      <point x="447.52" y="-124.08"/>
      <point x="421.02" y="-168.51999999999998"/>
      <point x="363.91999999999996" y="-168.51999999999998" type="curve" smooth="yes"/>
      <point x="352.35999999999996" y="-168.51999999999998"/>
      <point x="337.42" y="-167.16"/>
      <point x="319.58" y="-160.39999999999998" type="curve"/>
      <point x="307.15999999999997" y="-214.23999999999998" type="line"/>
      <point x="325.02" y="-220.84"/>
      <point x="358.91999999999996" y="-223.35999999999999"/>
      <point x="376.28" y="-223.35999999999999" type="curve" smooth="yes"/>
      <point x="461.9" y="-223.35999999999999"/>
      <point x="505.4399999999999" y="-163.70000000000002"/>
    </contour>
  </outline>
</glyph>
<glyph name="OE" format="2">
  <advance width="1290.4"/>
  <unicode hex="0152"/>
  <outline>
    <contour>
      <point x="1204.24" y="0.0" type="line"/>
      <point x="1213.6399999999996" y="57.0" type="line"/>
      <point x="708.7799999999999" y="57.0" type="line"/>
      <point x="753.8399999999999" y="342.59999999999997" type="line"/>
      <point x="1211.84" y="342.59999999999997" type="line"/>
      <point x="1221.2400000000002" y="398.8" type="line"/>
      <point x="762.6400000000001" y="398.8" type="line"/>
      <point x="801.4000000000001" y="643.0" type="line"/>
      <point x="1284.9" y="643.0" type="line"/>
      <point x="1294.28" y="700.0" type="line"/>
      <point x="810.0999999999999" y="700.0" type="line"/>
      <point x="714.18" y="705.0799999999999"/>
      <point x="611.98" y="710.0"/>
      <point x="520.9599999999999" y="710.0" type="curve" smooth="yes"/>
      <point x="249.22" y="710.0"/>
      <point x="65.66000000000001" y="546.86"/>
      <point x="65.66000000000001" y="268.26" type="curve" smooth="yes"/>
      <point x="65.66000000000001" y="79.82"/>
      <point x="179.73999999999998" y="-10.0"/>
      <point x="431.93999999999994" y="-10.0" type="curve" smooth="yes"/>
      <point x="521.52" y="-10.0"/>
      <point x="601.54" y="-5.82"/>
      <point x="698.44" y="0.0" type="curve"/>
    </contour>
    <contour>
      <point x="641.8000000000001" y="50.12" type="line"/>
      <point x="570.26" y="44.68000000000001"/>
      <point x="511.58" y="41.82"/>
      <point x="439.0" y="41.82" type="curve" smooth="yes"/>
      <point x="230.6" y="41.82"/>
      <point x="132.47999999999996" y="118.9"/>
      <point x="132.47999999999996" y="274.98" type="curve" smooth="yes"/>
      <point x="132.47999999999996" y="506.29999999999995"/>
      <point x="286.1599999999999" y="657.96"/>
      <point x="519.04" y="657.96" type="curve" smooth="yes"/>
      <point x="559.4000000000001" y="657.96"/>
      <point x="694.76" y="653.98"/>
      <point x="737.1800000000001" y="650.5200000000001" type="curve"/>
    </contour>
  </outline>
</glyph>
